NewsreaderText-Medium.ufo
<glyph name="exclam" format="2">
	<unicode hex="0021"/>
	<advance width="529"/>
	<outline>
		<contour>
			<point x="376" y="1299.4" type="line" smooth="yes"/>
			<point x="376.8" y="1341.8"/>
			<point x="321.2" y="1362"/>
			<point x="265.6" y="1362" type="curve" smooth="yes"/>
			<point x="210" y="1362"/>
			<point x="154.4" y="1341.8"/>
			<point x="155.2" y="1299.4" type="curve" smooth="yes"/>
			<point x="158.4" y="1164.4" type="line" smooth="yes"/>
			<point x="160.8" y="1041"/>
			<point x="198" y="798.4"/>
			<point x="234.4" y="417.2" type="curve"/>
			<point x="296.8" y="417.2" type="line"/>
			<point x="333.2" y="798.4"/>
			<point x="370.4" y="1041"/>
			<point x="372.8" y="1164.4" type="curve" smooth="yes"/>
		</contour>
		<contour>
			<point x="264.4" y="249" type="curve" smooth="yes"/>
			<point x="186.2" y="249"/>
			<point x="129.4" y="190"/>
			<point x="129.4" y="116.6" type="curve" smooth="yes"/>
			<point x="129.4" y="43"/>
			<point x="186.2" y="-16"/>
			<point x="264.4" y="-16" type="curve" smooth="yes"/>
			<point x="342.6" y="-16"/>
			<point x="399.4" y="43"/>
			<point x="399.4" y="116.6" type="curve" smooth="yes"/>
			<point x="399.4" y="190"/>
			<point x="342.6" y="249"/>
		</contour>
	</outline>
</glyph>
<glyph name="ampersand" format="2">
  <advance width="1412.8"/>
  <unicode hex="0026"/>
  <outline>
    <contour>
      <point x="590.6" y="734.2" type="line"/>
      <point x="839.6" y="866.2"/>
      <point x="916.2" y="980.0"/>
      <point x="916.2" y="1103.4" type="curve" smooth="yes"/>
      <point x="916.2" y="1244.4"/>
      <point x="811.2" y="1362.0"/>
      <point x="602.6" y="1362.0" type="curve" smooth="yes"/>
      <point x="381.0" y="1362.0"/>
      <point x="249.4" y="1239.8"/>
      <point x="249.4" y="1061.6" type="curve" smooth="yes"/>
      <point x="249.4" y="966.6"/>
      <point x="285.6" y="881.0"/>
      <point x="412.4" y="734.4" type="curve" smooth="yes"/>
      <point x="1045.4" y="0.0" type="line"/>
      <point x="1393.0" y="0.0" type="line"/>
      <point x="1393.0" y="39.8" type="line"/>
      <point x="1209.2" y="98.8" type="line"/>
      <point x="542.0" y="861.0" type="line" smooth="yes"/>
      <point x="447.4" y="968.8"/>
      <point x="417.2" y="1026.8"/>
      <point x="417.2" y="1108.8" type="curve" smooth="yes"/>
      <point x="417.2" y="1217.4"/>
      <point x="489.0" y="1275.2"/>
      <point x="591.2" y="1275.2" type="curve" smooth="yes"/>
      <point x="703.4" y="1275.2"/>
      <point x="757.4" y="1204.8"/>
      <point x="757.4" y="1091.8" type="curve" smooth="yes"/>
      <point x="757.4" y="981.2"/>
      <point x="703.4" y="890.8"/>
      <point x="547.4" y="798.2" type="curve"/>
      <point x="468.0" y="755.6" type="line"/>
      <point x="200.4" y="634.4"/>
      <point x="106.6" y="492.4"/>
      <point x="106.6" y="328.0" type="curve" smooth="yes"/>
      <point x="106.6" y="128.0"/>
      <point x="239.2" y="-22.0"/>
      <point x="493.6" y="-22.0" type="curve" smooth="yes"/>
      <point x="665.8" y="-22.0"/>
      <point x="814.8" y="40.6"/>
      <point x="949.2" y="211.0" type="curve"/>
      <point x="977.2" y="241.8" type="line"/>
      <point x="1059.4" y="355.0"/>
      <point x="1135.2" y="508.0"/>
      <point x="1212.4" y="725.6" type="curve"/>
      <point x="1369.8" y="773.6" type="line"/>
      <point x="1369.8" y="813.0" type="line"/>
      <point x="926.8" y="813.0" type="line"/>
      <point x="926.8" y="773.6" type="line"/>
      <point x="1074.4" y="725.6" type="line"/>
      <point x="1031.4" y="546.4"/>
      <point x="981.0" y="416.8"/>
      <point x="922.6" y="324.8" type="curve"/>
      <point x="890.6" y="283.6" type="line"/>
      <point x="795.8" y="157.2"/>
      <point x="686.4" y="110.0"/>
      <point x="569.8" y="110.0" type="curve" smooth="yes"/>
      <point x="397.4" y="110.0"/>
      <point x="294.0" y="204.8"/>
      <point x="294.0" y="377.4" type="curve" smooth="yes"/>
      <point x="294.0" y="510.2"/>
      <point x="351.0" y="606.0"/>
      <point x="503.6" y="692.0" type="curve"/>
    </contour>
  </outline>
</glyph>
<glyph name="quotesingle" format="2">
  <advance width="389"/>
  <unicode hex="0027"/>
  <outline>
    <contour>
      <point x="151.6" y="846.2" type="line"/>
      <point x="236.4" y="846.2" type="line"/>
      <point x="301.6" y="1290.0" type="line"/>
      <point x="301.6" y="1340.0" type="line"/>
      <point x="88.8" y="1340.0" type="line"/>
      <point x="88.8" y="1290.0" type="line"/>
    </contour>
  </outline>
</glyph>
<glyph name="parenleft" format="2">
	<unicode hex="0028"/>
	<advance width="552.2"/>
	<outline>
		<contour>
			<point x="251.8" y="572.4" type="curve" smooth="yes"/>
			<point x="251.8" y="826"/>
			<point x="294.1570714773" y="1057.4913143636"/>
			<point x="497.4" y="1386" type="curve"/>
			<point x="448" y="1421" type="line"/>
			<point x="156.8931346709" y="1063.7013087638"/>
			<point x="79.8" y="870.2"/>
			<point x="79.8" y="572.4" type="curve" smooth="yes"/>
			<point x="79.8" y="274.6"/>
			<point x="156.8931346709" y="81.0986912362"/>
			<point x="448" y="-276.2" type="curve"/>
			<point x="497.4" y="-241.2" type="line"/>
			<point x="294.1570714773" y="87.3086856364"/>
			<point x="251.8" y="318.8"/>
		</contour>
	</outline>
</glyph>
<glyph name="parenright" format="2">
	<unicode hex="0029"/>
	<advance width="552.2"/>
	<outline>
		<contour>
			<point x="300.4" y="572.4" type="curve" smooth="yes"/>
			<point x="300.4" y="318.8"/>
			<point x="257.8" y="87.4"/>
			<point x="54.8" y="-241.2" type="curve"/>
			<point x="104.2" y="-276.2" type="line"/>
			<point x="395.4" y="81"/>
			<point x="472.4" y="274.6"/>
			<point x="472.4" y="572.4" type="curve" smooth="yes"/>
			<point x="472.4" y="870.2"/>
			<point x="395.4" y="1063.8"/>
			<point x="104.2" y="1421" type="curve"/>
			<point x="54.8" y="1386" type="line"/>
			<point x="257.8" y="1057.4"/>
			<point x="300.4" y="826"/>
		</contour>
	</outline>
</glyph>
<glyph name="asterisk" format="2">
  <advance width="853.8"/>
  <unicode hex="002A"/>
  <outline>
    <contour>
      <point x="587.4" y="717.8" type="line"/>
      <point x="515.2" y="967.2" type="line"/>
      <point x="771.4" y="1015.6" type="line"/>
      <point x="766.6" y="1077.4" type="line"/>
      <point x="505.8" y="1085.2" type="line"/>
      <point x="540.2" y="1344.4" type="line"/>
      <point x="480.6" y="1358.4" type="line"/>
      <point x="392.2" y="1113.4" type="line"/>
      <point x="156.6" y="1225.8" type="line"/>
      <point x="123.6" y="1173.6" type="line"/>
      <point x="329.6" y="1013.2" type="line"/>
      <point x="150.4" y="824.2" type="line"/>
      <point x="189.8" y="776.8" type="line"/>
      <point x="405.8" y="922.4" type="line"/>
      <point x="530.0" y="693.0" type="line"/>
    </contour>
  </outline>
</glyph>
<glyph name="plus" format="2">
	<unicode hex="002B"/>
	<advance width="1000"/>
	<outline>
		<contour>
			<point x="452" y="799" type="line"/>
			<point x="452" y="73" type="line"/>
			<point x="548" y="73" type="line"/>
			<point x="548" y="799" type="line"/>
		</contour>
		<contour>
			<point x="863" y="484" type="line"/>
			<point x="137" y="484" type="line"/>
			<point x="137" y="388" type="line"/>
			<point x="863" y="388" type="line"/>
		</contour>
	</outline>
</glyph>
<glyph name="hyphen" format="2">
	<unicode hex="002D"/>
	<advance width="689.6"/>
	<outline>
		<contour>
			<point x="117.4" y="509.8" type="line"/>
			<point x="117.4" y="366.4" type="line"/>
			<point x="572.2" y="366.4" type="line"/>
			<point x="572.2" y="509.8" type="line"/>
		</contour>
	</outline>
</glyph>
<glyph name="period" format="2">
	<unicode hex="002E"/>
	<advance width="454.8"/>
	<outline>
		<contour>
			<point x="227.4" y="249" type="curve" smooth="yes"/>
			<point x="149.2" y="249"/>
			<point x="92.4" y="190"/>
			<point x="92.4" y="116.6" type="curve" smooth="yes"/>
			<point x="92.4" y="43"/>
			<point x="149.2" y="-16"/>
			<point x="227.4" y="-16" type="curve" smooth="yes"/>
			<point x="305.6" y="-16"/>
			<point x="362.4" y="43"/>
			<point x="362.4" y="116.6" type="curve" smooth="yes"/>
			<point x="362.4" y="190"/>
			<point x="305.6" y="249"/>
		</contour>
	</outline>
</glyph>
<glyph name="slash" format="2">
	<unicode hex="002F"/>
	<advance width="783.2"/>
	<outline>
		<contour>
			<point x="52.2" y="0" type="line"/>
			<point x="169.4" y="0" type="line"/>
			<point x="730.2" y="1340" type="line"/>
			<point x="613.2" y="1340" type="line"/>
		</contour>
	</outline>
</glyph>
<glyph name="zero" format="2">
	<unicode hex="0030"/>
	<advance width="1140"/>
	<outline>
		<contour>
			<point x="573.6" y="70.6" type="curve" smooth="yes"/>
			<point x="389.2056615696" y="70.6"/>
			<point x="282.6" y="297.2"/>
			<point x="282.6" y="703.6" type="curve" smooth="yes"/>
			<point x="282.6" y="1066.2"/>
			<point x="387.7308053945" y="1269.4"/>
			<point x="566.4" y="1269.4" type="curve" smooth="yes"/>
			<point x="750.0035873303" y="1269.4"/>
			<point x="856.6" y="1042.8"/>
			<point x="856.6" y="636.4" type="curve" smooth="yes"/>
			<point x="856.6" y="273.8"/>
			<point x="751.4785597494" y="70.6"/>
		</contour>
		<contour>
			<point x="570" y="1362" type="curve" smooth="yes"/>
			<point x="268.6702237522" y="1362"/>
			<point x="71" y="1086.6"/>
			<point x="71" y="668" type="curve" smooth="yes"/>
			<point x="71" y="250.6"/>
			<point x="268.6702237522" y="-22"/>
			<point x="570" y="-22" type="curve" smooth="yes"/>
			<point x="873.7297762478" y="-22"/>
			<point x="1069" y="253.4"/>
			<point x="1069" y="672" type="curve" smooth="yes"/>
			<point x="1069" y="1089.4"/>
			<point x="873.7297762478" y="1362"/>
		</contour>
	</outline>
</glyph>
<glyph name="one" format="2">
	<unicode hex="0031"/>
	<advance width="1140"/>
	<outline>
		<contour>
			<point x="547.4" y="99.6" type="line"/>
			<point x="269.2" y="43" type="line"/>
			<point x="269.2" y="0" type="line"/>
			<point x="1006.8" y="0" type="line"/>
			<point x="1006.8" y="43" type="line"/>
			<point x="745" y="99.6" type="line"/>
			<point x="745" y="1356" type="line"/>
			<point x="680.4" y="1356" type="line"/>
			<point x="164.4" y="1092.8" type="line"/>
			<point x="181.8" y="1044.6" type="line"/>
			<point x="599" y="1162" type="line"/>
			<point x="547.4" y="1229" type="line"/>
		</contour>
	</outline>
</glyph>
<glyph name="colon" format="2">
  <advance width="498"/>
  <unicode hex="003A"/>
  <outline>
    <contour>
      <point x="249.0" y="249.0" type="curve" smooth="yes"/>
      <point x="170.8" y="249.0"/>
      <point x="114.0" y="190.0"/>
      <point x="114.0" y="116.6" type="curve" smooth="yes"/>
      <point x="114.0" y="43.0"/>
      <point x="170.8" y="-16.0"/>
      <point x="249.0" y="-16.0" type="curve" smooth="yes"/>
      <point x="327.2" y="-16.0"/>
      <point x="384.0" y="43.0"/>
      <point x="384.0" y="116.6" type="curve" smooth="yes"/>
      <point x="384.0" y="190.0"/>
      <point x="327.2" y="249.0"/>
    </contour>
    <contour>
      <point x="249.0" y="869.6" type="curve" smooth="yes"/>
      <point x="170.8" y="869.6"/>
      <point x="114.0" y="810.6"/>
      <point x="114.0" y="737.2" type="curve" smooth="yes"/>
      <point x="114.0" y="663.6"/>
      <point x="170.8" y="604.6"/>
      <point x="249.0" y="604.6" type="curve" smooth="yes"/>
      <point x="327.2" y="604.6"/>
      <point x="384.0" y="663.6"/>
      <point x="384.0" y="737.2" type="curve" smooth="yes"/>
      <point x="384.0" y="810.6"/>
      <point x="327.2" y="869.6"/>
    </contour>
  </outline>
</glyph>
<glyph name="less" format="2">
  <advance width="1000.0"/>
  <unicode hex="003C"/>
  <guideline x="136.6" y="422.0" angle="176.59492390808282" identifier="kprTFTNFtj"/>
  <outline>
    <contour>
      <point x="136.6" y="417.6" type="line"/>
      <point x="943.6" y="784.2" type="line"/>
      <point x="943.6" y="893.4" type="line"/>
      <point x="43.6" y="476.8" type="line"/>
      <point x="43.6" y="395.2" type="line"/>
      <point x="943.6" y="-21.4" type="line"/>
      <point x="943.6" y="87.8" type="line"/>
      <point x="136.6" y="454.4" type="line"/>
    </contour>
  </outline>
</glyph>
<glyph name="greater" format="2">
  <advance width="1000"/>
  <unicode hex="003E"/>
  <outline>
    <contour>
      <point x="863.4" y="417.6" type="line"/>
      <point x="863.4" y="454.4" type="line"/>
      <point x="56.4" y="87.8" type="line"/>
      <point x="56.4" y="-21.4" type="line"/>
      <point x="956.4" y="395.2" type="line"/>
      <point x="956.4" y="476.8" type="line"/>
      <point x="56.4" y="893.4" type="line"/>
      <point x="56.4" y="784.2" type="line"/>
    </contour>
  </outline>
</glyph>
<glyph name="question" format="2">
	<unicode hex="003F"/>
	<advance width="854.2"/>
	<outline>
		<contour>
			<point x="292.6" y="1362" type="curve" smooth="yes"/>
			<point x="135.8" y="1362"/>
			<point x="56.8" y="1314.8"/>
			<point x="56.8" y="1244" type="curve" smooth="yes"/>
			<point x="56.8" y="1189.4"/>
			<point x="100.6" y="1146.2"/>
			<point x="158.8" y="1146.2" type="curve" smooth="yes"/>
			<point x="264.8449864499" y="1146.2"/>
			<point x="290.5398373984" y="1250.4"/>
			<point x="419.4" y="1250.4" type="curve" smooth="yes"/>
			<point x="558" y="1250.4"/>
			<point x="648.4" y="1162.2"/>
			<point x="648.4" y="1008.8" type="curve" smooth="yes"/>
			<point x="648.4" y="855"/>
			<point x="526.8" y="764.6"/>
			<point x="254.2" y="781.6" type="curve"/>
			<point x="333.6" y="417.2" type="line"/>
			<point x="380.4" y="417.2" type="line"/>
			<point x="388.4" y="749.8" type="line"/>
			<point x="322.8" y="623.2" type="line"/>
			<point x="664.8" y="613.6"/>
			<point x="772" y="744.4"/>
			<point x="772" y="939.2" type="curve" smooth="yes"/>
			<point x="772" y="1208"/>
			<point x="564.8" y="1362"/>
		</contour>
		<contour>
			<point x="365" y="251" type="curve" smooth="yes"/>
			<point x="286.8" y="251"/>
			<point x="230" y="192"/>
			<point x="230" y="118.6" type="curve" smooth="yes"/>
			<point x="230" y="45"/>
			<point x="286.8" y="-14"/>
			<point x="365" y="-14" type="curve" smooth="yes"/>
			<point x="443.2" y="-14"/>
			<point x="500" y="45"/>
			<point x="500" y="118.6" type="curve" smooth="yes"/>
			<point x="500" y="192"/>
			<point x="443.2" y="251"/>
		</contour>
	</outline>
</glyph>
<glyph name="at" format="2">
	<unicode hex="0040"/>
	<advance width="1760"/>
	<outline>
		<contour>
			<point x="1219" y="192.8" type="curve" smooth="yes"/>
			<point x="1494.4" y="192.8"/>
			<point x="1714.6" y="431.4"/>
			<point x="1714.6" y="765.2" type="curve" smooth="yes"/>
			<point x="1714.6" y="1138.6"/>
			<point x="1446.2" y="1409.2"/>
			<point x="988.6" y="1409.2" type="curve" smooth="yes"/>
			<point x="447.6" y="1409.2"/>
			<point x="76" y="1003.6"/>
			<point x="76" y="491.6" type="curve" smooth="yes"/>
			<point x="76" y="30.2"/>
			<point x="386.4" y="-258"/>
			<point x="892.4" y="-258" type="curve" smooth="yes"/>
			<point x="1145" y="-258"/>
			<point x="1350.6" y="-187.2"/>
			<point x="1526.6" y="-66.8" type="curve"/>
			<point x="1483.2" y="2.6" type="line"/>
			<point x="1304.2" y="-120.2"/>
			<point x="1103.4" y="-165.2"/>
			<point x="921.6" y="-165.2" type="curve" smooth="yes"/>
			<point x="477.2" y="-165.2"/>
			<point x="232.6" y="98.4"/>
			<point x="232.6" y="503.2" type="curve" smooth="yes"/>
			<point x="232.6" y="988"/>
			<point x="519.6" y="1323.6"/>
			<point x="984" y="1323.6" type="curve" smooth="yes"/>
			<point x="1347.8" y="1323.6"/>
			<point x="1568.6" y="1072.8"/>
			<point x="1568.6" y="738.4" type="curve" smooth="yes"/>
			<point x="1568.6" y="438.2"/>
			<point x="1414.2" y="270.4"/>
			<point x="1262.6" y="270.4" type="curve" smooth="yes"/>
			<point x="1206.2" y="270.4"/>
			<point x="1163.6" y="300.8"/>
			<point x="1163.6" y="383" type="curve" smooth="yes"/>
			<point x="1163.6" y="415.4"/>
			<point x="1170.2" y="455.4"/>
			<point x="1193.8" y="530.8" type="curve" smooth="yes"/>
			<point x="1338.6" y="995.6" type="line"/>
			<point x="1170.4" y="995.6" type="line"/>
			<point x="1132.4" y="911" type="line"/>
			<point x="1044.8" y="650.4" type="line" smooth="yes"/>
			<point x="982.4" y="461.8"/>
			<point x="827.4" y="323.2"/>
			<point x="754.2" y="323.2" type="curve" smooth="yes"/>
			<point x="711" y="323.2"/>
			<point x="683.8" y="348.8"/>
			<point x="683.8" y="400.2" type="curve" smooth="yes"/>
			<point x="683.8" y="583.4"/>
			<point x="862" y="922"/>
			<point x="1039.4" y="922" type="curve" smooth="yes"/>
			<point x="1088" y="922"/>
			<point x="1112.2" y="892.2"/>
			<point x="1124" y="860.6" type="curve"/>
			<point x="1166.2" y="918.2" type="line"/>
			<point x="1119.8" y="972.4"/>
			<point x="1074.2" y="1002.6"/>
			<point x="999.2" y="1002.6" type="curve" smooth="yes"/>
			<point x="707" y="1002.6"/>
			<point x="483" y="614"/>
			<point x="483" y="380.8" type="curve" smooth="yes"/>
			<point x="483" y="254.6"/>
			<point x="550.8" y="194.6"/>
			<point x="664" y="194.6" type="curve" smooth="yes"/>
			<point x="766.6" y="194.6"/>
			<point x="885" y="263.6"/>
			<point x="1061" y="557" type="curve"/>
			<point x="1028.2" y="557" type="line"/>
			<point x="1006.6" y="479.8" type="line" smooth="yes"/>
			<point x="996" y="442.4"/>
			<point x="991.8" y="407.6"/>
			<point x="991.8" y="377.4" type="curve" smooth="yes"/>
			<point x="991.8" y="248.6"/>
			<point x="1082.6" y="192.8"/>
		</contour>
	</outline>
</glyph>
<glyph name="A" format="2">
	<unicode hex="0041"/>
	<advance width="1414"/>
	<outline>
		<contour>
			<point x="348" y="483.6" type="line"/>
			<point x="1014.4" y="483.6" type="line"/>
			<point x="1014.4" y="583.2" type="line"/>
			<point x="348" y="583.2" type="line"/>
		</contour>
		<contour>
			<point x="1284.4" y="96.6" type="line"/>
			<point x="746.8" y="1356" type="line"/>
			<point x="653.8" y="1356" type="line"/>
			<point x="136" y="94.6" type="line"/>
			<point x="-17" y="40.4" type="line"/>
			<point x="-17" y="0" type="line"/>
			<point x="412.4" y="0" type="line"/>
			<point x="412.4" y="40.4" type="line"/>
			<point x="251.8" y="94.6" type="line"/>
			<point x="674.6" y="1167.2" type="line"/>
			<point x="615.4" y="1167.2" type="line"/>
			<point x="1065.4" y="94.6" type="line"/>
			<point x="894.8" y="40.4" type="line"/>
			<point x="894.8" y="0" type="line"/>
			<point x="1432.4" y="0" type="line"/>
			<point x="1432.4" y="40.4" type="line"/>
		</contour>
	</outline>
	<anchor name="UCtop" x="696.2" y="1340"/>
	<anchor name="right" x="1340" y="0"/>
	<anchor name="bottom" x="699.4" y="0"/>
</glyph>
<glyph name="B" format="2">
	<unicode hex="0042"/>
	<advance width="1289.6"/>
	<outline>
		<contour>
			<point x="349.4" y="1237.2" type="line"/>
			<point x="643.4" y="1237.2" type="line" smooth="yes"/>
			<point x="831.4" y="1237.2"/>
			<point x="921.4" y="1143.8"/>
			<point x="921.4" y="1008.6" type="curve" smooth="yes"/>
			<point x="921.4" y="843.4"/>
			<point x="823.8" y="762.4"/>
			<point x="667.2" y="762.4" type="curve" smooth="yes"/>
			<point x="349.4" y="762.4" type="line"/>
			<point x="348.6" y="659.6" type="line"/>
			<point x="680.6" y="659.6" type="line" smooth="yes"/>
			<point x="895.2" y="659.6"/>
			<point x="990.4" y="549.2"/>
			<point x="990.4" y="390.8" type="curve" smooth="yes"/>
			<point x="990.4" y="190.6"/>
			<point x="870.2" y="102.8"/>
			<point x="671.8" y="102.8" type="curve" smooth="yes"/>
			<point x="349.6" y="102.8" type="line"/>
			<point x="354.4" y="0" type="line"/>
			<point x="709.4" y="0" type="line" smooth="yes"/>
			<point x="1060" y="0"/>
			<point x="1208.4" y="170"/>
			<point x="1208.4" y="399" type="curve" smooth="yes"/>
			<point x="1208.4" y="586"/>
			<point x="1062" y="718"/>
			<point x="825.2" y="732" type="curve"/>
			<point x="822.2" y="717" type="line"/>
			<point x="1010.2" y="734"/>
			<point x="1128.2" y="858"/>
			<point x="1128.2" y="1024" type="curve" smooth="yes"/>
			<point x="1128.2" y="1203"/>
			<point x="1005.2" y="1340"/>
			<point x="706.2" y="1340" type="curve" smooth="yes"/>
			<point x="353.4" y="1340" type="line"/>
		</contour>
		<contour>
			<point x="79.8" y="0" type="line"/>
			<point x="439.8" y="0" type="line"/>
			<point x="439.8" y="1340" type="line"/>
			<point x="79.8" y="1340" type="line"/>
			<point x="79.8" y="1299.6" type="line"/>
			<point x="233.8" y="1245.6" type="line"/>
			<point x="233.8" y="94.4" type="line"/>
			<point x="79.8" y="40.4" type="line"/>
		</contour>
	</outline>
	<anchor name="UCtop" x="639.8" y="1340"/>
	<anchor name="bottom" x="647.8" y="0"/>
</glyph>
<glyph name="C" format="2">
	<unicode hex="0043"/>
	<advance width="1390.4"/>
	<outline>
		<contour>
			<point x="873.2" y="80" type="curve" smooth="yes"/>
			<point x="546" y="80"/>
			<point x="305.2" y="310.4"/>
			<point x="305.2" y="733.8" type="curve" smooth="yes"/>
			<point x="305.2" y="1065.6"/>
			<point x="487.2" y="1259"/>
			<point x="835.4" y="1259" type="curve" smooth="yes"/>
			<point x="937.8" y="1259"/>
			<point x="1021.4" y="1239.2"/>
			<point x="1131.6" y="1175.2" type="curve"/>
			<point x="1078" y="1230.6" type="line"/>
			<point x="1255.2" y="920.4" type="line"/>
			<point x="1306.4" y="931" type="line"/>
			<point x="1244.6" y="1402" type="line"/>
			<point x="1220.4" y="1402" type="line"/>
			<point x="1092.6" y="1314.2" type="line"/>
			<point x="1154.4" y="1327" type="line"/>
			<point x="1039.4" y="1354"/>
			<point x="966.2" y="1362"/>
			<point x="882.4" y="1362" type="curve" smooth="yes"/>
			<point x="384.6" y="1362"/>
			<point x="88" y="1082.6"/>
			<point x="88" y="658" type="curve" smooth="yes"/>
			<point x="88" y="229.2"/>
			<point x="387.2" y="-22"/>
			<point x="844.6" y="-22" type="curve" smooth="yes"/>
			<point x="1014.2" y="-22"/>
			<point x="1172" y="10"/>
			<point x="1271" y="55.4" type="curve"/>
			<point x="1307.4" y="370.2" type="line"/>
			<point x="1253.2" y="370.2" type="line"/>
			<point x="1101.4" y="91.2" type="line"/>
			<point x="1153.8" y="131.6" type="line"/>
			<point x="1056.6" y="94.8"/>
			<point x="971.2" y="80"/>
		</contour>
	</outline>
	<anchor name="UCtop" x="781.4" y="1340"/>
	<anchor name="bottom" x="774" y="0"/>
	<anchor name="right" x="1368.2" y="0"/>
</glyph>
<glyph name="D" format="2">
	<unicode hex="0044"/>
	<advance width="1513.4"/>
	<outline>
		<contour>
			<point x="1204.2" y="687.8" type="curve" smooth="yes"/>
			<point x="1204.2" y="274"/>
			<point x="968.2" y="102.8"/>
			<point x="615.4" y="102.8" type="curve" smooth="yes"/>
			<point x="325.2" y="102.8" type="line"/>
			<point x="317.4" y="0" type="line"/>
			<point x="645.4" y="0" type="line" smooth="yes"/>
			<point x="1089.4" y="0"/>
			<point x="1424.4" y="260"/>
			<point x="1424.4" y="710" type="curve" smooth="yes"/>
			<point x="1424.4" y="1134"/>
			<point x="1167.4" y="1340"/>
			<point x="643.4" y="1340" type="curve" smooth="yes"/>
			<point x="317.4" y="1340" type="line"/>
			<point x="325.2" y="1237.2" type="line"/>
			<point x="594.8" y="1237.2" type="line" smooth="yes"/>
			<point x="972" y="1237.2"/>
			<point x="1204.2" y="1062"/>
		</contour>
		<contour>
			<point x="79.8" y="0" type="line"/>
			<point x="439.8" y="0" type="line"/>
			<point x="439.8" y="1340" type="line"/>
			<point x="79.8" y="1340" type="line"/>
			<point x="79.8" y="1299.6" type="line"/>
			<point x="233.8" y="1245.6" type="line"/>
			<point x="233.8" y="94.4" type="line"/>
			<point x="79.8" y="40.4" type="line"/>
		</contour>
	</outline>
	<anchor name="UCtop" x="759" y="1340"/>
	<anchor name="bottom" x="760.6" y="0"/>
</glyph>
<glyph name="E" format="2">
  <advance width="1263"/>
  <unicode hex="0045"/>
  <anchor x="644.0" y="1340.0" name="UCtop"/>
  <anchor x="1119.8" y="0.0" name="right"/>
  <anchor x="676.0" y="0.0" name="bottom"/>
  <outline>
    <contour>
      <point x="906.4" y="965.0" type="line"/>
      <point x="825.0" y="965.0" type="line"/>
      <point x="803.0" y="754.4" type="line"/>
      <point x="321.4" y="754.4" type="line"/>
      <point x="321.4" y="651.6" type="line"/>
      <point x="803.0" y="651.6" type="line"/>
      <point x="825.0" y="441.0" type="line"/>
      <point x="906.4" y="441.0" type="line"/>
      <point x="906.4" y="703.0" type="line"/>
    </contour>
    <contour>
      <point x="1166.2" y="958.6" type="line"/>
      <point x="1096.4" y="1394.4" type="line"/>
      <point x="1076.0" y="1394.4" type="line"/>
      <point x="960.6" y="1340.0" type="line"/>
      <point x="321.4" y="1340.0" type="line"/>
      <point x="321.4" y="1237.2" type="line"/>
      <point x="998.4" y="1237.2" type="line"/>
      <point x="935.0" y="1266.0" type="line"/>
      <point x="1116.0" y="948.2" type="line"/>
    </contour>
    <contour>
      <point x="958.0" y="70.8" type="line"/>
      <point x="1008.4" y="102.8" type="line"/>
      <point x="321.4" y="102.8" type="line"/>
      <point x="321.4" y="0.0" type="line"/>
      <point x="980.4" y="0.0" type="line"/>
      <point x="1101.4" y="-63.4" type="line"/>
      <point x="1122.8" y="-63.4" type="line"/>
      <point x="1198.6" y="384.8" type="line"/>
      <point x="1154.6" y="396.4" type="line"/>
    </contour>
    <contour>
      <point x="79.8" y="0.0" type="line"/>
      <point x="439.8" y="0.0" type="line"/>
      <point x="439.8" y="1340.0" type="line"/>
      <point x="79.8" y="1340.0" type="line"/>
      <point x="79.8" y="1299.6" type="line"/>
      <point x="233.8" y="1245.6" type="line"/>
      <point x="233.8" y="94.4" type="line"/>
      <point x="79.8" y="40.4" type="line"/>
    </contour>
  </outline>
</glyph>
<glyph name="G" format="2">
  <advance width="1482.0"/>
  <unicode hex="0047"/>
  <anchor x="791.6" y="1340.0" name="UCtop"/>
  <anchor x="801.6" y="0.0" name="bottom"/>
  <outline>
    <contour>
      <point x="1314.4" y="177.0" type="line"/>
      <point x="1314.4" y="504.6" type="line"/>
      <point x="1444.4" y="558.6" type="line"/>
      <point x="1444.4" y="599.0" type="line"/>
      <point x="930.4" y="599.0" type="line"/>
      <point x="930.4" y="558.6" type="line"/>
      <point x="1108.4" y="499.8" type="line"/>
      <point x="1108.4" y="53.0" type="line"/>
      <point x="1180.6" y="179.4" type="line"/>
      <point x="1115.8" y="117.4"/>
      <point x="980.2" y="80.0"/>
      <point x="849.6" y="80.0" type="curve" smooth="yes"/>
      <point x="535.2" y="80.0"/>
      <point x="305.0" y="309.4"/>
      <point x="305.0" y="729.8" type="curve" smooth="yes"/>
      <point x="305.0" y="1065.6"/>
      <point x="482.8" y="1259.0"/>
      <point x="825.8" y="1259.0" type="curve" smooth="yes"/>
      <point x="958.0" y="1259.0"/>
      <point x="1057.0" y="1225.0"/>
      <point x="1161.6" y="1150.4" type="curve"/>
      <point x="1060.0" y="1249.0" type="line"/>
      <point x="1247.6" y="920.4" type="line"/>
      <point x="1298.8" y="931.0" type="line"/>
      <point x="1237.0" y="1402.0" type="line"/>
      <point x="1212.8" y="1402.0" type="line"/>
      <point x="1081.8" y="1312.6" type="line"/>
      <point x="1153.2" y="1325.4" type="line"/>
      <point x="1043.8" y="1351.8"/>
      <point x="966.8" y="1362.0"/>
      <point x="872.8" y="1362.0" type="curve" smooth="yes"/>
      <point x="379.6" y="1362.0"/>
      <point x="87.8" y="1082.6"/>
      <point x="87.8" y="658.0" type="curve" smooth="yes"/>
      <point x="87.8" y="233.4"/>
      <point x="384.4" y="-22.0"/>
      <point x="842.4" y="-22.0" type="curve" smooth="yes"/>
      <point x="1028.8" y="-22.0"/>
      <point x="1201.0" y="14.8"/>
      <point x="1336.6" y="78.6" type="curve"/>
      <point x="1336.6" y="81.6" type="line"/>
    </contour>
  </outline>
</glyph>
<glyph name="H" format="2">
	<unicode hex="0048"/>
	<advance width="1588.8"/>
	<outline>
		<contour>
			<point x="439.8" y="94.4" type="line"/>
			<point x="439.8" y="1245.6" type="line"/>
			<point x="593.8" y="1299.6" type="line"/>
			<point x="593.8" y="1340" type="line"/>
			<point x="79.8" y="1340" type="line"/>
			<point x="79.8" y="1299.6" type="line"/>
			<point x="233.8" y="1245.6" type="line"/>
			<point x="233.8" y="94.4" type="line"/>
			<point x="79.8" y="40.4" type="line"/>
			<point x="79.8" y="0" type="line"/>
			<point x="593.8" y="0" type="line"/>
			<point x="593.8" y="40.4" type="line"/>
		</contour>
		<contour>
			<point x="1355" y="94.4" type="line"/>
			<point x="1355" y="1245.6" type="line"/>
			<point x="1509" y="1299.6" type="line"/>
			<point x="1509" y="1340" type="line"/>
			<point x="995" y="1340" type="line"/>
			<point x="995" y="1299.6" type="line"/>
			<point x="1149" y="1245.6" type="line"/>
			<point x="1149" y="94.4" type="line"/>
			<point x="995" y="40.4" type="line"/>
			<point x="995" y="0" type="line"/>
			<point x="1509" y="0" type="line"/>
			<point x="1509" y="40.4" type="line"/>
		</contour>
		<contour>
			<point x="318" y="632" type="line"/>
			<point x="1271" y="632" type="line"/>
			<point x="1271" y="734.8" type="line"/>
			<point x="318" y="734.8" type="line"/>
		</contour>
	</outline>
	<anchor name="UCtop" x="794" y="1340"/>
	<anchor name="bottom" x="794" y="0"/>
</glyph>
<glyph name="I" format="2">
	<unicode hex="0049"/>
	<advance width="673.6"/>
	<outline>
		<contour>
			<point x="593.8" y="40.4" type="line"/>
			<point x="439.8" y="94.4" type="line"/>
			<point x="439.8" y="1245.6" type="line"/>
			<point x="593.8" y="1299.6" type="line"/>
			<point x="593.8" y="1340" type="line"/>
			<point x="79.8" y="1340" type="line"/>
			<point x="79.8" y="1299.6" type="line"/>
			<point x="233.8" y="1245.6" type="line"/>
			<point x="233.8" y="94.4" type="line"/>
			<point x="79.8" y="40.4" type="line"/>
			<point x="79.8" y="0" type="line"/>
			<point x="593.8" y="0" type="line"/>
		</contour>
	</outline>
	<anchor name="UCtop" x="336.8" y="1340"/>
	<anchor name="right" x="518.8" y="0"/>
	<anchor name="bottom" x="336.8" y="0"/>
</glyph>
<glyph name="J" format="2">
	<unicode hex="004A"/>
	<advance width="866.8"/>
	<outline>
		<contour>
			<point x="664.2" y="438.4" type="curve" smooth="yes"/>
			<point x="661.8" y="1245.6" type="line"/>
			<point x="815" y="1299.6" type="line"/>
			<point x="815" y="1340" type="line"/>
			<point x="298.8" y="1340" type="line"/>
			<point x="298.8" y="1299.6" type="line"/>
			<point x="455.8" y="1245.6" type="line"/>
			<point x="455.8" y="339" type="line" smooth="yes"/>
			<point x="455.8" y="153.6"/>
			<point x="388" y="85.2"/>
			<point x="298.4" y="85.2" type="curve" smooth="yes"/>
			<point x="217.2" y="85.2"/>
			<point x="145.4" y="183.8"/>
			<point x="96.6" y="183.8" type="curve" smooth="yes"/>
			<point x="37.8" y="183.8"/>
			<point x="8.6" y="142.6"/>
			<point x="8.6" y="95.8" type="curve" smooth="yes"/>
			<point x="8.6" y="23.6"/>
			<point x="78.8" y="-21.8"/>
			<point x="186.2" y="-21.8" type="curve" smooth="yes"/>
			<point x="448" y="-21.8"/>
			<point x="664.2" y="152.8"/>
		</contour>
	</outline>
	<anchor name="UCtop" x="558.8" y="1340"/>
	<anchor name="bottom" x="415.8" y="0"/>
</glyph>
<glyph name="K" format="2">
	<unicode hex="004B"/>
	<advance width="1454.2"/>
	<outline>
		<contour>
			<point x="1325" y="98.2" type="line"/>
			<point x="707" y="780" type="line"/>
			<point x="660" y="698" type="line"/>
			<point x="1214.4" y="1248" type="line"/>
			<point x="1364.2" y="1299.6" type="line"/>
			<point x="1364.2" y="1340" type="line"/>
			<point x="922.4" y="1340" type="line"/>
			<point x="922.4" y="1299.6" type="line"/>
			<point x="1076.6" y="1251" type="line"/>
			<point x="587.8" y="743" type="line"/>
			<point x="367.4" y="743" type="line"/>
			<point x="367.4" y="643" type="line"/>
			<point x="569.2" y="643" type="line"/>
			<point x="1060.6" y="93.4" type="line"/>
			<point x="914.6" y="40.4" type="line"/>
			<point x="914.6" y="0" type="line"/>
			<point x="1475.2" y="0" type="line"/>
			<point x="1475.2" y="40.4" type="line"/>
		</contour>
		<contour>
			<point x="439.8" y="1245.6" type="line"/>
			<point x="593.8" y="1299.6" type="line"/>
			<point x="593.8" y="1340" type="line"/>
			<point x="79.8" y="1340" type="line"/>
			<point x="79.8" y="1299.6" type="line"/>
			<point x="233.8" y="1245.6" type="line"/>
			<point x="233.8" y="94.4" type="line"/>
			<point x="79.8" y="40.4" type="line"/>
			<point x="79.8" y="0" type="line"/>
			<point x="591.4" y="0" type="line"/>
			<point x="591.4" y="40.4" type="line"/>
			<point x="439.8" y="94.4" type="line"/>
		</contour>
	</outline>
	<anchor name="bottom" x="745" y="0"/>
	<anchor name="UCtop" x="747" y="1340"/>
</glyph>
<glyph name="L" format="2">
	<unicode hex="004C"/>
	<advance width="1198.4"/>
	<outline>
		<contour>
			<point x="1080.6" y="-65.6" type="line"/>
			<point x="1166.8" y="408.6" type="line"/>
			<point x="1120.4" y="419.8" type="line"/>
			<point x="905" y="69.6" type="line"/>
			<point x="1030.8" y="102.8" type="line"/>
			<point x="321.4" y="102.8" type="line"/>
			<point x="321.4" y="0" type="line"/>
			<point x="926.8" y="0" type="line"/>
			<point x="1053.4" y="-65.6" type="line"/>
		</contour>
		<contour>
			<point x="439.8" y="1245.6" type="line"/>
			<point x="593.8" y="1299.6" type="line"/>
			<point x="593.8" y="1340" type="line"/>
			<point x="79.8" y="1340" type="line"/>
			<point x="79.8" y="1299.6" type="line"/>
			<point x="233.8" y="1245.6" type="line"/>
			<point x="233.8" y="94.4" type="line"/>
			<point x="79.8" y="40.4" type="line"/>
			<point x="79.8" y="0" type="line"/>
			<point x="439.8" y="0" type="line"/>
		</contour>
	</outline>
	<anchor name="UCtop" x="336.8" y="1340"/>
	<anchor name="bottom" x="614.6" y="0"/>
	<anchor name="mid" x="935.4" y="702"/>
	<anchor name="right" x="661.2" y="1339.2"/>
</glyph>
<glyph name="M" format="2">
	<unicode hex="004D"/>
	<advance width="1946.4"/>
	<outline>
		<contour>
			<point x="1747.6" y="95.4" type="line"/>
			<point x="1657.6" y="1245.6" type="line"/>
			<point x="1812.6" y="1299.6" type="line"/>
			<point x="1812.6" y="1340" type="line"/>
			<point x="1444.6" y="1340" type="line"/>
			<point x="966.4" y="234.6" type="line"/>
			<point x="989.8" y="234.6" type="line"/>
			<point x="511" y="1340" type="line"/>
			<point x="123.2" y="1340" type="line"/>
			<point x="123.2" y="1299.6" type="line"/>
			<point x="285.8" y="1239.2" type="line"/>
			<point x="202.6" y="95.8" type="line"/>
			<point x="44.6" y="40.4" type="line"/>
			<point x="44.6" y="0" type="line"/>
			<point x="465.6" y="0" type="line"/>
			<point x="465.6" y="40.4" type="line"/>
			<point x="308.6" y="95.8" type="line"/>
			<point x="373" y="1169" type="line"/>
			<point x="359.2" y="1166.2" type="line"/>
			<point x="878.6" y="-15.2" type="line"/>
			<point x="967" y="-15.2" type="line"/>
			<point x="1476.8" y="1174.6" type="line"/>
			<point x="1463.2" y="1177.4" type="line"/>
			<point x="1540.6" y="92.4" type="line"/>
			<point x="1383.6" y="40.4" type="line"/>
			<point x="1383.6" y="0" type="line"/>
			<point x="1902.8" y="0" type="line"/>
			<point x="1902.8" y="40.4" type="line"/>
		</contour>
	</outline>
	<anchor name="UCtop" x="963.8" y="1340"/>
	<anchor name="bottom" x="931.8" y="0"/>
</glyph>
<glyph name="N" format="2">
	<unicode hex="004E"/>
	<advance width="1504.4"/>
	<outline>
		<contour>
			<point x="236.2" y="94.4" type="line"/>
			<point x="82.2" y="40.4" type="line"/>
			<point x="82.2" y="0" type="line"/>
			<point x="506.8" y="0" type="line"/>
			<point x="506.8" y="40.4" type="line"/>
			<point x="339" y="94.4" type="line"/>
			<point x="339" y="1230" type="line"/>
			<point x="301" y="1194" type="line"/>
			<point x="1196.4" y="-15.2" type="line"/>
			<point x="1284.6" y="-15.2" type="line"/>
			<point x="1284.6" y="1245.6" type="line"/>
			<point x="1438.6" y="1299.6" type="line"/>
			<point x="1438.6" y="1340" type="line"/>
			<point x="1014" y="1340" type="line"/>
			<point x="1014" y="1299.6" type="line"/>
			<point x="1181.8" y="1245.6" type="line"/>
			<point x="1181.8" y="192.6" type="line"/>
			<point x="1239.4" y="271.2" type="line"/>
			<point x="444.2" y="1340" type="line"/>
			<point x="73.2" y="1340" type="line"/>
			<point x="73.2" y="1301" type="line"/>
			<point x="236.2" y="1228.6" type="line"/>
		</contour>
	</outline>
	<anchor name="UCtop" x="774.6" y="1340"/>
	<anchor name="bottom" x="782.6" y="0"/>
</glyph>
<glyph name="O" format="2">
	<unicode hex="004F"/>
	<advance width="1535.4"/>
	<outline>
		<contour>
			<point x="770.8" y="1362" type="curve" smooth="yes"/>
			<point x="372.6" y="1362"/>
			<point x="88" y="1075.8"/>
			<point x="88" y="668" type="curve" smooth="yes"/>
			<point x="88" y="259.8"/>
			<point x="367.4" y="-22"/>
			<point x="764.6" y="-22" type="curve" smooth="yes"/>
			<point x="1162.8" y="-22"/>
			<point x="1447.4" y="264.2"/>
			<point x="1447.4" y="672" type="curve" smooth="yes"/>
			<point x="1447.4" y="1080.2"/>
			<point x="1168" y="1362"/>
		</contour>
		<contour>
			<point x="776.6" y="82.4" type="curve" smooth="yes"/>
			<point x="503.2" y="82.4"/>
			<point x="308" y="305.6"/>
			<point x="308" y="708.6" type="curve" smooth="yes"/>
			<point x="308" y="1054"/>
			<point x="484.2" y="1257.6"/>
			<point x="758.8" y="1257.6" type="curve" smooth="yes"/>
			<point x="1032.2" y="1257.6"/>
			<point x="1227.4" y="1034.4"/>
			<point x="1227.4" y="631.4" type="curve" smooth="yes"/>
			<point x="1227.4" y="286"/>
			<point x="1051.2" y="82.4"/>
		</contour>
	</outline>
	<anchor name="UCtop" x="767.4" y="1340"/>
	<anchor name="bottom" x="767.4" y="0"/>
	<anchor name="horn" x="1061.8" y="1340"/>
	<anchor name="right" x="993.8" y="0"/>
</glyph>
<glyph name="Q" format="2">
	<unicode hex="0051"/>
	<advance width="1535.2"/>
	<outline>
		<contour>
			<point x="823.2" y="-240.4" type="line" smooth="yes"/>
			<point x="1003.2" y="-372.6"/>
			<point x="1059.6" y="-394.4"/>
			<point x="1219.4" y="-394.4" type="curve" smooth="yes"/>
			<point x="1346.6" y="-394.4"/>
			<point x="1435.8" y="-372.4"/>
			<point x="1508" y="-351.8" type="curve"/>
			<point x="1508" y="-307.2" type="line"/>
			<point x="1322.8" y="-318"/>
			<point x="1255" y="-290.2"/>
			<point x="1067.6" y="-180.4" type="curve" smooth="yes"/>
			<point x="684.2" y="44.2" type="line"/>
			<point x="734.2" y="-0.6" type="line"/>
			<point x="1155.4" y="-38"/>
			<point x="1447.4" y="266.8"/>
			<point x="1447.4" y="672" type="curve" smooth="yes"/>
			<point x="1447.4" y="1080.2"/>
			<point x="1168" y="1362"/>
			<point x="770.8" y="1362" type="curve" smooth="yes"/>
			<point x="372.6" y="1362"/>
			<point x="88" y="1075.8"/>
			<point x="88" y="668" type="curve" smooth="yes"/>
			<point x="88" y="414.2"/>
			<point x="173.8" y="232.4"/>
			<point x="402.6" y="66.4" type="curve" smooth="yes"/>
		</contour>
		<contour>
			<point x="776.6" y="82.4" type="curve" smooth="yes"/>
			<point x="503.2" y="82.4"/>
			<point x="308" y="305.6"/>
			<point x="308" y="708.6" type="curve" smooth="yes"/>
			<point x="308" y="1054"/>
			<point x="484.2" y="1257.6"/>
			<point x="758.8" y="1257.6" type="curve" smooth="yes"/>
			<point x="1032.2" y="1257.6"/>
			<point x="1227.4" y="1034.4"/>
			<point x="1227.4" y="631.4" type="curve" smooth="yes"/>
			<point x="1227.4" y="286"/>
			<point x="1051.2" y="82.4"/>
		</contour>
	</outline>
	<anchor name="UCtop" x="790.6" y="1340"/>
	<anchor name="bottom" x="766.6" y="-237.6"/>
</glyph>
<glyph name="R" format="2">
  <advance width="1289"/>
  <unicode hex="0052"/>
  <anchor x="636.4" y="1340.0" name="UCtop"/>
  <anchor x="724.4" y="0.0" name="bottom"/>
  <outline>
    <contour>
      <point x="640.8" y="727.8" type="curve" smooth="yes"/>
      <point x="262.8" y="727.8" type="line"/>
      <point x="282.4" y="625.0" type="line"/>
      <point x="638.4" y="625.0" type="line" smooth="yes"/>
      <point x="752.0" y="625.0"/>
      <point x="781.4" y="581.0"/>
      <point x="833.0" y="426.6" type="curve" smooth="yes"/>
      <point x="918.4" y="170.4" type="line" smooth="yes"/>
      <point x="972.8" y="4.0"/>
      <point x="1015.6" y="-22.0"/>
      <point x="1293.0" y="-1.0" type="curve"/>
      <point x="1293.0" y="62.6" type="line"/>
      <point x="1208.6" y="61.6"/>
      <point x="1174.0" y="69.8"/>
      <point x="1127.2" y="203.2" type="curve" smooth="yes"/>
      <point x="1035.6" y="462.8" type="line" smooth="yes"/>
      <point x="982.2" y="613.2"/>
      <point x="931.4" y="667.0"/>
      <point x="782.0" y="675.8" type="curve"/>
      <point x="782.0" y="669.6" type="line"/>
      <point x="1008.6" y="700.6"/>
      <point x="1129.4" y="827.2"/>
      <point x="1129.4" y="1003.2" type="curve" smooth="yes"/>
      <point x="1129.4" y="1188.2"/>
      <point x="997.6" y="1340.0"/>
      <point x="665.6" y="1340.0" type="curve" smooth="yes"/>
      <point x="285.4" y="1340.0" type="line"/>
      <point x="266.2" y="1237.2" type="line"/>
      <point x="552.4" y="1237.2" type="line" smooth="yes"/>
      <point x="820.8" y="1237.2"/>
      <point x="917.2" y="1142.4"/>
      <point x="917.2" y="982.6" type="curve" smooth="yes"/>
      <point x="917.2" y="815.8"/>
      <point x="800.0" y="727.8"/>
    </contour>
    <contour>
      <point x="439.8" y="1340.0" type="line"/>
      <point x="79.8" y="1340.0" type="line"/>
      <point x="79.8" y="1299.6" type="line"/>
      <point x="233.8" y="1245.6" type="line"/>
      <point x="233.8" y="94.4" type="line"/>
      <point x="79.8" y="40.4" type="line"/>
      <point x="79.8" y="0.0" type="line"/>
      <point x="593.8" y="0.0" type="line"/>
      <point x="593.8" y="40.4" type="line"/>
      <point x="439.8" y="94.4" type="line"/>
    </contour>
  </outline>
</glyph>
<glyph name="S" format="2">
	<unicode hex="0053"/>
	<advance width="1094.2"/>
	<outline>
		<contour>
			<point x="897.2" y="1280" type="line"/>
			<point x="789.8" y="1337"/>
			<point x="691" y="1362"/>
			<point x="569.2" y="1362" type="curve" smooth="yes"/>
			<point x="293.6" y="1362"/>
			<point x="120.2" y="1218.4"/>
			<point x="120.2" y="993.2" type="curve" smooth="yes"/>
			<point x="120.2" y="774.6"/>
			<point x="264.2" y="693.8"/>
			<point x="438.8" y="628" type="curve" smooth="yes"/>
			<point x="613.4" y="562.2"/>
			<point x="822" y="518.4"/>
			<point x="822" y="321.4" type="curve" smooth="yes"/>
			<point x="822" y="156.6"/>
			<point x="700" y="76"/>
			<point x="482.2" y="76" type="curve" smooth="yes"/>
			<point x="388" y="76"/>
			<point x="314" y="100"/>
			<point x="209.6" y="155.8" type="curve"/>
			<point x="395" y="39" type="line"/>
			<point x="139.6" y="396.6" type="line"/>
			<point x="80" y="396.6" type="line"/>
			<point x="167" y="38" type="line"/>
			<point x="280" y="-6.4"/>
			<point x="375" y="-22"/>
			<point x="507.8" y="-22" type="curve" smooth="yes"/>
			<point x="796.4" y="-22"/>
			<point x="1004.2" y="122.4"/>
			<point x="1004.2" y="390" type="curve" smooth="yes"/>
			<point x="1004.2" y="640"/>
			<point x="807.2" y="717.8"/>
			<point x="629.2" y="780.4" type="curve" smooth="yes"/>
			<point x="451.2" y="843"/>
			<point x="287" y="893.2"/>
			<point x="287" y="1061.6" type="curve" smooth="yes"/>
			<point x="287" y="1186.8"/>
			<point x="377.8" y="1269.6"/>
			<point x="547.6" y="1269.6" type="curve" smooth="yes"/>
			<point x="630.6" y="1269.6"/>
			<point x="701.4" y="1248.2"/>
			<point x="771.2" y="1199" type="curve"/>
			<point x="725.6" y="1255" type="line"/>
			<point x="911.6" y="942.4" type="line"/>
			<point x="961.4" y="952.4" type="line"/>
			<point x="894.2" y="1402" type="line"/>
			<point x="871.4" y="1402" type="line"/>
			<point x="747.8" y="1315.2" type="line"/>
		</contour>
	</outline>
	<anchor name="UCtop" x="536.2" y="1340"/>
	<anchor name="bottom" x="550.2" y="0"/>
</glyph>
<glyph name="T" format="2">
	<unicode hex="0054"/>
	<advance width="1324"/>
	<outline>
		<contour>
			<point x="557.4" y="1277.6" type="line"/>
			<point x="557.4" y="94.4" type="line"/>
			<point x="403.4" y="40.4" type="line"/>
			<point x="403.4" y="0" type="line"/>
			<point x="917.4" y="0" type="line"/>
			<point x="917.4" y="40.4" type="line"/>
			<point x="763.4" y="94.4" type="line"/>
			<point x="763.4" y="1277.6" type="line"/>
		</contour>
		<contour>
			<point x="1177.4" y="1237.2" type="line"/>
			<point x="1086" y="1260.8" type="line"/>
			<point x="1233.2" y="966" type="line"/>
			<point x="1284.4" y="976.2" type="line"/>
			<point x="1243.6" y="1409.4" type="line"/>
			<point x="1220" y="1409.4" type="line"/>
			<point x="1069.8" y="1321.6" type="line"/>
			<point x="1154.4" y="1340" type="line"/>
			<point x="158.4" y="1340" type="line"/>
			<point x="254.2" y="1321.6" type="line"/>
			<point x="104" y="1409.4" type="line"/>
			<point x="80.4" y="1409.4" type="line"/>
			<point x="39.6" y="976.2" type="line"/>
			<point x="90.8" y="966" type="line"/>
			<point x="238" y="1260.8" type="line"/>
			<point x="135.4" y="1237.2" type="line"/>
		</contour>
	</outline>
	<anchor name="UCtop" x="662" y="1340"/>
	<anchor name="bottom" x="662" y="0"/>
</glyph>
<glyph name="V" format="2">
	<unicode hex="0056"/>
	<advance width="1365"/>
	<outline>
		<contour>
			<point x="125.8" y="1243.4" type="line"/>
			<point x="653.4" y="-16" type="line"/>
			<point x="746.4" y="-16" type="line"/>
			<point x="1226.2" y="1245.4" type="line"/>
			<point x="1377.2" y="1299.6" type="line"/>
			<point x="1377.2" y="1340" type="line"/>
			<point x="955.2" y="1340" type="line"/>
			<point x="955.2" y="1299.6" type="line"/>
			<point x="1116.8" y="1245.4" type="line"/>
			<point x="725.6" y="172.8" type="line"/>
			<point x="786.4" y="172.8" type="line"/>
			<point x="346.4" y="1245.4" type="line"/>
			<point x="518" y="1299.6" type="line"/>
			<point x="518" y="1340" type="line"/>
			<point x="-22.2" y="1340" type="line"/>
			<point x="-22.2" y="1299.6" type="line"/>
		</contour>
	</outline>
	<anchor name="UCtop" x="718.8" y="1340"/>
	<anchor name="bottom" x="704.8" y="0"/>
</glyph>
<glyph name="W" format="2">
	<unicode hex="0057"/>
	<advance width="1925.2"/>
	<outline>
		<contour>
			<point x="1001.2" y="1149.6" type="line"/>
			<point x="933" y="1122.4" type="line"/>
			<point x="1384" y="-16" type="line"/>
			<point x="1477" y="-16" type="line"/>
			<point x="1786.8" y="1245.4" type="line"/>
			<point x="1931.4" y="1299.6" type="line"/>
			<point x="1931.4" y="1340" type="line"/>
			<point x="1511.8" y="1340" type="line"/>
			<point x="1511.8" y="1299.6" type="line"/>
			<point x="1679.8" y="1245.4" type="line"/>
			<point x="1436.2" y="175.2" type="line"/>
			<point x="1517.6" y="204.8" type="line"/>
			<point x="1067" y="1356" type="line"/>
			<point x="971.6" y="1356" type="line"/>
			<point x="558.6" y="236.8" type="line"/>
			<point x="607" y="236.8" type="line"/>
			<point x="350.2" y="1245.4" type="line"/>
			<point x="520.8" y="1299.6" type="line"/>
			<point x="520.8" y="1340" type="line"/>
			<point x="-12.4" y="1340" type="line"/>
			<point x="-12.4" y="1299.6" type="line"/>
			<point x="135.6" y="1243.4" type="line"/>
			<point x="464" y="-16" type="line"/>
			<point x="557" y="-16" type="line"/>
		</contour>
	</outline>
	<anchor name="UCtop" x="1010.2" y="1340"/>
	<anchor name="bottom" x="1000.2" y="0"/>
</glyph>
<glyph name="X" format="2">
	<unicode hex="0058"/>
	<advance width="1421"/>
	<outline>
		<contour>
			<point x="703.4" y="642" type="line"/>
			<point x="755.6" y="684" type="line"/>
			<point x="1199.2" y="1245.4" type="line"/>
			<point x="1351.2" y="1299.6" type="line"/>
			<point x="1351.2" y="1340" type="line"/>
			<point x="922.4" y="1340" type="line"/>
			<point x="922.4" y="1299.6" type="line"/>
			<point x="1081.4" y="1245.4" type="line"/>
			<point x="704" y="749" type="line"/>
			<point x="650.8" y="705.2" type="line"/>
			<point x="158.4" y="94.6" type="line"/>
			<point x="6.4" y="40.4" type="line"/>
			<point x="6.4" y="0" type="line"/>
			<point x="435" y="0" type="line"/>
			<point x="435" y="40.4" type="line"/>
			<point x="276.2" y="94.6" type="line"/>
		</contour>
		<contour>
			<point x="1040.4" y="94.6" type="line"/>
			<point x="869.8" y="40.4" type="line"/>
			<point x="869.8" y="0" type="line"/>
			<point x="1432.8" y="0" type="line"/>
			<point x="1432.8" y="40.4" type="line"/>
			<point x="1284.8" y="96.6" type="line"/>
			<point x="791.2" y="757.6" type="line"/>
			<point x="761.4" y="787.8" type="line"/>
			<point x="427.4" y="1245.4" type="line"/>
			<point x="598" y="1299.6" type="line"/>
			<point x="598" y="1340" type="line"/>
			<point x="35.2" y="1340" type="line"/>
			<point x="35.2" y="1299.6" type="line"/>
			<point x="183.2" y="1243.4" type="line"/>
			<point x="629.2" y="639.8" type="line"/>
			<point x="657.2" y="611.8" type="line"/>
		</contour>
	</outline>
	<anchor name="UCtop" x="723.6" y="1340"/>
	<anchor name="bottom" x="717.6" y="0"/>
</glyph>
<glyph name="Y" format="2">
	<unicode hex="0059"/>
	<advance width="1361.6"/>
	<outline>
		<contour>
			<point x="131.4" y="1243.4" type="line"/>
			<point x="601" y="583.8" type="line"/>
			<point x="601" y="94.4" type="line"/>
			<point x="447" y="40.4" type="line"/>
			<point x="447" y="0" type="line"/>
			<point x="961" y="0" type="line"/>
			<point x="961" y="40.4" type="line"/>
			<point x="807" y="94.4" type="line"/>
			<point x="807" y="589.6" type="line"/>
			<point x="1205" y="1245.4" type="line"/>
			<point x="1354" y="1299.6" type="line"/>
			<point x="1354" y="1340" type="line"/>
			<point x="922.2" y="1340" type="line"/>
			<point x="922.2" y="1299.6" type="line"/>
			<point x="1082.8" y="1245.4" type="line"/>
			<point x="739.6" y="636.2" type="line"/>
			<point x="806.4" y="633.8" type="line"/>
			<point x="381.4" y="1245.4" type="line"/>
			<point x="546.4" y="1299.6" type="line"/>
			<point x="546.4" y="1340" type="line"/>
			<point x="-14.6" y="1340" type="line"/>
			<point x="-14.6" y="1299.6" type="line"/>
		</contour>
	</outline>
	<anchor name="UCtop" x="713.8" y="1340"/>
	<anchor name="bottom" x="701.6" y="0"/>
</glyph>
<glyph name="Z" format="2">
  <advance width="1255.8"/>
  <unicode hex="005A"/>
  <anchor x="660.4" y="1340.0" name="UCtop"/>
  <anchor x="643.2" y="0.0" name="bottom"/>
  <outline>
    <contour>
      <point x="1157.2" y="1340.0" type="line"/>
      <point x="293.0" y="1340.0" type="line"/>
      <point x="166.6" y="1402.0" type="line"/>
      <point x="142.4" y="1402.0" type="line"/>
      <point x="64.0" y="959.2" type="line"/>
      <point x="109.2" y="947.2" type="line"/>
      <point x="295.0" y="1237.2" type="line"/>
      <point x="965.2" y="1237.2" type="line"/>
      <point x="907.4" y="1271.0" type="line"/>
      <point x="95.2" y="28.8" type="line"/>
      <point x="95.2" y="0.0" type="line"/>
      <point x="1002.6" y="0.0" type="line"/>
      <point x="1122.6" y="-53.6" type="line"/>
      <point x="1142.6" y="-53.6" type="line"/>
      <point x="1206.4" y="356.8" type="line"/>
      <point x="1159.8" y="366.0" type="line"/>
      <point x="1006.8" y="102.8" type="line"/>
      <point x="289.2" y="102.8" type="line"/>
      <point x="339.0" y="69.0" type="line"/>
      <point x="1157.2" y="1311.2" type="line"/>
    </contour>
  </outline>
</glyph>
<glyph name="bracketleft" format="2">
	<unicode hex="005B"/>
	<advance width="627.4"/>
	<outline>
		<contour>
			<point x="180.4" y="-256.4" type="line"/>
			<point x="598.8" y="-256.4" type="line"/>
			<point x="598.8" y="-180.4" type="line"/>
			<point x="334.8" y="-180.4" type="line"/>
			<point x="334.8" y="1323" type="line"/>
			<point x="598.8" y="1323" type="line"/>
			<point x="598.8" y="1399" type="line"/>
			<point x="180.4" y="1399" type="line"/>
		</contour>
	</outline>
</glyph>
<glyph name="backslash" format="2">
  <advance width="783"/>
  <unicode hex="005C"/>
  <outline>
    <contour>
      <point x="731.0" y="0.0" type="line"/>
      <point x="170.0" y="1340.0" type="line"/>
      <point x="53.0" y="1340.0" type="line"/>
      <point x="613.8" y="0.0" type="line"/>
    </contour>
  </outline>
</glyph>
<glyph name="bracketright" format="2">
	<unicode hex="005D"/>
	<advance width="629"/>
	<outline>
		<contour>
			<point x="448.6" y="1399.8" type="line"/>
			<point x="30.2" y="1399.8" type="line"/>
			<point x="30.2" y="1323.8" type="line"/>
			<point x="294.2" y="1323.8" type="line"/>
			<point x="294.2" y="-179.6" type="line"/>
			<point x="30.2" y="-179.6" type="line"/>
			<point x="30.2" y="-255.6" type="line"/>
			<point x="448.6" y="-255.6" type="line"/>
		</contour>
	</outline>
</glyph>
<glyph name="asciicircum" format="2">
  <advance width="1000.0"/>
  <unicode hex="005E"/>
  <guideline x="503.0" y="1246.0" angle="67.29316685461875" identifier="xLWgQyvl5X"/>
  <outline>
    <contour>
      <point x="486.0" y="1246.0" type="line"/>
      <point x="762.0" y="592.0" type="line"/>
      <point x="865.0" y="592.0" type="line"/>
      <point x="545.0" y="1340.0" type="line"/>
      <point x="453.0" y="1340.0" type="line"/>
      <point x="135.0" y="592.0" type="line"/>
      <point x="238.0" y="592.0" type="line"/>
      <point x="512.0" y="1246.0" type="line"/>
    </contour>
  </outline>
</glyph>
<glyph name="a" format="2">
	<unicode hex="0061"/>
	<advance width="891.4"/>
	<outline>
		<contour>
			<point x="595" y="542.8" type="line"/>
			<point x="173.6" y="438.2"/>
			<point x="75" y="345.8"/>
			<point x="75" y="198.8" type="curve" smooth="yes"/>
			<point x="75" y="54.4"/>
			<point x="172" y="-22"/>
			<point x="308.6" y="-22" type="curve" smooth="yes"/>
			<point x="422.8" y="-22"/>
			<point x="522.4" y="54.6"/>
			<point x="553" y="175" type="curve"/>
			<point x="545.8" y="167" type="line"/>
			<point x="546.8" y="52.4"/>
			<point x="602.2" y="-20.4"/>
			<point x="711.4" y="-20.4" type="curve" smooth="yes"/>
			<point x="768.6" y="-20.4"/>
			<point x="839" y="10.4"/>
			<point x="898.6" y="70.2" type="curve"/>
			<point x="898.6" y="121.6" type="line"/>
			<point x="866" y="101.6"/>
			<point x="831" y="90"/>
			<point x="801.6" y="90" type="curve" smooth="yes"/>
			<point x="752.8" y="90"/>
			<point x="727.8" y="118.8"/>
			<point x="727.8" y="177.4" type="curve" smooth="yes"/>
			<point x="727.8" y="626.2" type="line" smooth="yes"/>
			<point x="727.8" y="779.2"/>
			<point x="659" y="870.8"/>
			<point x="468.2" y="870.8" type="curve" smooth="yes"/>
			<point x="282.2" y="870.8"/>
			<point x="88.4" y="752.6"/>
			<point x="88.4" y="661.2" type="curve" smooth="yes"/>
			<point x="88.4" y="628"/>
			<point x="115.8" y="606.6"/>
			<point x="162.8" y="606.6" type="curve" smooth="yes"/>
			<point x="198.2" y="606.6"/>
			<point x="234.4" y="618.8"/>
			<point x="256.4" y="642.2" type="curve" smooth="yes"/>
			<point x="278.6" y="665.4"/>
			<point x="290" y="721.8"/>
			<point x="299.4" y="795.8" type="curve"/>
			<point x="253.6" y="743" type="line"/>
			<point x="298" y="764.8"/>
			<point x="350.6" y="776.4"/>
			<point x="390" y="776.4" type="curve" smooth="yes"/>
			<point x="497" y="776.4"/>
			<point x="541.4" y="718.2"/>
			<point x="541.4" y="628.2" type="curve" smooth="yes"/>
			<point x="541.4" y="262" type="line" smooth="yes"/>
			<point x="541.4" y="178"/>
			<point x="472" y="105"/>
			<point x="387.6" y="105" type="curve" smooth="yes"/>
			<point x="316" y="105"/>
			<point x="260.6" y="150.2"/>
			<point x="260.6" y="239.4" type="curve" smooth="yes"/>
			<point x="260.6" y="335.6"/>
			<point x="322.8" y="400.6"/>
			<point x="607.8" y="467.2" type="curve"/>
		</contour>
	</outline>
	<anchor name="top" x="418" y="856"/>
	<anchor name="right" x="898.6" y="0"/>
	<anchor name="bottom" x="467.2" y="0"/>
</glyph>
<glyph name="b" format="2">
  <advance width="1065.4"/>
  <unicode hex="0062"/>
  <anchor x="502.6" y="1444.0" name="UCtop"/>
  <anchor x="504.6" y="0.0" name="bottom"/>
  <outline>
    <contour>
      <point x="209.4" y="55.0" type="line"/>
      <point x="325.8" y="0.0"/>
      <point x="412.6" y="-22.0"/>
      <point x="506.8" y="-22.0" type="curve" smooth="yes"/>
      <point x="775.6" y="-22.0"/>
      <point x="994.6" y="166.2"/>
      <point x="994.6" y="472.0" type="curve" smooth="yes"/>
      <point x="994.6" y="711.4"/>
      <point x="861.8" y="878.0"/>
      <point x="612.2" y="878.0" type="curve" smooth="yes"/>
      <point x="509.0" y="878.0"/>
      <point x="390.0" y="831.8"/>
      <point x="248.4" y="746.4" type="curve"/>
      <point x="264.2" y="674.6" type="line"/>
      <point x="335.6" y="729.6"/>
      <point x="425.8" y="755.6"/>
      <point x="529.4" y="755.6" type="curve" smooth="yes"/>
      <point x="683.8" y="755.6"/>
      <point x="788.4" y="638.6"/>
      <point x="788.4" y="422.2" type="curve" smooth="yes"/>
      <point x="788.4" y="195.2"/>
      <point x="697.0" y="66.8"/>
      <point x="542.8" y="66.8" type="curve" smooth="yes"/>
      <point x="407.0" y="66.8"/>
      <point x="325.4" y="149.4"/>
      <point x="325.4" y="257.4" type="curve" smooth="yes"/>
      <point x="325.4" y="1244.4" type="line"/>
      <point x="337.6" y="1421.0" type="line"/>
      <point x="313.8" y="1421.0" type="line"/>
      <point x="-14.2" y="1328.0" type="line"/>
      <point x="-14.2" y="1300.6" type="line"/>
      <point x="63.8" y="1266.8"/>
      <point x="111.2" y="1235.0"/>
      <point x="139.0" y="1201.0" type="curve"/>
      <point x="139.0" y="204.6" type="line"/>
      <point x="114.4" y="-4.4" type="line"/>
      <point x="148.0" y="-18.8" type="line"/>
      <point x="313.4" y="55.0" type="line"/>
    </contour>
  </outline>
</glyph>
<glyph name="c" format="2">
	<unicode hex="0063"/>
	<advance width="850.8"/>
	<outline>
		<contour>
			<point x="561" y="878" type="curve" smooth="yes"/>
			<point x="245.6" y="878"/>
			<point x="69.4" y="661.8"/>
			<point x="69.4" y="403.8" type="curve" smooth="yes"/>
			<point x="69.4" y="161.4"/>
			<point x="228.6" y="-22"/>
			<point x="463.8" y="-22" type="curve" smooth="yes"/>
			<point x="594.8" y="-22"/>
			<point x="702" y="38.8"/>
			<point x="807.2" y="171.8" type="curve"/>
			<point x="779.4" y="205.2" type="line"/>
			<point x="711.4" y="148.4"/>
			<point x="642.8" y="120.4"/>
			<point x="567" y="120.4" type="curve" smooth="yes"/>
			<point x="374" y="120.4"/>
			<point x="251.6" y="260"/>
			<point x="251.6" y="498.8" type="curve" smooth="yes"/>
			<point x="251.6" y="695.8"/>
			<point x="355.6" y="785.8"/>
			<point x="458.2" y="785.8" type="curve" smooth="yes"/>
			<point x="552" y="785.8"/>
			<point x="591" y="653"/>
			<point x="694.2" y="653" type="curve" smooth="yes"/>
			<point x="752.8" y="653"/>
			<point x="796.4" y="692.4"/>
			<point x="796.4" y="753.8" type="curve" smooth="yes"/>
			<point x="796.4" y="812"/>
			<point x="733.8" y="878"/>
		</contour>
	</outline>
	<anchor name="top" x="477" y="856"/>
	<anchor name="right" x="807.2" y="0"/>
	<anchor name="bottom" x="465.2" y="0"/>
</glyph>
<glyph name="d" format="2">
	<unicode hex="0064"/>
	<advance width="1082"/>
	<outline>
		<contour>
			<point x="740" y="598.6" type="curve" smooth="yes"/>
			<point x="740" y="136" type="line"/>
			<point x="758.4" y="-18.8" type="line"/>
			<point x="782.2" y="-18.8" type="line"/>
			<point x="1054.2" y="49.6" type="line"/>
			<point x="1054.2" y="82.2" type="line"/>
			<point x="1009" y="91.8"/>
			<point x="952.6" y="120.2"/>
			<point x="926.4" y="148.6" type="curve"/>
			<point x="926.4" y="1242.8" type="line"/>
			<point x="937.8" y="1421" type="line"/>
			<point x="914.8" y="1421" type="line"/>
			<point x="607.6" y="1333.6" type="line"/>
			<point x="607.6" y="1307.8" type="line"/>
			<point x="668.8" y="1280.4"/>
			<point x="713.8" y="1255.8"/>
			<point x="740" y="1223.4" type="curve"/>
			<point x="740" y="755.4" type="line"/>
			<point x="850.4" y="801" type="line"/>
			<point x="734.8" y="856"/>
			<point x="648.6" y="878"/>
			<point x="549.8" y="878" type="curve" smooth="yes"/>
			<point x="298.8" y="878"/>
			<point x="70.8" y="696.8"/>
			<point x="70.8" y="384" type="curve" smooth="yes"/>
			<point x="70.8" y="144.6"/>
			<point x="203.6" y="-22"/>
			<point x="453.2" y="-22" type="curve" smooth="yes"/>
			<point x="545.6" y="-22"/>
			<point x="612.2" y="1.6"/>
			<point x="792.6" y="112.2" type="curve"/>
			<point x="792.6" y="189" type="line"/>
			<point x="711.6" y="128"/>
			<point x="625.8" y="100.4"/>
			<point x="536" y="100.4" type="curve" smooth="yes"/>
			<point x="381.6" y="100.4"/>
			<point x="277" y="217.4"/>
			<point x="277" y="437.6" type="curve" smooth="yes"/>
			<point x="277" y="660.8"/>
			<point x="368.4" y="789.2"/>
			<point x="530.6" y="789.2" type="curve" smooth="yes"/>
			<point x="668" y="789.2"/>
			<point x="740" y="708.2"/>
		</contour>
	</outline>
	<anchor name="right" x="926.4" y="1399"/>
	<anchor name="UCtop" x="546.8" y="1444"/>
	<anchor name="bottom" x="558.4" y="0"/>
	<anchor name="center" x="795" y="1073.2"/>
</glyph>
<glyph name="e" format="2">
  <advance width="896"/>
  <unicode hex="0065"/>
  <anchor x="469.4" y="856.0" name="top"/>
  <anchor x="834.8" y="0.0" name="right"/>
  <anchor x="482.4" y="0.0" name="bottom"/>
  <outline>
    <contour>
      <point x="482.0" y="878.0" type="curve" smooth="yes"/>
      <point x="221.8" y="878.0"/>
      <point x="69.6" y="668.2"/>
      <point x="69.6" y="415.4" type="curve" smooth="yes"/>
      <point x="69.6" y="164.6"/>
      <point x="239.6" y="-22.0"/>
      <point x="481.2" y="-22.0" type="curve" smooth="yes"/>
      <point x="622.2" y="-22.0"/>
      <point x="731.8" y="46.0"/>
      <point x="834.8" y="171.4" type="curve"/>
      <point x="806.8" y="205.2" type="line"/>
      <point x="736.0" y="148.4"/>
      <point x="664.8" y="120.4"/>
      <point x="587.4" y="120.4" type="curve" smooth="yes"/>
      <point x="386.6" y="120.4"/>
      <point x="252.6" y="253.4"/>
      <point x="252.6" y="472.2" type="curve" smooth="yes"/>
      <point x="252.6" y="689.6"/>
      <point x="338.8" y="793.8"/>
      <point x="464.4" y="793.8" type="curve" smooth="yes"/>
      <point x="573.2" y="793.8"/>
      <point x="624.0" y="698.6"/>
      <point x="636.0" y="548.6" type="curve"/>
      <point x="723.6" y="594.4" type="line"/>
      <point x="213.8" y="569.2" type="line"/>
      <point x="212.2" y="496.8" type="line"/>
      <point x="830.0" y="496.8" type="line"/>
      <point x="808.6" y="739.0"/>
      <point x="687.2" y="878.0"/>
    </contour>
  </outline>
</glyph>
<glyph name="g" format="2">
  <advance width="971.2"/>
  <unicode hex="0067"/>
  <anchor x="442.8" y="856.0" name="top"/>
  <anchor x="452.8" y="-530.0" name="bottom"/>
  <outline>
    <contour>
      <point x="433.6" y="-530.0" type="curve" smooth="yes"/>
      <point x="740.8" y="-530.0"/>
      <point x="925.2" y="-374.6"/>
      <point x="925.0" y="-195.8" type="curve" smooth="yes"/>
      <point x="924.8" y="-26.2"/>
      <point x="780.4" y="39.2"/>
      <point x="533.0" y="55.6" type="curve" smooth="yes"/>
      <point x="295.2" y="71.4"/>
      <point x="262.8" y="106.6"/>
      <point x="262.8" y="168.0" type="curve" smooth="yes"/>
      <point x="262.8" y="220.8"/>
      <point x="299.0" y="254.6"/>
      <point x="373.4" y="263.8" type="curve"/>
      <point x="344.2" y="287.6" type="line"/>
      <point x="193.0" y="259.8"/>
      <point x="102.6" y="192.4"/>
      <point x="101.6" y="95.0" type="curve" smooth="yes"/>
      <point x="100.6" y="-6.0"/>
      <point x="159.0" y="-94.0"/>
      <point x="420.8" y="-111.8" type="curve" smooth="yes"/>
      <point x="682.6" y="-129.6"/>
      <point x="766.6" y="-166.0"/>
      <point x="766.6" y="-262.4" type="curve" smooth="yes"/>
      <point x="766.6" y="-365.0"/>
      <point x="645.2" y="-452.0"/>
      <point x="462.0" y="-452.0" type="curve" smooth="yes"/>
      <point x="273.4" y="-452.0"/>
      <point x="186.6" y="-387.4"/>
      <point x="186.6" y="-281.6" type="curve" smooth="yes"/>
      <point x="186.6" y="-189.8"/>
      <point x="244.0" y="-118.8"/>
      <point x="456.8" y="-84.0" type="curve"/>
      <point x="456.6" y="-60.8" type="line"/>
      <point x="394.0" y="-60.8" type="line"/>
      <point x="117.8" y="-116.2"/>
      <point x="20.0" y="-195.8"/>
      <point x="20.0" y="-300.8" type="curve" smooth="yes"/>
      <point x="20.0" y="-444.8"/>
      <point x="166.4" y="-530.0"/>
    </contour>
    <contour>
      <point x="439.4" y="244.0" type="curve" smooth="yes"/>
      <point x="648.4" y="244.0"/>
      <point x="806.0" y="373.4"/>
      <point x="806.0" y="562.0" type="curve" smooth="yes"/>
      <point x="806.0" y="732.2"/>
      <point x="659.4" y="878.0"/>
      <point x="440.0" y="878.0" type="curve" smooth="yes"/>
      <point x="231.0" y="878.0"/>
      <point x="73.4" y="748.6"/>
      <point x="73.4" y="560.0" type="curve" smooth="yes"/>
      <point x="73.4" y="377.4"/>
      <point x="226.2" y="244.0"/>
    </contour>
    <contour>
      <point x="447.6" y="318.2" type="curve" smooth="yes"/>
      <point x="339.8" y="318.2"/>
      <point x="268.2" y="409.8"/>
      <point x="268.2" y="575.2" type="curve" smooth="yes"/>
      <point x="268.2" y="724.4"/>
      <point x="330.2" y="803.8"/>
      <point x="431.8" y="803.8" type="curve" smooth="yes"/>
      <point x="539.6" y="803.8"/>
      <point x="611.2" y="712.2"/>
      <point x="611.2" y="546.8" type="curve" smooth="yes"/>
      <point x="611.2" y="397.6"/>
      <point x="549.2" y="318.2"/>
    </contour>
    <contour>
      <point x="565.8" y="805.4" type="line"/>
      <point x="774.6" y="820.4"/>
      <point x="817.2" y="705.0"/>
      <point x="897.2" y="705.0" type="curve" smooth="yes"/>
      <point x="944.4" y="705.0"/>
      <point x="985.4" y="742.4"/>
      <point x="985.4" y="801.4" type="curve" smooth="yes"/>
      <point x="985.4" y="855.4"/>
      <point x="959.0" y="880.8"/>
      <point x="913.4" y="880.8" type="curve" smooth="yes"/>
      <point x="823.6" y="880.8"/>
      <point x="727.0" y="835.2"/>
      <point x="538.0" y="864.0" type="curve"/>
    </contour>
  </outline>
</glyph>
<glyph name="h" format="2">
	<unicode hex="0068"/>
	<advance width="1096.2"/>
	<outline>
		<contour>
			<point x="608.8" y="38" type="line"/>
			<point x="608.8" y="0" type="line"/>
			<point x="1080.2" y="0" type="line"/>
			<point x="1080.2" y="38" type="line"/>
			<point x="935.4" y="87.4" type="line"/>
			<point x="935.4" y="553" type="line" smooth="yes"/>
			<point x="935.4" y="777"/>
			<point x="856.4" y="878"/>
			<point x="690.8" y="878" type="curve" smooth="yes"/>
			<point x="553.2" y="878"/>
			<point x="450.8" y="829"/>
			<point x="301.2" y="667" type="curve"/>
			<point x="340.8" y="632" type="line"/>
			<point x="376.2" y="680.6"/>
			<point x="466.8" y="720.4"/>
			<point x="565" y="720.4" type="curve" smooth="yes"/>
			<point x="685.2" y="720.4"/>
			<point x="749" y="659.8"/>
			<point x="749" y="558.2" type="curve" smooth="yes"/>
			<point x="749" y="85.4" type="line"/>
		</contour>
		<contour>
			<point x="501.8" y="0" type="line"/>
			<point x="501.8" y="38" type="line"/>
			<point x="356.6" y="87.4" type="line"/>
			<point x="356.6" y="1244.4" type="line"/>
			<point x="369" y="1421" type="line"/>
			<point x="345.2" y="1421" type="line"/>
			<point x="17" y="1328" type="line"/>
			<point x="17" y="1300.6" type="line"/>
			<point x="95" y="1266.8"/>
			<point x="142.4" y="1235"/>
			<point x="170.2" y="1201" type="curve"/>
			<point x="170.2" y="87.4" type="line"/>
			<point x="27.4" y="38" type="line"/>
			<point x="27.4" y="0" type="line"/>
		</contour>
	</outline>
	<anchor name="UCtop" x="560.2" y="1387.2"/>
	<anchor name="bottom" x="554.6" y="0"/>
	<anchor name="center" x="301.6" y="1073.2"/>
</glyph>
<glyph name="i" format="2">
	<unicode hex="0069"/>
	<advance width="553.4"/>
	<outline>
		<contour>
			<point x="278.4" y="1155.4" type="curve" smooth="yes"/>
			<point x="357.8" y="1155.4"/>
			<point x="411.8" y="1213.2"/>
			<point x="411.8" y="1288.6" type="curve" smooth="yes"/>
			<point x="411.8" y="1363.4"/>
			<point x="357.8" y="1421"/>
			<point x="278.4" y="1421" type="curve" smooth="yes"/>
			<point x="199.4" y="1421"/>
			<point x="145.2" y="1363.4"/>
			<point x="145.2" y="1288.6" type="curve" smooth="yes"/>
			<point x="145.2" y="1213.2"/>
			<point x="199.4" y="1155.4"/>
		</contour>
		<contour>
			<point x="387.4" y="878" type="line"/>
			<point x="361.2" y="878" type="line"/>
			<point x="50.6" y="795.6" type="line"/>
			<point x="50.6" y="762.2" type="line"/>
			<point x="109.2" y="741.8"/>
			<point x="169.2" y="707.8"/>
			<point x="193.2" y="679.4" type="curve"/>
			<point x="193.2" y="87.4" type="line"/>
			<point x="50.4" y="38" type="line"/>
			<point x="50.4" y="0" type="line"/>
			<point x="524.8" y="0" type="line"/>
			<point x="524.8" y="38" type="line"/>
			<point x="379.6" y="87.4" type="line"/>
			<point x="379.6" y="701.8" type="line"/>
		</contour>
	</outline>
	<anchor name="top" x="273.8" y="1387.2"/>
	<anchor name="bottom" x="287.2" y="0"/>
	<anchor name="right" x="466.8" y="0"/>
</glyph>
<glyph name="j" format="2">
  <advance width="494.6"/>
  <unicode hex="006A"/>
  <anchor x="256.6" y="1387.2" name="top"/>
  <anchor x="254.6" y="-508.0" name="bottom"/>
  <outline>
    <contour>
      <point x="257.4" y="1155.4" type="curve" smooth="yes"/>
      <point x="336.8" y="1155.4"/>
      <point x="390.8" y="1213.2"/>
      <point x="390.8" y="1288.6" type="curve" smooth="yes"/>
      <point x="390.8" y="1363.4"/>
      <point x="336.8" y="1421.0"/>
      <point x="257.4" y="1421.0" type="curve" smooth="yes"/>
      <point x="178.4" y="1421.0"/>
      <point x="124.2" y="1363.4"/>
      <point x="124.2" y="1288.6" type="curve" smooth="yes"/>
      <point x="124.2" y="1213.2"/>
      <point x="178.4" y="1155.4"/>
    </contour>
    <contour>
      <point x="172.2" y="679.4" type="curve"/>
      <point x="172.2" y="-142.8" type="line" smooth="yes"/>
      <point x="172.2" y="-268.4"/>
      <point x="153.2" y="-317.8"/>
      <point x="1.0" y="-477.0" type="curve"/>
      <point x="47.8" y="-530.0" type="line"/>
      <point x="332.8" y="-313.4"/>
      <point x="358.6" y="-277.0"/>
      <point x="358.6" y="-75.2" type="curve" smooth="yes"/>
      <point x="358.6" y="701.8" type="line"/>
      <point x="366.4" y="878.0" type="line"/>
      <point x="340.2" y="878.0" type="line"/>
      <point x="29.6" y="795.6" type="line"/>
      <point x="29.6" y="762.2" type="line"/>
      <point x="88.2" y="741.8"/>
      <point x="148.2" y="707.8"/>
    </contour>
  </outline>
</glyph>
<glyph name="k" format="2">
  <advance width="1064.6"/>
  <unicode hex="006B"/>
  <anchor x="550.4" y="0.0" name="bottom"/>
  <anchor x="548.4" y="1387.2" name="UCtop"/>
  <outline>
    <contour>
      <point x="543.0" y="467.2" type="line"/>
      <point x="868.8" y="772.6" type="line"/>
      <point x="999.0" y="812.0" type="line"/>
      <point x="999.0" y="856.0" type="line"/>
      <point x="619.6" y="856.0" type="line"/>
      <point x="619.6" y="812.0" type="line"/>
      <point x="746.4" y="773.2" type="line"/>
      <point x="486.4" y="517.0" type="line"/>
      <point x="308.4" y="517.0" type="line"/>
      <point x="308.4" y="429.0" type="line"/>
      <point x="450.4" y="429.0" type="line"/>
      <point x="739.0" y="80.0" type="line"/>
      <point x="632.0" y="38.0" type="line"/>
      <point x="632.0" y="0.0" type="line"/>
      <point x="1079.6" y="0.0" type="line"/>
      <point x="1079.6" y="38.0" type="line"/>
      <point x="960.6" y="86.6" type="line"/>
      <point x="588.6" y="541.0" type="line"/>
    </contour>
    <contour>
      <point x="356.6" y="86.4" type="line"/>
      <point x="356.6" y="1244.4" type="line"/>
      <point x="369.0" y="1421.0" type="line"/>
      <point x="345.2" y="1421.0" type="line"/>
      <point x="17.0" y="1328.0" type="line"/>
      <point x="17.0" y="1300.6" type="line"/>
      <point x="95.0" y="1266.8"/>
      <point x="142.4" y="1235.0"/>
      <point x="170.2" y="1201.0" type="curve"/>
      <point x="170.2" y="87.4" type="line"/>
      <point x="27.4" y="38.0" type="line"/>
      <point x="27.4" y="0.0" type="line"/>
      <point x="497.8" y="0.0" type="line"/>
      <point x="497.8" y="38.0" type="line"/>
    </contour>
  </outline>
</glyph>
<glyph name="l" format="2">
	<unicode hex="006C"/>
	<advance width="532.4"/>
	<outline>
		<contour>
			<point x="359" y="87.4" type="line"/>
			<point x="359" y="1244.4" type="line"/>
			<point x="371.4" y="1421" type="line"/>
			<point x="347.6" y="1421" type="line"/>
			<point x="19.4" y="1328" type="line"/>
			<point x="19.4" y="1300.6" type="line"/>
			<point x="97.4" y="1266.8"/>
			<point x="144.8" y="1235"/>
			<point x="172.6" y="1201" type="curve"/>
			<point x="172.6" y="87.4" type="line"/>
			<point x="29.8" y="38" type="line"/>
			<point x="29.8" y="0" type="line"/>
			<point x="504.2" y="0" type="line"/>
			<point x="504.2" y="38" type="line"/>
		</contour>
	</outline>
	<anchor name="UCtop" x="253" y="1387.2"/>
	<anchor name="right" x="359" y="1399"/>
	<anchor name="bottom" x="265.8" y="0"/>
	<anchor name="mid" x="552.4" y="547.2"/>
</glyph>
<glyph name="m" format="2">
  <advance width="1622"/>
  <unicode hex="006D"/>
  <anchor x="826.2" y="856.0" name="top"/>
  <anchor x="826.2" y="0.0" name="bottom"/>
  <outline>
    <contour>
      <point x="378.2" y="689.0" type="line"/>
      <point x="341.4" y="878.0" type="line"/>
      <point x="316.8" y="878.0" type="line"/>
      <point x="49.0" y="771.6" type="line"/>
      <point x="49.0" y="743.0" type="line"/>
      <point x="131.4" y="714.8"/>
      <point x="167.0" y="694.0"/>
      <point x="191.8" y="665.8" type="curve"/>
      <point x="191.8" y="87.4" type="line"/>
      <point x="49.0" y="38.0" type="line"/>
      <point x="49.0" y="0.0" type="line"/>
      <point x="507.8" y="0.0" type="line"/>
      <point x="507.8" y="38.0" type="line"/>
      <point x="378.2" y="85.4" type="line"/>
    </contour>
    <contour>
      <point x="919.2" y="623.6" type="line" smooth="yes"/>
      <point x="919.2" y="760.2"/>
      <point x="852.8" y="878.0"/>
      <point x="688.6" y="878.0" type="curve" smooth="yes"/>
      <point x="559.2" y="878.0"/>
      <point x="463.0" y="831.6"/>
      <point x="322.0" y="679.2" type="curve"/>
      <point x="359.6" y="641.0" type="line"/>
      <point x="392.8" y="688.4"/>
      <point x="479.4" y="722.2"/>
      <point x="564.4" y="722.2" type="curve" smooth="yes"/>
      <point x="665.8" y="722.2"/>
      <point x="733.0" y="674.0"/>
      <point x="733.0" y="573.0" type="curve" smooth="yes"/>
      <point x="733.0" y="85.4" type="line"/>
      <point x="603.2" y="38.0" type="line"/>
      <point x="603.2" y="0.0" type="line"/>
      <point x="1048.2" y="0.0" type="line"/>
      <point x="1048.2" y="38.0" type="line"/>
      <point x="919.2" y="85.4" type="line"/>
    </contour>
    <contour>
      <point x="1460.4" y="576.4" type="line" smooth="yes"/>
      <point x="1460.4" y="770.6"/>
      <point x="1392.4" y="878.0"/>
      <point x="1229.8" y="878.0" type="curve" smooth="yes"/>
      <point x="1100.4" y="878.0"/>
      <point x="1004.2" y="831.6"/>
      <point x="863.2" y="679.2" type="curve"/>
      <point x="900.8" y="641.0" type="line"/>
      <point x="934.0" y="688.4"/>
      <point x="1020.6" y="722.2"/>
      <point x="1105.6" y="722.2" type="curve" smooth="yes"/>
      <point x="1206.2" y="722.2"/>
      <point x="1274.2" y="674.8"/>
      <point x="1274.2" y="573.0" type="curve" smooth="yes"/>
      <point x="1274.2" y="85.4" type="line"/>
      <point x="1144.6" y="38.0" type="line"/>
      <point x="1144.6" y="0.0" type="line"/>
      <point x="1605.2" y="0.0" type="line"/>
      <point x="1605.2" y="38.0" type="line"/>
      <point x="1460.4" y="87.4" type="line"/>
    </contour>
  </outline>
</glyph>
<glyph name="n" format="2">
	<unicode hex="006E"/>
	<advance width="1117.8"/>
	<outline>
		<contour>
			<point x="378.2" y="689" type="line"/>
			<point x="341.4" y="878" type="line"/>
			<point x="316.8" y="878" type="line"/>
			<point x="49" y="771.6" type="line"/>
			<point x="49" y="743" type="line"/>
			<point x="131.4" y="714.8"/>
			<point x="167" y="694"/>
			<point x="191.8" y="665.8" type="curve"/>
			<point x="191.8" y="87.4" type="line"/>
			<point x="49" y="38" type="line"/>
			<point x="49" y="0" type="line"/>
			<point x="518.4" y="0" type="line"/>
			<point x="518.4" y="38" type="line"/>
			<point x="378.2" y="85.4" type="line"/>
		</contour>
		<contour>
			<point x="630.4" y="38" type="line"/>
			<point x="630.4" y="0" type="line"/>
			<point x="1101.8" y="0" type="line"/>
			<point x="1101.8" y="38" type="line"/>
			<point x="957" y="87.4" type="line"/>
			<point x="957" y="553" type="line" smooth="yes"/>
			<point x="957" y="777"/>
			<point x="878" y="878"/>
			<point x="712.4" y="878" type="curve" smooth="yes"/>
			<point x="574.8" y="878"/>
			<point x="472.4" y="829"/>
			<point x="322.8" y="667" type="curve"/>
			<point x="362.4" y="632" type="line"/>
			<point x="397.8" y="680.6"/>
			<point x="488.4" y="720.4"/>
			<point x="586.6" y="720.4" type="curve" smooth="yes"/>
			<point x="706.8" y="720.4"/>
			<point x="770.6" y="659.8"/>
			<point x="770.6" y="558.2" type="curve" smooth="yes"/>
			<point x="770.6" y="85.4" type="line"/>
		</contour>
	</outline>
	<anchor name="top" x="577.8" y="856"/>
	<anchor name="bottom" x="581.2" y="0"/>
</glyph>
<glyph name="o" format="2">
	<unicode hex="006F"/>
	<advance width="1022.4"/>
	<outline>
		<contour>
			<point x="515.6" y="62.4" type="curve" smooth="yes"/>
			<point x="367.6" y="62.4"/>
			<point x="273.8" y="200.6"/>
			<point x="273.8" y="458.2" type="curve" smooth="yes"/>
			<point x="273.8" y="694.6"/>
			<point x="372.2" y="793.6"/>
			<point x="506.8" y="793.6" type="curve" smooth="yes"/>
			<point x="654.8" y="793.6"/>
			<point x="748.6" y="655.4"/>
			<point x="748.6" y="397.8" type="curve" smooth="yes"/>
			<point x="748.6" y="161.4"/>
			<point x="650.2" y="62.4"/>
		</contour>
		<contour>
			<point x="507.2" y="-22" type="curve" smooth="yes"/>
			<point x="765.2" y="-22"/>
			<point x="952.8" y="171.6"/>
			<point x="952.8" y="439" type="curve" smooth="yes"/>
			<point x="952.8" y="698.4"/>
			<point x="778.6" y="878"/>
			<point x="515.2" y="878" type="curve" smooth="yes"/>
			<point x="257.2" y="878"/>
			<point x="69.6" y="684.4"/>
			<point x="69.6" y="417" type="curve" smooth="yes"/>
			<point x="69.6" y="157.6"/>
			<point x="243.8" y="-22"/>
		</contour>
	</outline>
	<anchor name="top" x="511.6" y="856"/>
	<anchor name="bottom" x="511.6" y="0"/>
	<anchor name="horn" x="660" y="856"/>
	<anchor name="right" x="723" y="0"/>
</glyph>
<glyph name="p" format="2">
	<unicode hex="0070"/>
	<advance width="1097.6"/>
	<outline>
		<contour>
			<point x="820.6" y="420.8" type="curve" smooth="yes"/>
			<point x="820.6" y="195.2"/>
			<point x="729.2" y="66.8"/>
			<point x="575" y="66.8" type="curve" smooth="yes"/>
			<point x="440.8" y="66.8"/>
			<point x="357.6" y="147.8"/>
			<point x="357.6" y="257.4" type="curve" smooth="yes"/>
			<point x="357.6" y="754.2" type="line"/>
			<point x="326.8" y="880" type="line"/>
			<point x="302.2" y="880" type="line"/>
			<point x="28.4" y="773.6" type="line"/>
			<point x="28.4" y="745" type="line"/>
			<point x="97.8" y="719.4"/>
			<point x="144.2" y="697.8"/>
			<point x="171.2" y="667.8" type="curve"/>
			<point x="171.2" y="-420.6" type="line"/>
			<point x="28.4" y="-470" type="line"/>
			<point x="28.4" y="-508" type="line"/>
			<point x="519.4" y="-508" type="line"/>
			<point x="519.4" y="-470" type="line"/>
			<point x="357.6" y="-419" type="line"/>
			<point x="357.6" y="55" type="line"/>
			<point x="250.8" y="55" type="line"/>
			<point x="365.8" y="0"/>
			<point x="451.6" y="-22"/>
			<point x="550" y="-22" type="curve" smooth="yes"/>
			<point x="807.4" y="-22"/>
			<point x="1026.8" y="165.4"/>
			<point x="1026.8" y="474" type="curve" smooth="yes"/>
			<point x="1026.8" y="709.6"/>
			<point x="893.8" y="878"/>
			<point x="646.4" y="878" type="curve" smooth="yes"/>
			<point x="553.2" y="878"/>
			<point x="433.2" y="835.2"/>
			<point x="288.6" y="746.4" type="curve"/>
			<point x="296.4" y="673" type="line"/>
			<point x="368.6" y="728"/>
			<point x="460.4" y="754"/>
			<point x="561.6" y="754" type="curve" smooth="yes"/>
			<point x="716" y="754"/>
			<point x="820.6" y="637.6"/>
		</contour>
	</outline>
	<anchor name="top" x="546.4" y="856"/>
	<anchor name="bottom" x="275.6" y="-508"/>
</glyph>
<glyph name="q" format="2">
  <advance width="1063"/>
  <unicode hex="0071"/>
  <anchor x="544.0" y="856.0" name="top"/>
  <anchor x="830.0" y="-508.0" name="bottom"/>
  <outline>
    <contour>
      <point x="277.0" y="437.6" type="curve" smooth="yes"/>
      <point x="277.0" y="660.8"/>
      <point x="368.4" y="789.2"/>
      <point x="522.6" y="789.2" type="curve" smooth="yes"/>
      <point x="658.4" y="789.2"/>
      <point x="740.0" y="706.6"/>
      <point x="740.0" y="598.6" type="curve" smooth="yes"/>
      <point x="740.0" y="-419.0" type="line"/>
      <point x="578.2" y="-470.0" type="line"/>
      <point x="578.2" y="-508.0" type="line"/>
      <point x="1069.2" y="-508.0" type="line"/>
      <point x="1069.2" y="-470.0" type="line"/>
      <point x="926.4" y="-420.6" type="line"/>
      <point x="926.4" y="651.4" type="line"/>
      <point x="951.0" y="860.4" type="line"/>
      <point x="917.4" y="874.8" type="line"/>
      <point x="752.4" y="801.4" type="line"/>
      <point x="857.2" y="801.0" type="line"/>
      <point x="740.0" y="856.0"/>
      <point x="652.6" y="878.0"/>
      <point x="561.2" y="878.0" type="curve" smooth="yes"/>
      <point x="282.4" y="878.0"/>
      <point x="70.8" y="685.2"/>
      <point x="70.8" y="384.0" type="curve" smooth="yes"/>
      <point x="70.8" y="144.6"/>
      <point x="203.6" y="-22.0"/>
      <point x="453.2" y="-22.0" type="curve" smooth="yes"/>
      <point x="548.8" y="-22.0"/>
      <point x="657.8" y="16.8"/>
      <point x="800.6" y="104.2" type="curve"/>
      <point x="800.6" y="181.0" type="line"/>
      <point x="729.2" y="126.4"/>
      <point x="639.4" y="100.4"/>
      <point x="536.0" y="100.4" type="curve" smooth="yes"/>
      <point x="381.6" y="100.4"/>
      <point x="277.0" y="217.4"/>
    </contour>
  </outline>
</glyph>
<glyph name="r" format="2">
	<unicode hex="0072"/>
	<advance width="784.6"/>
	<outline>
		<contour>
			<point x="663.6" y="870" type="curve" smooth="yes"/>
			<point x="587.4" y="870"/>
			<point x="479.4" y="809.4"/>
			<point x="327.8" y="682.6" type="curve"/>
			<point x="350.2" y="642.4" type="line"/>
			<point x="389.4" y="675"/>
			<point x="450.2" y="694.6"/>
			<point x="496" y="694.6" type="curve" smooth="yes"/>
			<point x="556" y="694.6"/>
			<point x="592.6" y="661"/>
			<point x="648.2" y="661" type="curve" smooth="yes"/>
			<point x="717" y="661"/>
			<point x="767" y="702.6"/>
			<point x="767" y="773" type="curve" smooth="yes"/>
			<point x="767" y="829"/>
			<point x="736.8" y="870"/>
		</contour>
		<contour>
			<point x="378.2" y="689" type="line"/>
			<point x="363.2" y="878" type="line"/>
			<point x="338.6" y="878" type="line"/>
			<point x="49.2" y="771.6" type="line"/>
			<point x="49.2" y="743" type="line"/>
			<point x="117.8" y="718.8"/>
			<point x="163.8" y="698"/>
			<point x="191.8" y="665.8" type="curve"/>
			<point x="191.8" y="87.4" type="line"/>
			<point x="49" y="38" type="line"/>
			<point x="49" y="0" type="line"/>
			<point x="528" y="0" type="line"/>
			<point x="528" y="38" type="line"/>
			<point x="378.2" y="89" type="line"/>
		</contour>
	</outline>
	<anchor name="top" x="410.8" y="856"/>
	<anchor name="bottom" x="285" y="0"/>
</glyph>
<glyph name="s" format="2">
  <advance width="732"/>
  <unicode hex="0073"/>
  <anchor x="367.2" y="856.0" name="top"/>
  <anchor x="374.6" y="0.0" name="bottom"/>
  <outline>
    <contour>
      <point x="393.2" y="878.0" type="curve" smooth="yes"/>
      <point x="226.2" y="878.0"/>
      <point x="93.4" y="787.8"/>
      <point x="93.4" y="631.0" type="curve" smooth="yes"/>
      <point x="93.4" y="493.0"/>
      <point x="167.4" y="423.0"/>
      <point x="281.0" y="373.8" type="curve" smooth="yes"/>
      <point x="394.6" y="324.4"/>
      <point x="497.4" y="293.4"/>
      <point x="497.4" y="192.8" type="curve" smooth="yes"/>
      <point x="497.4" y="97.4"/>
      <point x="419.0" y="49.6"/>
      <point x="296.6" y="49.6" type="curve" smooth="yes"/>
      <point x="248.4" y="49.6"/>
      <point x="208.4" y="54.6"/>
      <point x="134.6" y="89.0" type="curve"/>
      <point x="261.8" y="9.8" type="line"/>
      <point x="124.0" y="261.6" type="line"/>
      <point x="72.6" y="261.6" type="line"/>
      <point x="112.6" y="17.4" type="line"/>
      <point x="176.6" y="-10.4"/>
      <point x="242.6" y="-22.0"/>
      <point x="325.4" y="-22.0" type="curve" smooth="yes"/>
      <point x="513.6" y="-22.0"/>
      <point x="655.4" y="70.2"/>
      <point x="655.4" y="245.4" type="curve" smooth="yes"/>
      <point x="655.4" y="399.4"/>
      <point x="553.8" y="466.8"/>
      <point x="436.0" y="514.4" type="curve" smooth="yes"/>
      <point x="318.2" y="562.0"/>
      <point x="240.2" y="596.6"/>
      <point x="240.2" y="685.8" type="curve" smooth="yes"/>
      <point x="240.2" y="759.4"/>
      <point x="299.6" y="803.2"/>
      <point x="398.8" y="803.2" type="curve" smooth="yes"/>
      <point x="451.0" y="803.2"/>
      <point x="494.4" y="785.2"/>
      <point x="544.4" y="748.4" type="curve"/>
      <point x="472.6" y="832.0" type="line"/>
      <point x="577.6" y="590.0" type="line"/>
      <point x="627.6" y="590.0" type="line"/>
      <point x="614.2" y="826.8" type="line"/>
      <point x="534.0" y="864.0"/>
      <point x="476.6" y="878.0"/>
    </contour>
  </outline>
</glyph>
<glyph name="t" format="2">
	<unicode hex="0074"/>
	<advance width="677.2"/>
	<outline>
		<contour>
			<point x="342.2" y="248.2" type="curve" smooth="yes"/>
			<point x="342.2" y="828" type="line"/>
			<point x="342.2" y="1003" type="line"/>
			<point x="299.6" y="1003" type="line"/>
			<point x="215.2" y="939.2"/>
			<point x="121" y="873"/>
			<point x="40.8" y="816" type="curve"/>
			<point x="40.8" y="790.8" type="line"/>
			<point x="156" y="708" type="line"/>
			<point x="156" y="212" type="line" smooth="yes"/>
			<point x="156" y="57.8"/>
			<point x="250.2" y="-18.8"/>
			<point x="393.4" y="-18.8" type="curve" smooth="yes"/>
			<point x="464.8" y="-18.8"/>
			<point x="544" y="9.4"/>
			<point x="666.4" y="99.4" type="curve"/>
			<point x="666.4" y="150.2" type="line"/>
			<point x="600.8" y="129.8"/>
			<point x="544.4" y="120.2"/>
			<point x="497.4" y="120.2" type="curve" smooth="yes"/>
			<point x="398" y="120.2"/>
			<point x="342.2" y="163.6"/>
		</contour>
		<contour>
			<point x="267.8" y="752.4" type="line"/>
			<point x="618.2" y="752.4" type="line"/>
			<point x="635.4" y="856" type="line"/>
			<point x="267.8" y="856" type="line"/>
		</contour>
	</outline>
	<anchor name="bottom" x="389.6" y="0"/>
	<anchor name="right" x="313" y="1334.2"/>
</glyph>
<glyph name="u" format="2">
  <advance width="1053.2"/>
  <unicode hex="0075"/>
  <anchor x="508.0" y="856.0" name="top"/>
  <anchor x="973.8" y="0.0" name="right"/>
  <anchor x="529.6" y="0.0" name="bottom"/>
  <anchor x="788.4" y="853.6" name="horn"/>
  <outline>
    <contour>
      <point x="347.4" y="286.6" type="curve" smooth="yes"/>
      <point x="347.4" y="753.8" type="line"/>
      <point x="357.6" y="872.0" type="line"/>
      <point x="24.0" y="852.0" type="line"/>
      <point x="24.0" y="809.6" type="line"/>
      <point x="161.2" y="748.6" type="line"/>
      <point x="161.2" y="287.4" type="line" smooth="yes"/>
      <point x="161.2" y="80.8"/>
      <point x="237.2" y="-22.0"/>
      <point x="400.8" y="-22.0" type="curve" smooth="yes"/>
      <point x="529.8" y="-22.0"/>
      <point x="618.8" y="23.6"/>
      <point x="761.6" y="177.2" type="curve"/>
      <point x="723.0" y="217.6" type="line"/>
      <point x="688.4" y="170.2"/>
      <point x="601.6" y="136.4"/>
      <point x="517.0" y="136.4" type="curve" smooth="yes"/>
      <point x="387.6" y="136.4"/>
      <point x="347.4" y="174.2"/>
    </contour>
    <contour>
      <point x="719.6" y="-16.8" type="line"/>
      <point x="743.4" y="-16.8" type="line"/>
      <point x="1017.4" y="49.6" type="line"/>
      <point x="1017.4" y="82.2" type="line"/>
      <point x="972.2" y="91.8"/>
      <point x="915.8" y="120.2"/>
      <point x="889.6" y="148.6" type="curve"/>
      <point x="889.6" y="751.8" type="line"/>
      <point x="901.4" y="872.0" type="line"/>
      <point x="571.0" y="852.0" type="line"/>
      <point x="571.0" y="809.6" type="line"/>
      <point x="702.4" y="750.6" type="line"/>
      <point x="702.4" y="171.4" type="line"/>
    </contour>
  </outline>
</glyph>
<glyph name="v" format="2">
	<unicode hex="0076"/>
	<advance width="1017"/>
	<outline>
		<contour>
			<point x="887.2" y="774" type="line"/>
			<point x="991.8" y="812.2" type="line"/>
			<point x="991.8" y="856" type="line"/>
			<point x="670.2" y="856" type="line"/>
			<point x="670.2" y="812.2" type="line"/>
			<point x="794" y="774.4" type="line"/>
			<point x="562" y="169" type="line"/>
			<point x="594.6" y="169.6" type="line"/>
			<point x="315.4" y="771.2" type="line"/>
			<point x="439.8" y="812.2" type="line"/>
			<point x="439.8" y="856" type="line"/>
			<point x="-9" y="856" type="line"/>
			<point x="-9" y="812.6" type="line"/>
			<point x="113.4" y="764.6" type="line"/>
			<point x="481.2" y="-16" type="line"/>
			<point x="564.6" y="-16" type="line"/>
		</contour>
	</outline>
	<anchor name="top" x="525.8" y="856"/>
	<anchor name="bottom" x="515" y="0"/>
</glyph>
<glyph name="w" format="2">
	<unicode hex="0077"/>
	<advance width="1461.6"/>
	<outline>
		<contour>
			<point x="1246" y="775.8" type="line"/>
			<point x="1070.8" y="179" type="line"/>
			<point x="1113.4" y="179" type="line"/>
			<point x="823.2" y="872" type="line"/>
			<point x="747.2" y="872" type="line"/>
			<point x="466.2" y="179.4" type="line"/>
			<point x="508.4" y="179.4" type="line"/>
			<point x="315.8" y="771.2" type="line"/>
			<point x="440.2" y="812.2" type="line"/>
			<point x="440.2" y="856" type="line"/>
			<point x="0" y="856" type="line"/>
			<point x="0" y="812.6" type="line"/>
			<point x="122.4" y="764.6" type="line"/>
			<point x="384.4" y="-16" type="line"/>
			<point x="469.8" y="-16" type="line"/>
			<point x="755.6" y="679.4" type="line"/>
			<point x="709.4" y="669" type="line"/>
			<point x="1000.4" y="-16" type="line"/>
			<point x="1085.8" y="-16" type="line"/>
			<point x="1338.2" y="775.2" type="line"/>
			<point x="1442.4" y="812.2" type="line"/>
			<point x="1442.4" y="856" type="line"/>
			<point x="1122.8" y="856" type="line"/>
			<point x="1122.8" y="812.2" type="line"/>
		</contour>
	</outline>
	<anchor name="top" x="766" y="856"/>
	<anchor name="bottom" x="766" y="0"/>
</glyph>
<glyph name="x" format="2">
	<unicode hex="0078"/>
	<advance width="985.4"/>
	<outline>
		<contour>
			<point x="862.2" y="90.4" type="line"/>
			<point x="561" y="487.6" type="line"/>
			<point x="536.4" y="514.6" type="line"/>
			<point x="345.4" y="772.2" type="line"/>
			<point x="462.4" y="812.8" type="line"/>
			<point x="462.4" y="856" type="line"/>
			<point x="26.4" y="856" type="line"/>
			<point x="26.4" y="812.8" type="line"/>
			<point x="142.8" y="765.6" type="line"/>
			<point x="428" y="389.4" type="line"/>
			<point x="449.8" y="364.2" type="line"/>
			<point x="659.6" y="83.8" type="line"/>
			<point x="544.6" y="43.2" type="line"/>
			<point x="544.6" y="0" type="line"/>
			<point x="978.6" y="0" type="line"/>
			<point x="978.6" y="43.2" type="line"/>
		</contour>
		<contour>
			<point x="496.6" y="402.8" type="line"/>
			<point x="538.8" y="428.4" type="line"/>
			<point x="836.2" y="775" type="line"/>
			<point x="943.2" y="812.8" type="line"/>
			<point x="943.2" y="856" type="line"/>
			<point x="614.6" y="856" type="line"/>
			<point x="614.6" y="812.8" type="line"/>
			<point x="729.2" y="775.6" type="line"/>
			<point x="488.8" y="481.2" type="line"/>
			<point x="446.4" y="455.6" type="line"/>
			<point x="124.4" y="81" type="line"/>
			<point x="17" y="43.2" type="line"/>
			<point x="17" y="0" type="line"/>
			<point x="350.8" y="0" type="line"/>
			<point x="350.8" y="43.2" type="line"/>
			<point x="232.2" y="80.4" type="line"/>
		</contour>
	</outline>
	<anchor name="top" x="501.6" y="856"/>
	<anchor name="bottom" x="501.6" y="0"/>
</glyph>
<glyph name="z" format="2">
	<unicode hex="007A"/>
	<advance width="842.2"/>
	<outline>
		<contour>
			<point x="61.6" y="0" type="line"/>
			<point x="738" y="0" type="line"/>
			<point x="805.4" y="278.6" type="line"/>
			<point x="754.4" y="278.6" type="line"/>
			<point x="594.2" y="33" type="line"/>
			<point x="658.8" y="89.6" type="line"/>
			<point x="202.4" y="82.2" type="line"/>
			<point x="267.2" y="38.2" type="line"/>
			<point x="778.6" y="827.8" type="line"/>
			<point x="778.6" y="856" type="line"/>
			<point x="217" y="856" type="line"/>
			<point x="141.2" y="878" type="line"/>
			<point x="109.8" y="878" type="line"/>
			<point x="65.8" y="582" type="line"/>
			<point x="114.8" y="582" type="line"/>
			<point x="255.8" y="829.4" type="line"/>
			<point x="145.4" y="766.8" type="line"/>
			<point x="643.4" y="773.4" type="line"/>
			<point x="569" y="815.8" type="line"/>
			<point x="61.6" y="28" type="line"/>
		</contour>
	</outline>
	<anchor name="top" x="454.2" y="856"/>
	<anchor name="bottom" x="439.2" y="0"/>
</glyph>
<glyph name="braceleft" format="2">
  <advance width="614.8"/>
  <unicode hex="007B"/>
  <outline>
    <contour>
      <point x="27.4" y="533.0" type="line"/>
      <point x="109.2" y="530.0" type="line" smooth="yes"/>
      <point x="201.4" y="526.4"/>
      <point x="243.8" y="488.8"/>
      <point x="243.8" y="402.8" type="curve" smooth="yes"/>
      <point x="243.8" y="250.4"/>
      <point x="191.6" y="139.2"/>
      <point x="191.6" y="23.4" type="curve" smooth="yes"/>
      <point x="191.6" y="-114.8"/>
      <point x="298.09230090174606" y="-245.3892300901746"/>
      <point x="489.2" y="-265.2" type="curve" smooth="yes"/>
      <point x="572.2" y="-273.8" type="line"/>
      <point x="579.8" y="-207.8" type="line"/>
      <point x="519.8" y="-200.0" type="line" smooth="yes"/>
      <point x="397.4" y="-184.4"/>
      <point x="359.0" y="-108.4"/>
      <point x="359.0" y="-9.4" type="curve" smooth="yes"/>
      <point x="359.0" y="96.0"/>
      <point x="390.0" y="213.2"/>
      <point x="390.0" y="352.6" type="curve" smooth="yes"/>
      <point x="390.0" y="448.0"/>
      <point x="331.2" y="544.4"/>
      <point x="196.8" y="579.2" type="curve"/>
      <point x="196.8" y="560.8" type="line"/>
      <point x="331.2" y="595.6"/>
      <point x="390.0" y="692.0"/>
      <point x="390.0" y="787.4" type="curve" smooth="yes"/>
      <point x="390.0" y="926.8"/>
      <point x="359.0" y="1044.0"/>
      <point x="359.0" y="1149.4" type="curve" smooth="yes"/>
      <point x="359.0" y="1248.4"/>
      <point x="397.4" y="1324.4"/>
      <point x="519.8" y="1340.0" type="curve" smooth="yes"/>
      <point x="579.8" y="1347.8" type="line"/>
      <point x="572.2" y="1413.8" type="line"/>
      <point x="489.2" y="1405.2" type="line" smooth="yes"/>
      <point x="298.09278893283073" y="1385.389278893283"/>
      <point x="191.6" y="1254.8"/>
      <point x="191.6" y="1116.6" type="curve" smooth="yes"/>
      <point x="191.6" y="1000.8"/>
      <point x="243.8" y="889.6"/>
      <point x="243.8" y="737.2" type="curve" smooth="yes"/>
      <point x="243.8" y="651.2"/>
      <point x="201.4" y="613.6"/>
      <point x="109.2" y="610.0" type="curve" smooth="yes"/>
      <point x="27.4" y="607.0" type="line"/>
    </contour>
  </outline>
</glyph>
<glyph name="bar" format="2">
	<unicode hex="007C"/>
	<advance width="474.8"/>
	<outline>
		<contour>
			<point x="181.4" y="-530" type="line"/>
			<point x="293.4" y="-530" type="line"/>
			<point x="293.4" y="1470" type="line"/>
			<point x="181.4" y="1470" type="line"/>
		</contour>
	</outline>
</glyph>
<glyph name="braceright" format="2">
  <advance width="614.8"/>
  <unicode hex="007D"/>
  <outline>
    <contour>
      <point x="587.4" y="607.0" type="line"/>
      <point x="505.6" y="610.0" type="line" smooth="yes"/>
      <point x="413.4" y="613.6"/>
      <point x="371.0" y="651.2"/>
      <point x="371.0" y="737.2" type="curve" smooth="yes"/>
      <point x="371.0" y="889.6"/>
      <point x="423.2" y="1000.8"/>
      <point x="423.2" y="1116.6" type="curve" smooth="yes"/>
      <point x="423.2" y="1254.8"/>
      <point x="316.6" y="1385.0"/>
      <point x="125.6" y="1405.2" type="curve" smooth="yes"/>
      <point x="42.6" y="1413.8" type="line"/>
      <point x="35.0" y="1347.8" type="line"/>
      <point x="95.0" y="1340.0" type="line" smooth="yes"/>
      <point x="217.4" y="1324.4"/>
      <point x="255.8" y="1248.4"/>
      <point x="255.8" y="1149.4" type="curve" smooth="yes"/>
      <point x="255.8" y="1044.0"/>
      <point x="224.8" y="926.8"/>
      <point x="224.8" y="787.4" type="curve" smooth="yes"/>
      <point x="224.8" y="692.0"/>
      <point x="283.6" y="595.6"/>
      <point x="418.0" y="560.8" type="curve"/>
      <point x="418.0" y="579.2" type="line"/>
      <point x="283.6" y="544.4"/>
      <point x="224.8" y="448.0"/>
      <point x="224.8" y="352.6" type="curve" smooth="yes"/>
      <point x="224.8" y="213.2"/>
      <point x="255.8" y="96.0"/>
      <point x="255.8" y="-9.4" type="curve" smooth="yes"/>
      <point x="255.8" y="-108.4"/>
      <point x="217.4" y="-184.4"/>
      <point x="95.0" y="-200.0" type="curve" smooth="yes"/>
      <point x="35.0" y="-207.8" type="line"/>
      <point x="42.6" y="-273.8" type="line"/>
      <point x="125.6" y="-265.2" type="line" smooth="yes"/>
      <point x="316.6" y="-245.0"/>
      <point x="423.2" y="-114.8"/>
      <point x="423.2" y="23.4" type="curve" smooth="yes"/>
      <point x="423.2" y="139.2"/>
      <point x="371.0" y="250.4"/>
      <point x="371.0" y="402.8" type="curve" smooth="yes"/>
      <point x="371.0" y="488.8"/>
      <point x="413.4" y="526.4"/>
      <point x="505.6" y="530.0" type="curve" smooth="yes"/>
      <point x="587.4" y="533.0" type="line"/>
    </contour>
  </outline>
</glyph>
<glyph name="asciitilde" format="2">
	<unicode hex="007E"/>
	<advance width="1000"/>
	<outline>
		<contour>
			<point x="135.8" y="329" type="curve"/>
			<point x="235.4" y="329" type="line"/>
			<point x="240" y="417.2"/>
			<point x="268.2" y="455"/>
			<point x="343.8" y="455" type="curve" smooth="yes"/>
			<point x="450.8" y="455"/>
			<point x="508.8" y="322"/>
			<point x="662.8" y="322" type="curve" smooth="yes"/>
			<point x="775.6" y="322"/>
			<point x="864.2" y="374.2"/>
			<point x="865.8" y="543" type="curve"/>
			<point x="766.2" y="543" type="line"/>
			<point x="761.6" y="454.8"/>
			<point x="733.4" y="417"/>
			<point x="657.8" y="417" type="curve" smooth="yes"/>
			<point x="550.8" y="417"/>
			<point x="492.8" y="550"/>
			<point x="338.8" y="550" type="curve" smooth="yes"/>
			<point x="226" y="550"/>
			<point x="137.4" y="497.8"/>
		</contour>
	</outline>
</glyph>
<glyph name="currency" format="2">
	<unicode hex="00A4"/>
	<advance width="880.8"/>
	<outline>
		<contour>
			<point x="187.4" y="756.4" type="line"/>
			<point x="120" y="689" type="line"/>
			<point x="226.4" y="582.6" type="line"/>
			<point x="293.8" y="650" type="line"/>
		</contour>
		<contour>
			<point x="120" y="183" type="line"/>
			<point x="187.4" y="115.6" type="line"/>
			<point x="290.8" y="219" type="line"/>
			<point x="223.4" y="286.4" type="line"/>
		</contour>
		<contour>
			<point x="440.4" y="709" type="curve" smooth="yes"/>
			<point x="280.8" y="709"/>
			<point x="166.4" y="595.4"/>
			<point x="166.4" y="436" type="curve" smooth="yes"/>
			<point x="166.4" y="276.6"/>
			<point x="280.8" y="163"/>
			<point x="440.4" y="163" type="curve" smooth="yes"/>
			<point x="600" y="163"/>
			<point x="714.4" y="276.6"/>
			<point x="714.4" y="436" type="curve" smooth="yes"/>
			<point x="714.4" y="595.4"/>
			<point x="600" y="709"/>
		</contour>
		<contour>
			<point x="440.4" y="251.4" type="curve" smooth="yes"/>
			<point x="334.8" y="251.4"/>
			<point x="259.8" y="325.6"/>
			<point x="259.8" y="436" type="curve" smooth="yes"/>
			<point x="259.8" y="546.4"/>
			<point x="334.8" y="620.6"/>
			<point x="440.4" y="620.6" type="curve" smooth="yes"/>
			<point x="546" y="620.6"/>
			<point x="621" y="546.4"/>
			<point x="621" y="436" type="curve" smooth="yes"/>
			<point x="621" y="325.6"/>
			<point x="546" y="251.4"/>
		</contour>
		<contour>
			<point x="760.8" y="689" type="line"/>
			<point x="693.4" y="756.4" type="line"/>
			<point x="587" y="650" type="line"/>
			<point x="654.4" y="582.6" type="line"/>
		</contour>
		<contour>
			<point x="760.8" y="183" type="line"/>
			<point x="657.4" y="286.4" type="line"/>
			<point x="590" y="219" type="line"/>
			<point x="693.4" y="115.6" type="line"/>
		</contour>
	</outline>
</glyph>
<glyph name="brokenbar" format="2">
	<unicode hex="00A6"/>
	<advance width="474.8"/>
	<outline>
		<contour>
			<point x="293.4" y="673" type="line"/>
			<point x="293.4" y="1470" type="line"/>
			<point x="181.4" y="1470" type="line"/>
			<point x="181.4" y="673" type="line"/>
		</contour>
		<contour>
			<point x="181.4" y="-530" type="line"/>
			<point x="293.4" y="-530" type="line"/>
			<point x="293.4" y="293" type="line"/>
			<point x="181.4" y="293" type="line"/>
		</contour>
	</outline>
</glyph>
<glyph name="section" format="2">
	<unicode hex="00A7"/>
	<advance width="1048.6"/>
	<outline>
		<contour>
			<point x="481" y="-277" type="curve" smooth="yes"/>
			<point x="714.4" y="-277"/>
			<point x="860" y="-151"/>
			<point x="860" y="31.2" type="curve" smooth="yes"/>
			<point x="860" y="415.8"/>
			<point x="236.8" y="297.6"/>
			<point x="236.8" y="575.2" type="curve" smooth="yes"/>
			<point x="236.8" y="671.2"/>
			<point x="297.6" y="746.6"/>
			<point x="444" y="780.2" type="curve"/>
			<point x="402.2" y="841.6" type="line"/>
			<point x="184.2" y="789"/>
			<point x="79" y="673.4"/>
			<point x="79" y="519.6" type="curve" smooth="yes"/>
			<point x="79" y="129.4"/>
			<point x="708.2" y="244"/>
			<point x="708.2" y="-35.4" type="curve" smooth="yes"/>
			<point x="708.2" y="-132.4818181818"/>
			<point x="636.4" y="-196.4"/>
			<point x="514.2" y="-196.4" type="curve" smooth="yes"/>
			<point x="356" y="-196.4"/>
			<point x="351.2" y="-34.2"/>
			<point x="244" y="-34.2" type="curve" smooth="yes"/>
			<point x="190.8" y="-34.2"/>
			<point x="150.6" y="-69.4"/>
			<point x="150.6" y="-125" type="curve" smooth="yes"/>
			<point x="150.6" y="-195.6"/>
			<point x="235.4" y="-277"/>
		</contour>
		<contour>
			<point x="810.2" y="525.8" type="curve" smooth="yes"/>
			<point x="810.2" y="423.4"/>
			<point x="741.4" y="351.2"/>
			<point x="591" y="317.6" type="curve"/>
			<point x="644.8" y="257.8" type="line"/>
			<point x="838.8" y="306.4"/>
			<point x="968" y="406.8"/>
			<point x="968" y="581.4" type="curve" smooth="yes"/>
			<point x="968" y="971.6"/>
			<point x="338.8" y="857"/>
			<point x="338.8" y="1120.4" type="curve" smooth="yes"/>
			<point x="338.8" y="1217"/>
			<point x="414.6" y="1281.4"/>
			<point x="547.2" y="1281.4" type="curve" smooth="yes"/>
			<point x="705.4" y="1281.4"/>
			<point x="710.2" y="1119.2"/>
			<point x="817.4" y="1119.2" type="curve" smooth="yes"/>
			<point x="870.6" y="1119.2"/>
			<point x="910.8" y="1154.4"/>
			<point x="910.8" y="1210" type="curve" smooth="yes"/>
			<point x="910.8" y="1280.6"/>
			<point x="826" y="1362"/>
			<point x="580.4" y="1362" type="curve" smooth="yes"/>
			<point x="339" y="1362"/>
			<point x="187" y="1244"/>
			<point x="187" y="1061.8" type="curve" smooth="yes"/>
			<point x="187" y="675.6"/>
			<point x="810.2" y="803.4"/>
		</contour>
	</outline>
</glyph>
<glyph name="copyright" format="2">
  <advance width="1617.6"/>
  <unicode hex="00A9"/>
  <outline>
    <contour>
      <point x="808.4" y="1362.0" type="curve" smooth="yes"/>
      <point x="401.4" y="1362.0"/>
      <point x="109.8" y="1075.0"/>
      <point x="109.8" y="669.8" type="curve" smooth="yes"/>
      <point x="109.8" y="264.6"/>
      <point x="401.4" y="-22.0"/>
      <point x="808.4" y="-22.0" type="curve" smooth="yes"/>
      <point x="1215.8" y="-22.0"/>
      <point x="1507.8" y="264.6"/>
      <point x="1507.8" y="669.8" type="curve" smooth="yes"/>
      <point x="1507.8" y="1075.0"/>
      <point x="1215.8" y="1362.0"/>
    </contour>
    <contour>
      <point x="808.4" y="1271.2" type="curve" smooth="yes"/>
      <point x="1152.8" y="1271.2"/>
      <point x="1403.2" y="1023.0"/>
      <point x="1403.2" y="669.8" type="curve" smooth="yes"/>
      <point x="1403.2" y="316.8"/>
      <point x="1152.8" y="68.6"/>
      <point x="808.4" y="68.6" type="curve" smooth="yes"/>
      <point x="464.6" y="68.6"/>
      <point x="214.2" y="316.8"/>
      <point x="214.2" y="669.8" type="curve" smooth="yes"/>
      <point x="214.2" y="1023.0"/>
      <point x="464.6" y="1271.2"/>
    </contour>
    <contour>
      <point x="884.6" y="368.6" type="curve"/>
      <point x="726.2" y="368.6"/>
      <point x="606.4" y="497.6"/>
      <point x="606.4" y="705.4" type="curve" smooth="yes"/>
      <point x="606.4" y="879.0"/>
      <point x="695.0" y="982.2"/>
      <point x="866.8" y="982.2" type="curve" smooth="yes"/>
      <point x="917.0" y="982.2"/>
      <point x="958.6" y="972.0"/>
      <point x="1014.0" y="943.0" type="curve"/>
      <point x="955.0" y="995.4" type="line"/>
      <point x="1073.0" y="792.8" type="line"/>
      <point x="1112.8" y="802.6" type="line"/>
      <point x="1072.8" y="1092.6" type="line"/>
      <point x="1057.4" y="1092.6" type="line"/>
      <point x="973.0" y="1038.2" type="line"/>
      <point x="1023.2" y="1045.2" type="line"/>
      <point x="958.0" y="1059.8"/>
      <point x="919.2" y="1065.0"/>
      <point x="871.6" y="1065.0" type="curve" smooth="yes"/>
      <point x="592.6" y="1065.0"/>
      <point x="428.2" y="905.4"/>
      <point x="428.2" y="671.6" type="curve" smooth="yes"/>
      <point x="428.2" y="433.0"/>
      <point x="597.8" y="285.8"/>
      <point x="854.8" y="285.8" type="curve" smooth="yes"/>
      <point x="933.8" y="285.8"/>
      <point x="1014.0" y="297.2"/>
      <point x="1083.6" y="319.8" type="curve"/>
      <point x="1121.2" y="541.4" type="line"/>
      <point x="1080.0" y="541.4" type="line"/>
      <point x="963.8" y="341.4" type="line"/>
      <point x="1034.0" y="399.0" type="line"/>
      <point x="979.4" y="373.8"/>
      <point x="936.0" y="368.6"/>
    </contour>
  </outline>
</glyph>
<glyph name="ordfeminine" format="2">
	<unicode hex="00AA"/>
	<advance width="884.8"/>
	<outline>
		<contour>
			<point x="118.4" y="459.8" type="line"/>
			<point x="779.6" y="459.8" type="line"/>
			<point x="779.6" y="557.4" type="line"/>
			<point x="118.4" y="557.4" type="line"/>
		</contour>
		<contour>
			<point x="570.2" y="1040.6" type="curve"/>
			<point x="559" y="1111.8" type="line"/>
			<point x="216.6" y="1031.6"/>
			<point x="138.4" y="960.2"/>
			<point x="138.4" y="847.4" type="curve" smooth="yes"/>
			<point x="138.4" y="736.2"/>
			<point x="218" y="677.2"/>
			<point x="329.2" y="677.2" type="curve" smooth="yes"/>
			<point x="419.2" y="677.2"/>
			<point x="494.8" y="733.8"/>
			<point x="521.4" y="826" type="curve"/>
			<point x="517.2" y="826" type="line"/>
			<point x="517.8" y="738"/>
			<point x="567.6" y="678.8"/>
			<point x="652.8" y="678.8" type="curve" smooth="yes"/>
			<point x="696.6" y="678.8"/>
			<point x="731.4" y="692.8"/>
			<point x="785" y="734.4" type="curve"/>
			<point x="785" y="782.8" type="line"/>
			<point x="763.4" y="772.8"/>
			<point x="739.2" y="768.2"/>
			<point x="718.6" y="768.2" type="curve" smooth="yes"/>
			<point x="686" y="768.2"/>
			<point x="670.2" y="787"/>
			<point x="670.2" y="830.2" type="curve" smooth="yes"/>
			<point x="670.2" y="1173.4" type="line" smooth="yes"/>
			<point x="670.2" y="1290.4"/>
			<point x="614" y="1360"/>
			<point x="455" y="1360" type="curve" smooth="yes"/>
			<point x="300.6" y="1360"/>
			<point x="140" y="1267.4"/>
			<point x="140" y="1192.4" type="curve" smooth="yes"/>
			<point x="140" y="1164"/>
			<point x="163.2" y="1146.2"/>
			<point x="201.4" y="1146.2" type="curve" smooth="yes"/>
			<point x="230.6" y="1146.2"/>
			<point x="257.8" y="1154.8"/>
			<point x="278.2" y="1176" type="curve" smooth="yes"/>
			<point x="298.8" y="1197.2"/>
			<point x="306.8" y="1231.4"/>
			<point x="315" y="1302.8" type="curve"/>
			<point x="276" y="1254.6" type="line"/>
			<point x="313.6" y="1271.2"/>
			<point x="357.8" y="1280"/>
			<point x="390.8" y="1280" type="curve" smooth="yes"/>
			<point x="472.4" y="1280"/>
			<point x="507.8" y="1236.2"/>
			<point x="507.8" y="1167.2" type="curve" smooth="yes"/>
			<point x="507.8" y="896.2" type="line" smooth="yes"/>
			<point x="507.8" y="832.4"/>
			<point x="462.4" y="776.4"/>
			<point x="398.6" y="776.4" type="curve" smooth="yes"/>
			<point x="345.6" y="776.4"/>
			<point x="302.8" y="809.2"/>
			<point x="302.8" y="874.4" type="curve" smooth="yes"/>
			<point x="302.8" y="944.4"/>
			<point x="347.8" y="992.6"/>
		</contour>
	</outline>
</glyph>
<glyph name="guillemotleft" format="2">
	<unicode hex="00AB"/>
	<advance width="979.8"/>
	<outline>
		<contour>
			<point x="232.2" y="515" type="line"/>
			<point x="232.2" y="349" type="line"/>
			<point x="509.4" y="808" type="line"/>
			<point x="463.6" y="844" type="line"/>
			<point x="56.4" y="456" type="line"/>
			<point x="56.4" y="408" type="line"/>
			<point x="463.6" y="20" type="line"/>
			<point x="509.4" y="56" type="line"/>
		</contour>
		<contour>
			<point x="626.2" y="515" type="line"/>
			<point x="626.2" y="349" type="line"/>
			<point x="903.4" y="808" type="line"/>
			<point x="857.6" y="844" type="line"/>
			<point x="450.4" y="456" type="line"/>
			<point x="450.4" y="408" type="line"/>
			<point x="857.6" y="20" type="line"/>
			<point x="903.4" y="56" type="line"/>
		</contour>
	</outline>
</glyph>
<glyph name="logicalnot" format="2">
	<unicode hex="00AC"/>
	<advance width="1000"/>
	<outline>
		<contour>
			<point x="133.2" y="654" type="line"/>
			<point x="133.2" y="558" type="line"/>
			<point x="859.2" y="558" type="line"/>
			<point x="859.2" y="654" type="line"/>
		</contour>
		<contour>
			<point x="859.2" y="609" type="line"/>
			<point x="763.2" y="609" type="line"/>
			<point x="763.2" y="218" type="line"/>
			<point x="859.2" y="218" type="line"/>
		</contour>
	</outline>
</glyph>
<glyph name="registered" format="2">
  <advance width="1082"/>
  <unicode hex="00AE"/>
  <outline>
    <contour>
      <point x="538.4" y="1362.0" type="curve" smooth="yes"/>
      <point x="288.4" y="1362.0"/>
      <point x="107.4" y="1184.2"/>
      <point x="107.4" y="934.0" type="curve" smooth="yes"/>
      <point x="107.4" y="684.8"/>
      <point x="288.4" y="504.0"/>
      <point x="538.4" y="504.0" type="curve" smooth="yes"/>
      <point x="790.4" y="504.0"/>
      <point x="974.4" y="684.8"/>
      <point x="974.4" y="934.0" type="curve" smooth="yes"/>
      <point x="974.4" y="1184.2"/>
      <point x="790.4" y="1362.0"/>
    </contour>
    <contour>
      <point x="538.4" y="1288.6" type="curve" smooth="yes"/>
      <point x="743.8" y="1288.6"/>
      <point x="894.2" y="1144.2"/>
      <point x="894.2" y="934.0" type="curve" smooth="yes"/>
      <point x="894.2" y="725.8"/>
      <point x="743.8" y="578.4"/>
      <point x="538.4" y="578.4" type="curve" smooth="yes"/>
      <point x="335.0" y="578.4"/>
      <point x="187.6" y="725.8"/>
      <point x="187.6" y="934.0" type="curve" smooth="yes"/>
      <point x="187.6" y="1144.2"/>
      <point x="335.0" y="1288.6"/>
    </contour>
    <contour>
      <point x="428.6" y="966.2" type="line"/>
      <point x="425.0" y="911.2" type="line"/>
      <point x="540.4" y="911.2" type="line" smooth="yes"/>
      <point x="576.0" y="911.2"/>
      <point x="589.4" y="901.6"/>
      <point x="604.4" y="855.6" type="curve" smooth="yes"/>
      <point x="626.4" y="784.8" type="line" smooth="yes"/>
      <point x="644.6" y="718.2"/>
      <point x="666.4" y="709.8"/>
      <point x="776.6" y="717.2" type="curve"/>
      <point x="776.6" y="752.6" type="line"/>
      <point x="751.8" y="752.6"/>
      <point x="741.4" y="758.6"/>
      <point x="727.4" y="801.4" type="curve" smooth="yes"/>
      <point x="696.2" y="885.2" type="line" smooth="yes"/>
      <point x="681.6" y="931.4"/>
      <point x="658.6" y="946.4"/>
      <point x="593.0" y="947.0" type="curve"/>
      <point x="593.0" y="940.4" type="line"/>
      <point x="689.4" y="947.8"/>
      <point x="730.0" y="1000.4"/>
      <point x="730.0" y="1053.2" type="curve" smooth="yes"/>
      <point x="730.0" y="1119.4"/>
      <point x="687.0" y="1166.0"/>
      <point x="569.4" y="1166.0" type="curve" smooth="yes"/>
      <point x="418.2" y="1166.0" type="line"/>
      <point x="425.8" y="1113.2" type="line"/>
      <point x="528.4" y="1113.2" type="line" smooth="yes"/>
      <point x="602.0" y="1113.2"/>
      <point x="626.0" y="1086.6"/>
      <point x="626.0" y="1040.4" type="curve" smooth="yes"/>
      <point x="626.0" y="989.0"/>
      <point x="596.4" y="966.2"/>
      <point x="551.6" y="966.2" type="curve" smooth="yes"/>
    </contour>
    <contour>
      <point x="391.6" y="1117.2" type="line"/>
      <point x="391.6" y="767.8" type="line"/>
      <point x="339.4" y="749.4" type="line"/>
      <point x="339.4" y="717.0" type="line"/>
      <point x="541.6" y="717.0" type="line"/>
      <point x="541.6" y="749.4" type="line"/>
      <point x="491.2" y="767.8" type="line"/>
      <point x="491.2" y="1166.0" type="line"/>
      <point x="339.4" y="1166.0" type="line"/>
      <point x="339.4" y="1135.6" type="line"/>
    </contour>
  </outline>
</glyph>
<glyph name="degree" format="2">
	<unicode hex="00B0"/>
	<advance width="758"/>
	<outline>
		<contour>
			<point x="379" y="1352" type="curve" smooth="yes"/>
			<point x="201.8" y="1352"/>
			<point x="75" y="1227.2"/>
			<point x="75" y="1050" type="curve" smooth="yes"/>
			<point x="75" y="872.8"/>
			<point x="201.8" y="748"/>
			<point x="379" y="748" type="curve" smooth="yes"/>
			<point x="556.2" y="748"/>
			<point x="683" y="872.8"/>
			<point x="683" y="1050" type="curve" smooth="yes"/>
			<point x="683" y="1227.2"/>
			<point x="556.2" y="1352"/>
		</contour>
		<contour>
			<point x="379" y="828.8" type="curve" smooth="yes"/>
			<point x="252.6" y="828.8"/>
			<point x="161.6" y="917.6"/>
			<point x="161.6" y="1050" type="curve" smooth="yes"/>
			<point x="161.6" y="1182.4"/>
			<point x="252.6" y="1271.2"/>
			<point x="379" y="1271.2" type="curve" smooth="yes"/>
			<point x="505.4" y="1271.2"/>
			<point x="596.4" y="1182.4"/>
			<point x="596.4" y="1050" type="curve" smooth="yes"/>
			<point x="596.4" y="917.6"/>
			<point x="505.4" y="828.8"/>
		</contour>
	</outline>
</glyph>
<glyph name="plusminus" format="2">
  <advance width="1000.0"/>
  <unicode hex="00B1"/>
  <outline>
    <contour>
      <point x="452.0" y="856.0" type="line"/>
      <point x="452.0" y="130.0" type="line"/>
      <point x="548.0" y="130.0" type="line"/>
      <point x="548.0" y="856.0" type="line"/>
    </contour>
    <contour>
      <point x="137.0" y="541.0" type="line"/>
      <point x="137.0" y="445.0" type="line"/>
      <point x="863.0" y="445.0" type="line"/>
      <point x="863.0" y="541.0" type="line"/>
    </contour>
    <contour>
      <point x="137.0" y="96.0" type="line"/>
      <point x="137.0" y="0.0" type="line"/>
      <point x="863.0" y="0.0" type="line"/>
      <point x="863.0" y="96.0" type="line"/>
    </contour>
  </outline>
</glyph>
<glyph name="uni00B3" format="2">
  <advance width="651"/>
  <unicode hex="00B3"/>
  <outline>
    <contour>
      <point x="223.8" y="576.8" type="curve" smooth="yes"/>
      <point x="451.4" y="576.8"/>
      <point x="597.2" y="701.2"/>
      <point x="597.2" y="856.8" type="curve" smooth="yes"/>
      <point x="597.2" y="977.2"/>
      <point x="503.0" y="1048.6"/>
      <point x="336.6" y="1023.6" type="curve"/>
      <point x="329.4" y="1018.0" type="line"/>
      <point x="443.2" y="1037.6"/>
      <point x="525.2" y="1106.6"/>
      <point x="525.2" y="1202.4" type="curve" smooth="yes"/>
      <point x="525.2" y="1292.8"/>
      <point x="457.8" y="1356.6"/>
      <point x="333.2" y="1356.6" type="curve" smooth="yes"/>
      <point x="194.2" y="1356.6"/>
      <point x="111.6" y="1275.4"/>
      <point x="78.6" y="1136.4" type="curve"/>
      <point x="126.8" y="1121.0" type="line"/>
      <point x="151.4" y="1207.0"/>
      <point x="204.4" y="1246.2"/>
      <point x="281.2" y="1246.2" type="curve" smooth="yes"/>
      <point x="347.4" y="1246.2"/>
      <point x="384.4" y="1205.6"/>
      <point x="384.4" y="1150.4" type="curve" smooth="yes"/>
      <point x="384.4" y="1084.0"/>
      <point x="343.4" y="1034.8"/>
      <point x="188.8" y="988.6" type="curve"/>
      <point x="205.0" y="934.4" type="line"/>
      <point x="244.0" y="944.2" type="line" smooth="yes"/>
      <point x="364.4" y="975.8"/>
      <point x="439.2" y="927.0"/>
      <point x="439.2" y="815.2" type="curve" smooth="yes"/>
      <point x="439.2" y="700.8"/>
      <point x="366.6" y="650.6"/>
      <point x="295.0" y="650.6" type="curve" smooth="yes"/>
      <point x="202.0" y="650.6"/>
      <point x="184.2" y="730.8"/>
      <point x="116.0" y="730.8" type="curve" smooth="yes"/>
      <point x="80.6" y="730.8"/>
      <point x="54.6" y="706.8"/>
      <point x="54.6" y="671.0" type="curve" smooth="yes"/>
      <point x="54.6" y="624.0"/>
      <point x="99.6" y="576.8"/>
    </contour>
  </outline>
</glyph>
<glyph name="uni00B5" format="2">
	<unicode hex="00B5"/>
	<advance width="1108.8"/>
	<outline>
		<contour>
			<point x="173.8" y="856" type="line"/>
			<point x="173.8" y="-520" type="line"/>
			<point x="193" y="-520" type="line"/>
			<point x="356" y="-499.8" type="line"/>
			<point x="251.4" y="167.4" type="line"/>
			<point x="238" y="167.4" type="line"/>
			<point x="256.2" y="22"/>
			<point x="329.4" y="-22"/>
			<point x="439.8" y="-22" type="curve" smooth="yes"/>
			<point x="542.4" y="-22"/>
			<point x="631.4" y="23.6"/>
			<point x="774.2" y="177.2" type="curve"/>
			<point x="735.6" y="217.6" type="line"/>
			<point x="701" y="170.2"/>
			<point x="614.2" y="136.4"/>
			<point x="529.6" y="136.4" type="curve" smooth="yes"/>
			<point x="400.2" y="136.4"/>
			<point x="360" y="174.2"/>
			<point x="360" y="286.6" type="curve" smooth="yes"/>
			<point x="360" y="856" type="line"/>
		</contour>
		<contour>
			<point x="902.2" y="177.4" type="curve" smooth="yes"/>
			<point x="902.2" y="856" type="line"/>
			<point x="715" y="856" type="line"/>
			<point x="715" y="174.6" type="line" smooth="yes"/>
			<point x="715" y="56.2"/>
			<point x="773" y="-20.4"/>
			<point x="885.8" y="-20.4" type="curve" smooth="yes"/>
			<point x="943" y="-20.4"/>
			<point x="1013.4" y="10.4"/>
			<point x="1073" y="70.2" type="curve"/>
			<point x="1073" y="121.6" type="line"/>
			<point x="1040.4" y="106.4"/>
			<point x="1005.4" y="95.6"/>
			<point x="976" y="95.6" type="curve" smooth="yes"/>
			<point x="927.2" y="95.6"/>
			<point x="902.2" y="122.8"/>
		</contour>
	</outline>
</glyph>
<glyph name="paragraph" format="2">
	<unicode hex="00B6"/>
	<advance width="1200.4"/>
	<outline>
		<contour>
			<point x="672" y="1340" type="line"/>
			<point x="440.8" y="1340" type="line" smooth="yes"/>
			<point x="164.2" y="1340"/>
			<point x="53.6" y="1178.2"/>
			<point x="53.6" y="993.8" type="curve" smooth="yes"/>
			<point x="53.6" y="802.4"/>
			<point x="169.4" y="661"/>
			<point x="440.8" y="661" type="curve" smooth="yes"/>
			<point x="672" y="661" type="line"/>
		</contour>
		<contour>
			<point x="706" y="-254" type="line"/>
			<point x="706" y="1241" type="line"/>
			<point x="879" y="1241" type="line"/>
			<point x="879" y="1340" type="line"/>
			<point x="602" y="1340" type="line"/>
			<point x="602" y="-254" type="line"/>
		</contour>
		<contour>
			<point x="959" y="-254" type="line"/>
			<point x="959" y="1250" type="line"/>
			<point x="1121" y="1300.4" type="line"/>
			<point x="1121" y="1340" type="line"/>
			<point x="855" y="1340" type="line"/>
			<point x="855" y="-254" type="line"/>
		</contour>
	</outline>
</glyph>
<glyph name="uni00B9" format="2">
	<unicode hex="00B9"/>
	<advance width="523.4"/>
	<outline>
		<contour>
			<point x="218.2" y="655.8" type="line"/>
			<point x="105.2" y="625" type="line"/>
			<point x="105.2" y="592" type="line"/>
			<point x="480.6" y="592" type="line"/>
			<point x="480.6" y="625" type="line"/>
			<point x="374.8" y="655.8" type="line"/>
			<point x="374.8" y="1344" type="line"/>
			<point x="300.6" y="1344" type="line"/>
			<point x="35.4" y="1202" type="line"/>
			<point x="49.2" y="1158.8" type="line"/>
			<point x="257.8" y="1215.6" type="line"/>
			<point x="218.2" y="1282.8" type="line"/>
		</contour>
	</outline>
</glyph>
<glyph name="ordmasculine" format="2">
	<unicode hex="00BA"/>
	<advance width="897.6"/>
	<outline>
		<contour>
			<point x="143" y="456.6" type="line"/>
			<point x="754.6" y="456.6" type="line"/>
			<point x="754.6" y="561.4" type="line"/>
			<point x="143" y="561.4" type="line"/>
		</contour>
		<contour>
			<point x="454" y="763.8" type="curve" smooth="yes"/>
			<point x="348.2" y="763.8"/>
			<point x="282.4" y="861"/>
			<point x="282.4" y="1037.6" type="curve" smooth="yes"/>
			<point x="282.4" y="1201.2"/>
			<point x="351" y="1272"/>
			<point x="445.8" y="1272" type="curve" smooth="yes"/>
			<point x="551" y="1272"/>
			<point x="617.4" y="1175.4"/>
			<point x="617.4" y="997" type="curve" smooth="yes"/>
			<point x="617.4" y="832.6"/>
			<point x="547.4" y="763.8"/>
		</contour>
		<contour>
			<point x="446.4" y="677.2" type="curve" smooth="yes"/>
			<point x="644.8" y="677.2"/>
			<point x="789" y="823.6"/>
			<point x="789" y="1024.4" type="curve" smooth="yes"/>
			<point x="789" y="1222.6"/>
			<point x="655.6" y="1360"/>
			<point x="453.6" y="1360" type="curve" smooth="yes"/>
			<point x="254.2" y="1360"/>
			<point x="108.6" y="1212"/>
			<point x="108.6" y="1008.8" type="curve" smooth="yes"/>
			<point x="108.6" y="814.4"/>
			<point x="243.6" y="677.2"/>
		</contour>
	</outline>
</glyph>
<glyph name="guillemotright" format="2">
	<unicode hex="00BB"/>
	<advance width="1018"/>
	<outline>
		<contour>
			<point x="366.4" y="350" type="line"/>
			<point x="366.4" y="516" type="line"/>
			<point x="89.2" y="57" type="line"/>
			<point x="135" y="21" type="line"/>
			<point x="542.2" y="409" type="line"/>
			<point x="542.2" y="457" type="line"/>
			<point x="135" y="845" type="line"/>
			<point x="89.2" y="809" type="line"/>
		</contour>
		<contour>
			<point x="760.4" y="350" type="line"/>
			<point x="760.4" y="516" type="line"/>
			<point x="483.2" y="57" type="line"/>
			<point x="529" y="21" type="line"/>
			<point x="936.2" y="409" type="line"/>
			<point x="936.2" y="457" type="line"/>
			<point x="529" y="845" type="line"/>
			<point x="483.2" y="809" type="line"/>
		</contour>
	</outline>
</glyph>
<glyph name="AE" format="2">
  <advance width="1956.0"/>
  <unicode hex="00C6"/>
  <guideline x="143.8" y="94.6" angle="179.17942138431232" identifier="UaBZRM6APo"/>
  <anchor x="1032.0" y="1340.0" name="UCtop"/>
  <anchor x="1006.0" y="0.0" name="bottom"/>
  <outline>
    <contour>
      <point x="443.8" y="483.6" type="line"/>
      <point x="1018.2" y="483.6" type="line"/>
      <point x="1018.2" y="583.2" type="line"/>
      <point x="443.8" y="583.2" type="line"/>
    </contour>
    <contour>
      <point x="867.6" y="1340.0" type="line"/>
      <point x="127.8" y="94.6" type="line"/>
      <point x="-27.2" y="40.4" type="line"/>
      <point x="-27.2" y="0.0" type="line"/>
      <point x="408.2" y="0.0" type="line"/>
      <point x="408.2" y="40.4" type="line"/>
      <point x="247.6" y="94.6" type="line"/>
      <point x="957.2" y="1288.2" type="line"/>
      <point x="957.2" y="1340.0" type="line"/>
    </contour>
    <contour>
      <point x="660.4" y="1299.6" type="line"/>
      <point x="846.2" y="1232.2" type="line"/>
      <point x="900.0" y="1340.0" type="line"/>
      <point x="660.4" y="1340.0" type="line"/>
    </contour>
    <contour>
      <point x="1599.8" y="965.0" type="line"/>
      <point x="1518.4" y="965.0" type="line"/>
      <point x="1496.4" y="754.4" type="line"/>
      <point x="1014.8" y="754.4" type="line"/>
      <point x="1014.8" y="651.6" type="line"/>
      <point x="1496.4" y="651.6" type="line"/>
      <point x="1518.4" y="441.0" type="line"/>
      <point x="1599.8" y="441.0" type="line"/>
      <point x="1599.8" y="703.0" type="line"/>
    </contour>
    <contour>
      <point x="1859.6" y="958.6" type="line"/>
      <point x="1789.8" y="1394.4" type="line"/>
      <point x="1769.4" y="1394.4" type="line"/>
      <point x="1654.0" y="1340.0" type="line"/>
      <point x="1014.8" y="1340.0" type="line"/>
      <point x="1014.8" y="1237.2" type="line"/>
      <point x="1691.8" y="1237.2" type="line"/>
      <point x="1628.4" y="1266.0" type="line"/>
      <point x="1809.4" y="948.2" type="line"/>
    </contour>
    <contour>
      <point x="1651.4" y="70.8" type="line"/>
      <point x="1701.8" y="102.8" type="line"/>
      <point x="1014.8" y="102.8" type="line"/>
      <point x="1014.8" y="0.0" type="line"/>
      <point x="1673.8" y="0.0" type="line"/>
      <point x="1794.8" y="-63.4" type="line"/>
      <point x="1816.2" y="-63.4" type="line"/>
      <point x="1892.0" y="384.8" type="line"/>
      <point x="1848.0" y="396.4" type="line"/>
    </contour>
    <contour>
      <point x="773.2" y="0.0" type="line"/>
      <point x="1133.2" y="0.0" type="line"/>
      <point x="1133.2" y="1340.0" type="line"/>
      <point x="927.2" y="1340.0" type="line"/>
      <point x="927.2" y="94.4" type="line"/>
      <point x="773.2" y="40.4" type="line"/>
    </contour>
  </outline>
</glyph>
<glyph name="Ccedilla" format="2">
  <advance width="1390.4"/>
  <unicode hex="00C7"/>
  <outline>
    <contour>
      <point x="873.2" y="80.0" type="curve" smooth="yes"/>
      <point x="546.0" y="80.0"/>
      <point x="305.2" y="310.4"/>
      <point x="305.2" y="733.8" type="curve" smooth="yes"/>
      <point x="305.2" y="1065.6"/>
      <point x="487.2" y="1259.0"/>
      <point x="835.4" y="1259.0" type="curve" smooth="yes"/>
      <point x="937.8" y="1259.0"/>
      <point x="1021.4" y="1239.2"/>
      <point x="1131.6" y="1175.2" type="curve"/>
      <point x="1078.0" y="1230.6" type="line"/>
      <point x="1255.2" y="920.4" type="line"/>
      <point x="1306.4" y="931.0" type="line"/>
      <point x="1244.6" y="1402.0" type="line"/>
      <point x="1220.4" y="1402.0" type="line"/>
      <point x="1092.6" y="1314.2" type="line"/>
      <point x="1154.4" y="1327.0" type="line"/>
      <point x="1039.4" y="1354.0"/>
      <point x="966.2" y="1362.0"/>
      <point x="882.4" y="1362.0" type="curve" smooth="yes"/>
      <point x="384.6" y="1362.0"/>
      <point x="88.0" y="1082.6"/>
      <point x="88.0" y="658.0" type="curve" smooth="yes"/>
      <point x="88.0" y="229.2"/>
      <point x="387.2" y="-22.0"/>
      <point x="844.6" y="-22.0" type="curve" smooth="yes"/>
      <point x="1014.2" y="-22.0"/>
      <point x="1172.0" y="10.0"/>
      <point x="1271.0" y="55.4" type="curve"/>
      <point x="1307.4" y="370.2" type="line"/>
      <point x="1253.2" y="370.2" type="line"/>
      <point x="1101.4" y="91.2" type="line"/>
      <point x="1153.8" y="131.6" type="line"/>
      <point x="1056.6" y="94.8"/>
      <point x="971.2" y="80.0"/>
    </contour>
    <contour>
      <point x="673.0" y="-530.0" type="curve" smooth="yes"/>
      <point x="811.0" y="-530.0"/>
      <point x="932.2" y="-434.0"/>
      <point x="932.2" y="-307.0" type="curve" smooth="yes"/>
      <point x="932.2" y="-222.2"/>
      <point x="875.0" y="-154.0"/>
      <point x="683.6" y="-119.6" type="curve"/>
      <point x="684.2" y="-221.0" type="line"/>
      <point x="878.0" y="49.8" type="line"/>
      <point x="796.6" y="49.8" type="line"/>
      <point x="596.0" y="-216.6" type="line"/>
      <point x="596.0" y="-233.2" type="line"/>
      <point x="774.4" y="-258.2"/>
      <point x="828.8" y="-295.0"/>
      <point x="828.8" y="-362.8" type="curve" smooth="yes"/>
      <point x="828.8" y="-419.8"/>
      <point x="786.4" y="-456.0"/>
      <point x="727.0" y="-456.0" type="curve" smooth="yes"/>
      <point x="658.6" y="-456.0"/>
      <point x="645.8" y="-390.6"/>
      <point x="588.0" y="-390.6" type="curve" smooth="yes"/>
      <point x="555.0" y="-390.6"/>
      <point x="533.2" y="-412.0"/>
      <point x="533.2" y="-443.8" type="curve" smooth="yes"/>
      <point x="533.2" y="-488.2"/>
      <point x="575.0" y="-530.0"/>
    </contour>
  </outline>
</glyph>
<glyph name="multiply" format="2">
	<unicode hex="00D7"/>
	<advance width="1000"/>
	<outline>
		<contour>
			<point x="179.6" y="183" type="line"/>
			<point x="247" y="115.6" type="line"/>
			<point x="820.4" y="689" type="line"/>
			<point x="753" y="756.4" type="line"/>
		</contour>
		<contour>
			<point x="179.6" y="689" type="line"/>
			<point x="753" y="115.6" type="line"/>
			<point x="820.4" y="183" type="line"/>
			<point x="247" y="756.4" type="line"/>
		</contour>
	</outline>
</glyph>
<glyph name="Oslash" format="2">
  <advance width="1562"/>
  <unicode hex="00D8"/>
  <anchor x="780.6" y="1340.0" name="UCtop"/>
  <anchor x="780.6" y="0.0" name="bottom"/>
  <outline>
    <contour>
      <point x="373.6" y="283.8" type="line"/>
      <point x="316.8" y="232.6" type="line"/>
      <point x="104.4" y="0.0" type="line"/>
      <point x="248.4" y="0.0" type="line"/>
      <point x="388.8" y="153.6" type="line"/>
      <point x="430.0" y="197.4" type="line"/>
      <point x="1195.0" y="1055.8" type="line"/>
      <point x="1252.2" y="1107.4" type="line"/>
      <point x="1464.6" y="1340.0" type="line"/>
      <point x="1320.6" y="1340.0" type="line"/>
      <point x="1180.2" y="1186.4" type="line"/>
      <point x="1138.6" y="1142.2" type="line"/>
    </contour>
    <contour>
      <point x="784.0" y="1362.0" type="curve" smooth="yes"/>
      <point x="385.8" y="1362.0"/>
      <point x="101.2" y="1075.8"/>
      <point x="101.2" y="668.0" type="curve" smooth="yes"/>
      <point x="101.2" y="259.8"/>
      <point x="380.6" y="-22.0"/>
      <point x="777.8" y="-22.0" type="curve" smooth="yes"/>
      <point x="1176.0" y="-22.0"/>
      <point x="1460.6" y="264.2"/>
      <point x="1460.6" y="672.0" type="curve" smooth="yes"/>
      <point x="1460.6" y="1080.2"/>
      <point x="1181.2" y="1362.0"/>
    </contour>
    <contour>
      <point x="789.8" y="82.4" type="curve" smooth="yes"/>
      <point x="516.4" y="82.4"/>
      <point x="321.2" y="305.6"/>
      <point x="321.2" y="708.6" type="curve" smooth="yes"/>
      <point x="321.2" y="1054.0"/>
      <point x="497.4" y="1257.6"/>
      <point x="772.0" y="1257.6" type="curve" smooth="yes"/>
      <point x="1045.4" y="1257.6"/>
      <point x="1240.6" y="1034.4"/>
      <point x="1240.6" y="631.4" type="curve" smooth="yes"/>
      <point x="1240.6" y="286.0"/>
      <point x="1064.4" y="82.4"/>
    </contour>
  </outline>
</glyph>
<glyph name="Thorn" format="2">
  <advance width="1244.8"/>
  <unicode hex="00DE"/>
  <outline>
    <contour>
      <point x="961.2" y="691.6" type="curve" smooth="yes"/>
      <point x="961.2" y="508.0"/>
      <point x="836.6" y="411.4"/>
      <point x="668.2" y="411.4" type="curve" smooth="yes"/>
      <point x="275.0" y="411.4" type="line"/>
      <point x="285.4" y="308.6" type="line"/>
      <point x="668.0" y="308.6" type="line" smooth="yes"/>
      <point x="1022.2" y="308.6"/>
      <point x="1173.4" y="487.4"/>
      <point x="1173.4" y="702.0" type="curve" smooth="yes"/>
      <point x="1173.4" y="910.4"/>
      <point x="1029.6" y="1074.0"/>
      <point x="668.0" y="1074.0" type="curve" smooth="yes"/>
      <point x="285.4" y="1074.0" type="line"/>
      <point x="275.0" y="971.2" type="line"/>
      <point x="574.4" y="971.2" type="line" smooth="yes"/>
      <point x="860.2" y="971.2"/>
      <point x="961.2" y="870.4"/>
    </contour>
    <contour>
      <point x="593.8" y="40.4" type="line"/>
      <point x="439.8" y="94.4" type="line"/>
      <point x="439.8" y="1245.6" type="line"/>
      <point x="593.8" y="1299.6" type="line"/>
      <point x="593.8" y="1340.0" type="line"/>
      <point x="79.8" y="1340.0" type="line"/>
      <point x="79.8" y="1299.6" type="line"/>
      <point x="233.8" y="1245.6" type="line"/>
      <point x="233.8" y="94.4" type="line"/>
      <point x="79.8" y="40.4" type="line"/>
      <point x="79.8" y="0.0" type="line"/>
      <point x="593.8" y="0.0" type="line"/>
    </contour>
  </outline>
</glyph>
<glyph name="germandbls" format="2">
	<unicode hex="00DF"/>
	<advance width="1229"/>
	<outline>
		<contour>
			<point x="202.2" y="876" type="curve" smooth="yes"/>
			<point x="202.2" y="87.4" type="line"/>
			<point x="59.4" y="38" type="line"/>
			<point x="59.4" y="0" type="line"/>
			<point x="494" y="0" type="line"/>
			<point x="494" y="38" type="line"/>
			<point x="388.6" y="87.8" type="line"/>
			<point x="388.6" y="985" type="line" smooth="yes"/>
			<point x="388.6" y="1214.4"/>
			<point x="490.6" y="1335.2"/>
			<point x="668.4" y="1335.2" type="curve" smooth="yes"/>
			<point x="814" y="1335.2"/>
			<point x="888.2" y="1252"/>
			<point x="888.2" y="1154.2" type="curve" smooth="yes"/>
			<point x="888.2" y="942.2"/>
			<point x="602.2" y="903.4"/>
			<point x="602.2" y="688.6" type="curve" smooth="yes"/>
			<point x="602.2" y="395.6"/>
			<point x="1013.8" y="467"/>
			<point x="1013.8" y="220.2" type="curve" smooth="yes"/>
			<point x="1013.8" y="105.4"/>
			<point x="932" y="49.6"/>
			<point x="803.4" y="49.6" type="curve" smooth="yes"/>
			<point x="751" y="49.6"/>
			<point x="707" y="51.4"/>
			<point x="627.4" y="89" type="curve"/>
			<point x="758" y="9.8" type="line"/>
			<point x="620.2" y="261.6" type="line"/>
			<point x="568.8" y="261.6" type="line"/>
			<point x="608.8" y="15.4" type="line"/>
			<point x="675.2" y="-10.4"/>
			<point x="746.4" y="-22"/>
			<point x="831.8" y="-22" type="curve" smooth="yes"/>
			<point x="1020.8" y="-22"/>
			<point x="1165.8" y="94.2"/>
			<point x="1165.8" y="279.8" type="curve" smooth="yes"/>
			<point x="1165.8" y="622.4"/>
			<point x="759.2" y="574"/>
			<point x="759.2" y="757" type="curve" smooth="yes"/>
			<point x="759.2" y="932.6"/>
			<point x="1055.2" y="970.2"/>
			<point x="1055.2" y="1181.8" type="curve" smooth="yes"/>
			<point x="1055.2" y="1313.8"/>
			<point x="927.4" y="1421"/>
			<point x="711.4" y="1421" type="curve" smooth="yes"/>
			<point x="444.2" y="1421"/>
			<point x="202.2" y="1253"/>
		</contour>
		<contour>
			<point x="216.6" y="860.4" type="line"/>
			<point x="31.6" y="793.2" type="line"/>
			<point x="31.6" y="758.4" type="line"/>
			<point x="202.2" y="725.2" type="line"/>
		</contour>
	</outline>
</glyph>
<glyph name="ae" format="2">
	<unicode hex="00E6"/>
	<advance width="1365.8"/>
	<outline>
		<contour>
			<point x="412.4" y="776.4" type="curve" smooth="yes"/>
			<point x="519.4" y="776.4"/>
			<point x="563.8" y="718.2"/>
			<point x="563.8" y="628.2" type="curve" smooth="yes"/>
			<point x="563.8" y="289.4" type="line" smooth="yes"/>
			<point x="563.8" y="169.6"/>
			<point x="487.6" y="105"/>
			<point x="386" y="105" type="curve" smooth="yes"/>
			<point x="314.4" y="105"/>
			<point x="259" y="150.2"/>
			<point x="259" y="239.4" type="curve" smooth="yes"/>
			<point x="259" y="322"/>
			<point x="297.2" y="391.8"/>
			<point x="630.2" y="467.2" type="curve"/>
			<point x="617.4" y="538" type="line"/>
			<point x="152.8" y="424.6"/>
			<point x="73.4" y="334.6"/>
			<point x="73.4" y="198.8" type="curve" smooth="yes"/>
			<point x="73.4" y="56"/>
			<point x="174.4" y="-22"/>
			<point x="314.2" y="-22" type="curve" smooth="yes"/>
			<point x="464.4" y="-22"/>
			<point x="573.2" y="69"/>
			<point x="597.2" y="270.4" type="curve"/>
			<point x="566.6" y="272.8" type="line"/>
			<point x="620.2" y="92.6"/>
			<point x="753.4" y="-22"/>
			<point x="939.6" y="-22" type="curve" smooth="yes"/>
			<point x="1085.4" y="-22"/>
			<point x="1197.4" y="40.4"/>
			<point x="1304.4" y="171.4" type="curve"/>
			<point x="1276.4" y="205.2" type="line"/>
			<point x="1205.6" y="148.4"/>
			<point x="1134.4" y="120.4"/>
			<point x="1057" y="120.4" type="curve" smooth="yes"/>
			<point x="870.6" y="120.4"/>
			<point x="746.2" y="253.4"/>
			<point x="746.2" y="472.2" type="curve" smooth="yes"/>
			<point x="746.2" y="689.6"/>
			<point x="822.8" y="793.8"/>
			<point x="934" y="793.8" type="curve" smooth="yes"/>
			<point x="1042.8" y="793.8"/>
			<point x="1093.6" y="698.6"/>
			<point x="1105.6" y="548.6" type="curve"/>
			<point x="1193.2" y="572" type="line"/>
			<point x="707.4" y="546.8" type="line"/>
			<point x="705.8" y="474.4" type="line"/>
			<point x="1299.6" y="474.4" type="line"/>
			<point x="1280.6" y="731"/>
			<point x="1164" y="878"/>
			<point x="951.6" y="878" type="curve" smooth="yes"/>
			<point x="818.4" y="878"/>
			<point x="701.2" y="809.8"/>
			<point x="646.8" y="707.2" type="curve"/>
			<point x="726.2" y="707.2" type="line"/>
			<point x="705" y="812"/>
			<point x="643.4" y="870.8"/>
			<point x="490.6" y="870.8" type="curve" smooth="yes"/>
			<point x="292.6" y="870.8"/>
			<point x="86.8" y="752.6"/>
			<point x="86.8" y="661.2" type="curve" smooth="yes"/>
			<point x="86.8" y="628"/>
			<point x="114.2" y="606.6"/>
			<point x="161.2" y="606.6" type="curve" smooth="yes"/>
			<point x="196.6" y="606.6"/>
			<point x="232.8" y="618.8"/>
			<point x="254.8" y="642.2" type="curve" smooth="yes"/>
			<point x="277" y="665.4"/>
			<point x="288.4" y="721.8"/>
			<point x="297.8" y="795.8" type="curve"/>
			<point x="252" y="743" type="line"/>
			<point x="302.8" y="768"/>
			<point x="366.6" y="776.4"/>
		</contour>
	</outline>
	<anchor name="top" x="692.2" y="856"/>
	<anchor name="bottom" x="661.8" y="0"/>
</glyph>
<glyph name="ccedilla" format="2">
	<unicode hex="00E7"/>
	<advance width="850.8"/>
	<outline>
		<contour>
			<point x="561" y="878" type="curve" smooth="yes"/>
			<point x="245.6" y="878"/>
			<point x="69.4" y="661.8"/>
			<point x="69.4" y="403.8" type="curve" smooth="yes"/>
			<point x="69.4" y="161.4"/>
			<point x="228.6" y="-22"/>
			<point x="463.8" y="-22" type="curve" smooth="yes"/>
			<point x="594.8" y="-22"/>
			<point x="702" y="38.8"/>
			<point x="807.2" y="171.8" type="curve"/>
			<point x="779.4" y="205.2" type="line"/>
			<point x="711.4" y="148.4"/>
			<point x="642.8" y="120.4"/>
			<point x="567" y="120.4" type="curve" smooth="yes"/>
			<point x="374" y="120.4"/>
			<point x="251.6" y="260"/>
			<point x="251.6" y="498.8" type="curve" smooth="yes"/>
			<point x="251.6" y="695.8"/>
			<point x="355.6" y="785.8"/>
			<point x="458.2" y="785.8" type="curve" smooth="yes"/>
			<point x="552" y="785.8"/>
			<point x="591" y="653"/>
			<point x="694.2" y="653" type="curve" smooth="yes"/>
			<point x="752.8" y="653"/>
			<point x="796.4" y="692.4"/>
			<point x="796.4" y="753.8" type="curve" smooth="yes"/>
			<point x="796.4" y="812"/>
			<point x="733.8" y="878"/>
		</contour>
		<contour>
			<point x="364.2" y="-530" type="curve" smooth="yes"/>
			<point x="502.2" y="-530"/>
			<point x="623.4" y="-434"/>
			<point x="623.4" y="-307" type="curve" smooth="yes"/>
			<point x="623.4" y="-222.2"/>
			<point x="566.2" y="-154"/>
			<point x="374.8" y="-119.6" type="curve"/>
			<point x="375.4" y="-221" type="line"/>
			<point x="569.2" y="49.8" type="line"/>
			<point x="487.8" y="49.8" type="line"/>
			<point x="287.2" y="-216.6" type="line"/>
			<point x="287.2" y="-233.2" type="line"/>
			<point x="465.6" y="-258.2"/>
			<point x="520" y="-295"/>
			<point x="520" y="-362.8" type="curve" smooth="yes"/>
			<point x="520" y="-419.8"/>
			<point x="477.6" y="-456"/>
			<point x="418.2" y="-456" type="curve" smooth="yes"/>
			<point x="349.8" y="-456"/>
			<point x="337" y="-390.6"/>
			<point x="279.2" y="-390.6" type="curve" smooth="yes"/>
			<point x="246.2" y="-390.6"/>
			<point x="224.4" y="-412"/>
			<point x="224.4" y="-443.8" type="curve" smooth="yes"/>
			<point x="224.4" y="-488.2"/>
			<point x="266.2" y="-530"/>
		</contour>
	</outline>
</glyph>
<glyph name="eth" format="2">
	<unicode hex="00F0"/>
	<advance width="1044"/>
	<outline>
		<contour>
			<point x="507.4" y="-22" type="curve" smooth="yes"/>
			<point x="770.8" y="-22"/>
			<point x="953" y="159.4"/>
			<point x="953" y="524" type="curve" smooth="yes"/>
			<point x="953" y="1004.8"/>
			<point x="787.8" y="1316.8"/>
			<point x="172" y="1419.4" type="curve"/>
			<point x="152.6" y="1348.8" type="line"/>
			<point x="580.4" y="1245"/>
			<point x="740.4" y="1084.8"/>
			<point x="759.8" y="663.8" type="curve"/>
			<point x="793.4" y="694" type="line"/>
			<point x="745.2" y="809.6"/>
			<point x="631.2" y="878"/>
			<point x="502.4" y="878" type="curve" smooth="yes"/>
			<point x="257.4" y="878"/>
			<point x="69.8" y="684.4"/>
			<point x="69.8" y="417" type="curve" smooth="yes"/>
			<point x="69.8" y="157.6"/>
			<point x="244" y="-22"/>
		</contour>
		<contour>
			<point x="515.8" y="62.4" type="curve" smooth="yes"/>
			<point x="367.8" y="62.4"/>
			<point x="274" y="200.6"/>
			<point x="274" y="458.2" type="curve" smooth="yes"/>
			<point x="274" y="694.6"/>
			<point x="372.4" y="793.6"/>
			<point x="507" y="793.6" type="curve" smooth="yes"/>
			<point x="655" y="793.6"/>
			<point x="748.8" y="655.4"/>
			<point x="748.8" y="397.8" type="curve" smooth="yes"/>
			<point x="748.8" y="161.4"/>
			<point x="650.4" y="62.4"/>
		</contour>
		<contour>
			<point x="369.6" y="967.6" type="line"/>
			<point x="888.8" y="1350.2" type="line"/>
			<point x="836.6" y="1422" type="line"/>
			<point x="317.2" y="1039.4" type="line"/>
		</contour>
	</outline>
</glyph>
<glyph name="divide" format="2">
	<unicode hex="00F7"/>
	<advance width="1000"/>
	<outline>
		<contour>
			<point x="500" y="240" type="curve" smooth="yes"/>
			<point x="432.4" y="240"/>
			<point x="384" y="188.2"/>
			<point x="384" y="125" type="curve" smooth="yes"/>
			<point x="384" y="61.8"/>
			<point x="432.4" y="10"/>
			<point x="500" y="10" type="curve" smooth="yes"/>
			<point x="567.6" y="10"/>
			<point x="616" y="61.8"/>
			<point x="616" y="125" type="curve" smooth="yes"/>
			<point x="616" y="188.2"/>
			<point x="567.6" y="240"/>
		</contour>
		<contour>
			<point x="500" y="862" type="curve" smooth="yes"/>
			<point x="432.4" y="862"/>
			<point x="384" y="810.2"/>
			<point x="384" y="747" type="curve" smooth="yes"/>
			<point x="384" y="683.8"/>
			<point x="432.4" y="632"/>
			<point x="500" y="632" type="curve" smooth="yes"/>
			<point x="567.6" y="632"/>
			<point x="616" y="683.8"/>
			<point x="616" y="747" type="curve" smooth="yes"/>
			<point x="616" y="810.2"/>
			<point x="567.6" y="862"/>
		</contour>
		<contour>
			<point x="137" y="484" type="line"/>
			<point x="137" y="388" type="line"/>
			<point x="863" y="388" type="line"/>
			<point x="863" y="484" type="line"/>
		</contour>
	</outline>
</glyph>
<glyph name="oslash" format="2">
	<unicode hex="00F8"/>
	<advance width="1059.2"/>
	<outline>
		<contour>
			<point x="60.8" y="0" type="line"/>
			<point x="189.2" y="0" type="line"/>
			<point x="288.6" y="105.4" type="line"/>
			<point x="329" y="140.8" type="line"/>
			<point x="799.8" y="663.4" type="line"/>
			<point x="841" y="688.4" type="line"/>
			<point x="1000" y="856" type="line"/>
			<point x="871.6" y="856" type="line"/>
			<point x="774.6" y="753" type="line"/>
			<point x="734.2" y="717.6" type="line"/>
			<point x="265.8" y="197.4" type="line"/>
			<point x="224.6" y="172.4" type="line"/>
		</contour>
		<contour>
			<point x="534.8" y="62.4" type="curve" smooth="yes"/>
			<point x="386.8" y="62.4"/>
			<point x="293" y="200.6"/>
			<point x="293" y="458.2" type="curve" smooth="yes"/>
			<point x="293" y="694.6"/>
			<point x="391.4" y="793.6"/>
			<point x="526" y="793.6" type="curve" smooth="yes"/>
			<point x="674" y="793.6"/>
			<point x="767.8" y="655.4"/>
			<point x="767.8" y="397.8" type="curve" smooth="yes"/>
			<point x="767.8" y="161.4"/>
			<point x="669.4" y="62.4"/>
		</contour>
		<contour>
			<point x="526.4" y="-22" type="curve" smooth="yes"/>
			<point x="784.4" y="-22"/>
			<point x="972" y="171.6"/>
			<point x="972" y="439" type="curve" smooth="yes"/>
			<point x="972" y="698.4"/>
			<point x="797.8" y="878"/>
			<point x="534.4" y="878" type="curve" smooth="yes"/>
			<point x="276.4" y="878"/>
			<point x="88.8" y="684.4"/>
			<point x="88.8" y="417" type="curve" smooth="yes"/>
			<point x="88.8" y="157.6"/>
			<point x="263" y="-22"/>
		</contour>
	</outline>
	<anchor name="top" x="530.8" y="856"/>
	<anchor name="bottom" x="530.8" y="0"/>
</glyph>
<glyph name="thorn" format="2">
	<unicode hex="00FE"/>
	<advance width="1061"/>
	<outline>
		<contour>
			<point x="134.6" y="1201" type="curve"/>
			<point x="134.6" y="-420.6" type="line"/>
			<point x="-8.2" y="-470" type="line"/>
			<point x="-8.2" y="-508" type="line"/>
			<point x="482.8" y="-508" type="line"/>
			<point x="482.8" y="-470" type="line"/>
			<point x="321" y="-419" type="line"/>
			<point x="321" y="55" type="line"/>
			<point x="214.2" y="55" type="line"/>
			<point x="329.2" y="0"/>
			<point x="415" y="-22"/>
			<point x="513.4" y="-22" type="curve" smooth="yes"/>
			<point x="770.8" y="-22"/>
			<point x="990.2" y="165.4"/>
			<point x="990.2" y="474" type="curve" smooth="yes"/>
			<point x="990.2" y="709.6"/>
			<point x="857.2" y="878"/>
			<point x="609.8" y="878" type="curve" smooth="yes"/>
			<point x="516.6" y="878"/>
			<point x="396.6" y="835.2"/>
			<point x="252" y="746.4" type="curve"/>
			<point x="259.8" y="673" type="line"/>
			<point x="332" y="728"/>
			<point x="423.8" y="754"/>
			<point x="525" y="754" type="curve" smooth="yes"/>
			<point x="679.4" y="754"/>
			<point x="784" y="637.6"/>
			<point x="784" y="420.8" type="curve" smooth="yes"/>
			<point x="784" y="195.2"/>
			<point x="692.6" y="66.8"/>
			<point x="538.4" y="66.8" type="curve" smooth="yes"/>
			<point x="404.2" y="66.8"/>
			<point x="321" y="147.8"/>
			<point x="321" y="257.4" type="curve" smooth="yes"/>
			<point x="321" y="1244.4" type="line"/>
			<point x="333.4" y="1421" type="line"/>
			<point x="309.6" y="1421" type="line"/>
			<point x="-18.6" y="1328" type="line"/>
			<point x="-18.6" y="1300.6" type="line"/>
			<point x="59.4" y="1266.8"/>
			<point x="106.8" y="1235"/>
		</contour>
	</outline>
</glyph>
<glyph name="Aogonek" format="2">
	<unicode hex="0104"/>
	<advance width="1414"/>
	<outline>
		<contour>
			<point x="348" y="483.6" type="line"/>
			<point x="1014.4" y="483.6" type="line"/>
			<point x="1014.4" y="583.2" type="line"/>
			<point x="348" y="583.2" type="line"/>
		</contour>
		<contour>
			<point x="1284.4" y="96.6" type="line"/>
			<point x="746.8" y="1356" type="line"/>
			<point x="653.8" y="1356" type="line"/>
			<point x="136" y="94.6" type="line"/>
			<point x="-17" y="40.4" type="line"/>
			<point x="-17" y="0" type="line"/>
			<point x="412.4" y="0" type="line"/>
			<point x="412.4" y="40.4" type="line"/>
			<point x="251.8" y="94.6" type="line"/>
			<point x="674.6" y="1167.2" type="line"/>
			<point x="615.4" y="1167.2" type="line"/>
			<point x="1065.4" y="94.6" type="line"/>
			<point x="894.8" y="40.4" type="line"/>
			<point x="894.8" y="0" type="line"/>
			<point x="1432.4" y="0" type="line"/>
			<point x="1432.4" y="40.4" type="line"/>
		</contour>
		<contour>
			<point x="1143.4" y="-113.2" type="curve" smooth="yes"/>
			<point x="1224.4" y="46" type="line"/>
			<point x="1165.2" y="46" type="line"/>
			<point x="1058.2" y="-109.4" type="line" smooth="yes"/>
			<point x="972" y="-230.8"/>
			<point x="953.4" y="-294.4"/>
			<point x="953.4" y="-361" type="curve" smooth="yes"/>
			<point x="953.4" y="-464.4"/>
			<point x="1023.6" y="-530"/>
			<point x="1127.4" y="-530" type="curve" smooth="yes"/>
			<point x="1218.2" y="-530"/>
			<point x="1291.2" y="-486"/>
			<point x="1370.6" y="-373.6" type="curve"/>
			<point x="1339" y="-340.2" type="line"/>
			<point x="1275.2" y="-404.2"/>
			<point x="1233.2" y="-421.6"/>
			<point x="1190.2" y="-421.6" type="curve" smooth="yes"/>
			<point x="1125.2" y="-421.6"/>
			<point x="1080.4" y="-382.4"/>
			<point x="1080.4" y="-313.4" type="curve" smooth="yes"/>
			<point x="1080.4" y="-263.2"/>
			<point x="1094.2" y="-206.4"/>
		</contour>
	</outline>
</glyph>
<glyph name="Dcroat" format="2">
  <advance width="1515.8"/>
  <unicode hex="0110"/>
  <outline>
    <contour>
      <point x="82.2" y="630.0" type="line"/>
      <point x="750.6" y="630.0" type="line"/>
      <point x="750.6" y="731.2" type="line"/>
      <point x="82.2" y="731.2" type="line"/>
    </contour>
    <contour>
      <point x="1206.6" y="687.8" type="curve" smooth="yes"/>
      <point x="1206.6" y="274.0"/>
      <point x="970.6" y="102.8"/>
      <point x="617.8" y="102.8" type="curve" smooth="yes"/>
      <point x="327.6" y="102.8" type="line"/>
      <point x="319.8" y="0.0" type="line"/>
      <point x="647.8" y="0.0" type="line" smooth="yes"/>
      <point x="1091.8" y="0.0"/>
      <point x="1426.8" y="260.0"/>
      <point x="1426.8" y="710.0" type="curve" smooth="yes"/>
      <point x="1426.8" y="1134.0"/>
      <point x="1169.8" y="1340.0"/>
      <point x="645.8" y="1340.0" type="curve" smooth="yes"/>
      <point x="319.8" y="1340.0" type="line"/>
      <point x="327.6" y="1237.2" type="line"/>
      <point x="597.2" y="1237.2" type="line" smooth="yes"/>
      <point x="974.4" y="1237.2"/>
      <point x="1206.6" y="1062.0"/>
    </contour>
    <contour>
      <point x="82.2" y="0.0" type="line"/>
      <point x="442.2" y="0.0" type="line"/>
      <point x="442.2" y="1340.0" type="line"/>
      <point x="82.2" y="1340.0" type="line"/>
      <point x="82.2" y="1299.6" type="line"/>
      <point x="236.2" y="1245.6" type="line"/>
      <point x="236.2" y="94.4" type="line"/>
      <point x="82.2" y="40.4" type="line"/>
    </contour>
  </outline>
</glyph>
<glyph name="Eogonek" format="2">
	<unicode hex="0118"/>
	<advance width="1262.6"/>
	<outline>
		<contour>
			<point x="906.4" y="965" type="line"/>
			<point x="825" y="965" type="line"/>
			<point x="803" y="754.4" type="line"/>
			<point x="321.4" y="754.4" type="line"/>
			<point x="321.4" y="651.6" type="line"/>
			<point x="803" y="651.6" type="line"/>
			<point x="825" y="441" type="line"/>
			<point x="906.4" y="441" type="line"/>
			<point x="906.4" y="703" type="line"/>
		</contour>
		<contour>
			<point x="1166.2" y="958.6" type="line"/>
			<point x="1096.4" y="1394.4" type="line"/>
			<point x="1076" y="1394.4" type="line"/>
			<point x="960.6" y="1340" type="line"/>
			<point x="321.4" y="1340" type="line"/>
			<point x="321.4" y="1237.2" type="line"/>
			<point x="998.4" y="1237.2" type="line"/>
			<point x="935" y="1266" type="line"/>
			<point x="1116" y="948.2" type="line"/>
		</contour>
		<contour>
			<point x="958" y="70.8" type="line"/>
			<point x="1008.4" y="102.8" type="line"/>
			<point x="321.4" y="102.8" type="line"/>
			<point x="321.4" y="0" type="line"/>
			<point x="980.4" y="0" type="line"/>
			<point x="1101.4" y="-63.4" type="line"/>
			<point x="1122.8" y="-63.4" type="line"/>
			<point x="1198.6" y="384.8" type="line"/>
			<point x="1154.6" y="396.4" type="line"/>
		</contour>
		<contour>
			<point x="79.8" y="0" type="line"/>
			<point x="439.8" y="0" type="line"/>
			<point x="439.8" y="1340" type="line"/>
			<point x="79.8" y="1340" type="line"/>
			<point x="79.8" y="1299.6" type="line"/>
			<point x="233.8" y="1245.6" type="line"/>
			<point x="233.8" y="94.4" type="line"/>
			<point x="79.8" y="40.4" type="line"/>
		</contour>
		<contour>
			<point x="923.2" y="-113.2" type="curve" smooth="yes"/>
			<point x="1004.2" y="46" type="line"/>
			<point x="945" y="46" type="line"/>
			<point x="838" y="-109.4" type="line" smooth="yes"/>
			<point x="751.8" y="-230.8"/>
			<point x="733.2" y="-294.4"/>
			<point x="733.2" y="-361" type="curve" smooth="yes"/>
			<point x="733.2" y="-464.4"/>
			<point x="803.4" y="-530"/>
			<point x="907.2" y="-530" type="curve" smooth="yes"/>
			<point x="998" y="-530"/>
			<point x="1071" y="-486"/>
			<point x="1150.4" y="-373.6" type="curve"/>
			<point x="1118.8" y="-340.2" type="line"/>
			<point x="1055" y="-404.2"/>
			<point x="1013" y="-421.6"/>
			<point x="970" y="-421.6" type="curve" smooth="yes"/>
			<point x="905" y="-421.6"/>
			<point x="860.2" y="-382.4"/>
			<point x="860.2" y="-313.4" type="curve" smooth="yes"/>
			<point x="860.2" y="-263.2"/>
			<point x="874" y="-206.4"/>
		</contour>
	</outline>
</glyph>
<glyph name="eogonek" format="2">
	<unicode hex="0119"/>
	<advance width="896.8"/>
	<outline>
		<contour>
			<point x="834.8" y="171.4" type="line"/>
			<point x="806.8" y="205.2" type="line"/>
			<point x="736" y="148.4"/>
			<point x="664.8" y="120.4"/>
			<point x="587.4" y="120.4" type="curve" smooth="yes"/>
			<point x="386.6" y="120.4"/>
			<point x="252.6" y="253.4"/>
			<point x="252.6" y="472.2" type="curve" smooth="yes"/>
			<point x="252.6" y="689.6"/>
			<point x="338.8" y="793.8"/>
			<point x="464.4" y="793.8" type="curve" smooth="yes"/>
			<point x="573.2" y="793.8"/>
			<point x="624" y="698.6"/>
			<point x="636" y="548.6" type="curve"/>
			<point x="723.6" y="594.4" type="line"/>
			<point x="213.8" y="569.2" type="line"/>
			<point x="212.2" y="496.8" type="line"/>
			<point x="830" y="496.8" type="line"/>
			<point x="808.6" y="739"/>
			<point x="687.2" y="878"/>
			<point x="482" y="878" type="curve" smooth="yes"/>
			<point x="221.8" y="878"/>
			<point x="69.6" y="668.2"/>
			<point x="69.6" y="415.4" type="curve" smooth="yes"/>
			<point x="69.6" y="164.6"/>
			<point x="239.6" y="-22"/>
			<point x="481.2" y="-22" type="curve" smooth="yes"/>
			<point x="566" y="-22"/>
			<point x="638.8" y="2.4"/>
			<point x="705.8" y="49" type="curve"/>
			<point x="693.6" y="62.8" type="line"/>
			<point x="570.8" y="-92.2" type="line" smooth="yes"/>
			<point x="478.6" y="-207.6"/>
			<point x="448.2" y="-282.2"/>
			<point x="448.2" y="-361" type="curve" smooth="yes"/>
			<point x="448.2" y="-464.4"/>
			<point x="518.4" y="-530"/>
			<point x="622.2" y="-530" type="curve" smooth="yes"/>
			<point x="713" y="-530"/>
			<point x="786" y="-486"/>
			<point x="865.4" y="-373.6" type="curve"/>
			<point x="833.8" y="-340.2" type="line"/>
			<point x="770" y="-404.2"/>
			<point x="728" y="-421.6"/>
			<point x="685" y="-421.6" type="curve" smooth="yes"/>
			<point x="620" y="-421.6"/>
			<point x="575.2" y="-382.4"/>
			<point x="575.2" y="-313.4" type="curve" smooth="yes"/>
			<point x="575.2" y="-256"/>
			<point x="592.8" y="-187.4"/>
			<point x="679.2" y="-59.6" type="curve" smooth="yes"/>
		</contour>
	</outline>
</glyph>
<glyph name="Hbar" format="2">
	<unicode hex="0126"/>
	<advance width="1591.2"/>
	<outline>
		<contour>
			<point x="441" y="94.4" type="line"/>
			<point x="441" y="1245.6" type="line"/>
			<point x="595" y="1299.6" type="line"/>
			<point x="595" y="1340" type="line"/>
			<point x="81" y="1340" type="line"/>
			<point x="81" y="1299.6" type="line"/>
			<point x="235" y="1245.6" type="line"/>
			<point x="235" y="94.4" type="line"/>
			<point x="81" y="40.4" type="line"/>
			<point x="81" y="0" type="line"/>
			<point x="595" y="0" type="line"/>
			<point x="595" y="40.4" type="line"/>
		</contour>
		<contour>
			<point x="1356.2" y="94.4" type="line"/>
			<point x="1356.2" y="1245.6" type="line"/>
			<point x="1510.2" y="1299.6" type="line"/>
			<point x="1510.2" y="1340" type="line"/>
			<point x="996.2" y="1340" type="line"/>
			<point x="996.2" y="1299.6" type="line"/>
			<point x="1150.2" y="1245.6" type="line"/>
			<point x="1150.2" y="94.4" type="line"/>
			<point x="996.2" y="40.4" type="line"/>
			<point x="996.2" y="0" type="line"/>
			<point x="1510.2" y="0" type="line"/>
			<point x="1510.2" y="40.4" type="line"/>
		</contour>
		<contour>
			<point x="81" y="952" type="line"/>
			<point x="1510.2" y="952" type="line"/>
			<point x="1510.2" y="1053.2" type="line"/>
			<point x="81" y="1053.2" type="line"/>
		</contour>
		<contour>
			<point x="319.2" y="632" type="line"/>
			<point x="1272.2" y="632" type="line"/>
			<point x="1272.2" y="734.8" type="line"/>
			<point x="319.2" y="734.8" type="line"/>
		</contour>
	</outline>
</glyph>
<glyph name="hbar" format="2">
  <advance width="1096.2"/>
  <unicode hex="0127"/>
  <outline>
    <contour>
      <point x="608.8" y="38.0" type="line"/>
      <point x="608.8" y="0.0" type="line"/>
      <point x="1080.2" y="0.0" type="line"/>
      <point x="1080.2" y="38.0" type="line"/>
      <point x="935.4" y="87.4" type="line"/>
      <point x="935.4" y="553.0" type="line" smooth="yes"/>
      <point x="935.4" y="777.0"/>
      <point x="856.4" y="878.0"/>
      <point x="690.8" y="878.0" type="curve" smooth="yes"/>
      <point x="553.2" y="878.0"/>
      <point x="450.8" y="829.0"/>
      <point x="301.2" y="667.0" type="curve"/>
      <point x="340.8" y="632.0" type="line"/>
      <point x="376.2" y="680.6"/>
      <point x="466.8" y="720.4"/>
      <point x="565.0" y="720.4" type="curve" smooth="yes"/>
      <point x="685.2" y="720.4"/>
      <point x="749.0" y="659.8"/>
      <point x="749.0" y="558.2" type="curve" smooth="yes"/>
      <point x="749.0" y="85.4" type="line"/>
    </contour>
    <contour>
      <point x="501.8" y="0.0" type="line"/>
      <point x="501.8" y="38.0" type="line"/>
      <point x="356.6" y="87.4" type="line"/>
      <point x="356.6" y="1244.4" type="line"/>
      <point x="369.0" y="1421.0" type="line"/>
      <point x="345.2" y="1421.0" type="line"/>
      <point x="17.0" y="1328.0" type="line"/>
      <point x="17.0" y="1300.6" type="line"/>
      <point x="95.0" y="1266.8"/>
      <point x="142.4" y="1235.0"/>
      <point x="170.2" y="1201.0" type="curve"/>
      <point x="170.2" y="87.4" type="line"/>
      <point x="27.4" y="38.0" type="line"/>
      <point x="27.4" y="0.0" type="line"/>
    </contour>
    <contour>
      <point x="-15.2" y="1023.6" type="line"/>
      <point x="619.2" y="1023.6" type="line"/>
      <point x="619.2" y="1123.2" type="line"/>
      <point x="-15.2" y="1123.2" type="line"/>
    </contour>
  </outline>
</glyph>
<glyph name="Iogonek" format="2">
	<unicode hex="012E"/>
	<advance width="673.6"/>
	<outline>
		<contour>
			<point x="593.8" y="40.4" type="line"/>
			<point x="439.8" y="94.4" type="line"/>
			<point x="439.8" y="1245.6" type="line"/>
			<point x="593.8" y="1299.6" type="line"/>
			<point x="593.8" y="1340" type="line"/>
			<point x="79.8" y="1340" type="line"/>
			<point x="79.8" y="1299.6" type="line"/>
			<point x="233.8" y="1245.6" type="line"/>
			<point x="233.8" y="94.4" type="line"/>
			<point x="79.8" y="40.4" type="line"/>
			<point x="79.8" y="0" type="line"/>
			<point x="593.8" y="0" type="line"/>
		</contour>
		<contour>
			<point x="322.2" y="-113.2" type="curve" smooth="yes"/>
			<point x="403.2" y="46" type="line"/>
			<point x="344" y="46" type="line"/>
			<point x="237" y="-109.4" type="line" smooth="yes"/>
			<point x="150.8" y="-230.8"/>
			<point x="132.2" y="-294.4"/>
			<point x="132.2" y="-361" type="curve" smooth="yes"/>
			<point x="132.2" y="-464.4"/>
			<point x="202.4" y="-530"/>
			<point x="306.2" y="-530" type="curve" smooth="yes"/>
			<point x="397" y="-530"/>
			<point x="470" y="-486"/>
			<point x="549.4" y="-373.6" type="curve"/>
			<point x="517.8" y="-340.2" type="line"/>
			<point x="454" y="-404.2"/>
			<point x="412" y="-421.6"/>
			<point x="369" y="-421.6" type="curve" smooth="yes"/>
			<point x="304" y="-421.6"/>
			<point x="259.2" y="-382.4"/>
			<point x="259.2" y="-313.4" type="curve" smooth="yes"/>
			<point x="259.2" y="-263.2"/>
			<point x="273" y="-206.4"/>
		</contour>
	</outline>
</glyph>
<glyph name="iogonek" format="2">
  <advance width="553"/>
  <unicode hex="012F"/>
  <outline>
    <contour>
      <point x="278.4" y="1155.4" type="curve" smooth="yes"/>
      <point x="357.8" y="1155.4"/>
      <point x="411.8" y="1213.2"/>
      <point x="411.8" y="1288.6" type="curve" smooth="yes"/>
      <point x="411.8" y="1363.4"/>
      <point x="357.8" y="1421.0"/>
      <point x="278.4" y="1421.0" type="curve" smooth="yes"/>
      <point x="199.4" y="1421.0"/>
      <point x="145.2" y="1363.4"/>
      <point x="145.2" y="1288.6" type="curve" smooth="yes"/>
      <point x="145.2" y="1213.2"/>
      <point x="199.4" y="1155.4"/>
    </contour>
    <contour>
      <point x="387.4" y="878.0" type="line"/>
      <point x="361.2" y="878.0" type="line"/>
      <point x="50.6" y="795.6" type="line"/>
      <point x="50.6" y="762.2" type="line"/>
      <point x="109.2" y="741.8"/>
      <point x="169.2" y="707.8"/>
      <point x="193.2" y="679.4" type="curve"/>
      <point x="193.2" y="87.4" type="line"/>
      <point x="50.4" y="38.0" type="line"/>
      <point x="50.4" y="0.0" type="line"/>
      <point x="524.8" y="0.0" type="line"/>
      <point x="524.8" y="38.0" type="line"/>
      <point x="379.6" y="87.4" type="line"/>
      <point x="379.6" y="701.8" type="line"/>
    </contour>
    <contour>
      <point x="270.2" y="-113.2" type="curve" smooth="yes"/>
      <point x="351.2" y="46.0" type="line"/>
      <point x="292.0" y="46.0" type="line"/>
      <point x="185.0" y="-109.4" type="line" smooth="yes"/>
      <point x="98.8" y="-230.8"/>
      <point x="80.2" y="-294.4"/>
      <point x="80.2" y="-361.0" type="curve" smooth="yes"/>
      <point x="80.2" y="-464.4"/>
      <point x="150.4" y="-530.0"/>
      <point x="254.2" y="-530.0" type="curve" smooth="yes"/>
      <point x="345.0" y="-530.0"/>
      <point x="418.0" y="-486.0"/>
      <point x="497.4" y="-373.6" type="curve"/>
      <point x="465.8" y="-340.2" type="line"/>
      <point x="402.0" y="-404.2"/>
      <point x="360.0" y="-421.6"/>
      <point x="317.0" y="-421.6" type="curve" smooth="yes"/>
      <point x="252.0" y="-421.6"/>
      <point x="207.2" y="-382.4"/>
      <point x="207.2" y="-313.4" type="curve" smooth="yes"/>
      <point x="207.2" y="-263.2"/>
      <point x="221.0" y="-206.4"/>
    </contour>
  </outline>
</glyph>
<glyph name="dotlessi" format="2">
	<unicode hex="0131"/>
	<advance width="553.4"/>
	<outline>
		<contour>
			<point x="387.4" y="878" type="line"/>
			<point x="361.2" y="878" type="line"/>
			<point x="50.6" y="795.6" type="line"/>
			<point x="50.6" y="762.2" type="line"/>
			<point x="109.2" y="741.8"/>
			<point x="169.2" y="707.8"/>
			<point x="193.2" y="679.4" type="curve"/>
			<point x="193.2" y="87.4" type="line"/>
			<point x="50.4" y="38" type="line"/>
			<point x="50.4" y="0" type="line"/>
			<point x="524.8" y="0" type="line"/>
			<point x="524.8" y="38" type="line"/>
			<point x="379.6" y="87.4" type="line"/>
			<point x="379.6" y="701.8" type="line"/>
		</contour>
	</outline>
	<anchor name="top" x="283.8" y="856"/>
	<anchor name="bottom" x="286.4" y="0"/>
	<anchor name="right" x="325.2" y="0"/>
</glyph>
<glyph name="kgreenlandic" format="2">
  <advance width="1086"/>
  <unicode hex="0138"/>
  <outline>
    <contour>
      <point x="472.0" y="409.0" type="line"/>
      <point x="755.8" y="80.0" type="line"/>
      <point x="648.8" y="38.0" type="line"/>
      <point x="648.8" y="0.0" type="line"/>
      <point x="1101.2" y="0.0" type="line"/>
      <point x="1101.2" y="38.0" type="line"/>
      <point x="982.2" y="86.6" type="line"/>
      <point x="614.2" y="518.6" type="line"/>
      <point x="564.6" y="447.2" type="line"/>
      <point x="890.4" y="772.6" type="line"/>
      <point x="1020.6" y="812.0" type="line"/>
      <point x="1020.6" y="856.0" type="line"/>
      <point x="641.2" y="856.0" type="line"/>
      <point x="641.2" y="812.0" type="line"/>
      <point x="768.0" y="773.2" type="line"/>
      <point x="508.0" y="497.0" type="line"/>
      <point x="330.0" y="497.0" type="line"/>
      <point x="330.0" y="409.0" type="line"/>
    </contour>
    <contour>
      <point x="386.0" y="878.0" type="line"/>
      <point x="359.8" y="878.0" type="line"/>
      <point x="49.2" y="795.6" type="line"/>
      <point x="49.2" y="762.2" type="line"/>
      <point x="107.8" y="741.8"/>
      <point x="167.8" y="707.8"/>
      <point x="191.8" y="679.4" type="curve"/>
      <point x="191.8" y="87.4" type="line"/>
      <point x="49.0" y="38.0" type="line"/>
      <point x="49.0" y="0.0" type="line"/>
      <point x="519.4" y="0.0" type="line"/>
      <point x="519.4" y="38.0" type="line"/>
      <point x="378.2" y="86.4" type="line"/>
      <point x="378.2" y="701.8" type="line"/>
    </contour>
  </outline>
</glyph>
<glyph name="eng" format="2">
	<unicode hex="014B"/>
	<advance width="1078"/>
	<outline>
		<contour>
			<point x="378.2" y="689" type="line"/>
			<point x="341.4" y="878" type="line"/>
			<point x="316.8" y="878" type="line"/>
			<point x="49" y="771.6" type="line"/>
			<point x="49" y="743" type="line"/>
			<point x="131.4" y="714.8"/>
			<point x="167" y="694"/>
			<point x="191.8" y="665.8" type="curve"/>
			<point x="191.8" y="87.4" type="line"/>
			<point x="49" y="38" type="line"/>
			<point x="49" y="0" type="line"/>
			<point x="518.4" y="0" type="line"/>
			<point x="518.4" y="38" type="line"/>
			<point x="378.2" y="85.4" type="line"/>
		</contour>
		<contour>
			<point x="770.6" y="-142.8" type="line" smooth="yes"/>
			<point x="770.6" y="-268.4"/>
			<point x="751.6" y="-317.8"/>
			<point x="599.4" y="-477" type="curve"/>
			<point x="646.2" y="-530" type="line"/>
			<point x="931.2" y="-313.4"/>
			<point x="957" y="-277"/>
			<point x="957" y="-75.2" type="curve" smooth="yes"/>
			<point x="957" y="553" type="line" smooth="yes"/>
			<point x="957" y="777"/>
			<point x="878" y="878"/>
			<point x="712.4" y="878" type="curve" smooth="yes"/>
			<point x="574.8" y="878"/>
			<point x="472.4" y="829"/>
			<point x="322.8" y="667" type="curve"/>
			<point x="362.4" y="632" type="line"/>
			<point x="397.8" y="680.6"/>
			<point x="488.4" y="720.4"/>
			<point x="586.6" y="720.4" type="curve" smooth="yes"/>
			<point x="706.8" y="720.4"/>
			<point x="770.6" y="659.8"/>
			<point x="770.6" y="558.2" type="curve" smooth="yes"/>
		</contour>
	</outline>
</glyph>
<glyph name="OE" format="2">
  <advance width="2082.6"/>
  <unicode hex="0152"/>
  <outline>
    <contour>
      <point x="1726.4" y="965.0" type="line"/>
      <point x="1645.0" y="965.0" type="line"/>
      <point x="1623.0" y="754.4" type="line"/>
      <point x="1141.4" y="754.4" type="line"/>
      <point x="1141.4" y="651.6" type="line"/>
      <point x="1623.0" y="651.6" type="line"/>
      <point x="1645.0" y="441.0" type="line"/>
      <point x="1726.4" y="441.0" type="line"/>
      <point x="1726.4" y="703.0" type="line"/>
    </contour>
    <contour>
      <point x="1053.8" y="1340.0" type="line"/>
      <point x="1053.8" y="0.0" type="line"/>
      <point x="1259.8" y="0.0" type="line"/>
      <point x="1259.8" y="1340.0" type="line"/>
    </contour>
    <contour>
      <point x="878.2" y="0.0" type="curve" smooth="yes"/>
      <point x="1800.4" y="0.0" type="line"/>
      <point x="1921.4" y="-63.4" type="line"/>
      <point x="1942.8" y="-63.4" type="line"/>
      <point x="2018.6" y="384.8" type="line"/>
      <point x="1974.6" y="396.4" type="line"/>
      <point x="1778.0" y="70.8" type="line"/>
      <point x="1828.4" y="102.8" type="line"/>
      <point x="926.8" y="102.8" type="line" smooth="yes"/>
      <point x="557.6" y="102.8"/>
      <point x="309.4" y="278.0"/>
      <point x="309.4" y="653.0" type="curve" smooth="yes"/>
      <point x="309.4" y="1066.0"/>
      <point x="561.4" y="1237.2"/>
      <point x="906.2" y="1237.2" type="curve" smooth="yes"/>
      <point x="1818.4" y="1237.2" type="line"/>
      <point x="1755.0" y="1266.0" type="line"/>
      <point x="1936.0" y="948.2" type="line"/>
      <point x="1986.2" y="958.6" type="line"/>
      <point x="1916.4" y="1394.4" type="line"/>
      <point x="1896.0" y="1394.4" type="line"/>
      <point x="1780.6" y="1340.0" type="line"/>
      <point x="876.2" y="1340.0" type="line" smooth="yes"/>
      <point x="440.2" y="1340.0"/>
      <point x="89.2" y="1098.8"/>
      <point x="89.2" y="648.8" type="curve" smooth="yes"/>
      <point x="89.2" y="224.8"/>
      <point x="362.2" y="0.0"/>
    </contour>
  </outline>
</glyph>
<glyph name="Scedilla" format="2">
	<unicode hex="015E"/>
	<advance width="1094.2"/>
	<outline>
		<contour>
			<point x="897.2" y="1280" type="line"/>
			<point x="789.8" y="1337"/>
			<point x="691" y="1362"/>
			<point x="569.2" y="1362" type="curve" smooth="yes"/>
			<point x="293.6" y="1362"/>
			<point x="120.2" y="1218.4"/>
			<point x="120.2" y="993.2" type="curve" smooth="yes"/>
			<point x="120.2" y="774.6"/>
			<point x="264.2" y="693.8"/>
			<point x="438.8" y="628" type="curve" smooth="yes"/>
			<point x="613.4" y="562.2"/>
			<point x="822" y="518.4"/>
			<point x="822" y="321.4" type="curve" smooth="yes"/>
			<point x="822" y="156.6"/>
			<point x="700" y="76"/>
			<point x="482.2" y="76" type="curve" smooth="yes"/>
			<point x="388" y="76"/>
			<point x="314" y="100"/>
			<point x="209.6" y="155.8" type="curve"/>
			<point x="395" y="39" type="line"/>
			<point x="139.6" y="396.6" type="line"/>
			<point x="80" y="396.6" type="line"/>
			<point x="167" y="38" type="line"/>
			<point x="280" y="-6.4"/>
			<point x="375" y="-22"/>
			<point x="507.8" y="-22" type="curve" smooth="yes"/>
			<point x="796.4" y="-22"/>
			<point x="1004.2" y="122.4"/>
			<point x="1004.2" y="390" type="curve" smooth="yes"/>
			<point x="1004.2" y="640"/>
			<point x="807.2" y="717.8"/>
			<point x="629.2" y="780.4" type="curve" smooth="yes"/>
			<point x="451.2" y="843"/>
			<point x="287" y="893.2"/>
			<point x="287" y="1061.6" type="curve" smooth="yes"/>
			<point x="287" y="1186.8"/>
			<point x="377.8" y="1269.6"/>
			<point x="547.6" y="1269.6" type="curve" smooth="yes"/>
			<point x="630.6" y="1269.6"/>
			<point x="701.4" y="1248.2"/>
			<point x="771.2" y="1199" type="curve"/>
			<point x="725.6" y="1255" type="line"/>
			<point x="911.6" y="942.4" type="line"/>
			<point x="961.4" y="952.4" type="line"/>
			<point x="894.2" y="1402" type="line"/>
			<point x="871.4" y="1402" type="line"/>
			<point x="747.8" y="1315.2" type="line"/>
		</contour>
		<contour>
			<point x="449.2" y="-530" type="curve" smooth="yes"/>
			<point x="587.2" y="-530"/>
			<point x="708.4" y="-434"/>
			<point x="708.4" y="-307" type="curve" smooth="yes"/>
			<point x="708.4" y="-222.2"/>
			<point x="651.2" y="-154"/>
			<point x="459.8" y="-119.6" type="curve"/>
			<point x="460.4" y="-221" type="line"/>
			<point x="654.2" y="49.8" type="line"/>
			<point x="572.8" y="49.8" type="line"/>
			<point x="372.2" y="-216.6" type="line"/>
			<point x="372.2" y="-233.2" type="line"/>
			<point x="550.6" y="-258.2"/>
			<point x="605" y="-295"/>
			<point x="605" y="-362.8" type="curve" smooth="yes"/>
			<point x="605" y="-419.8"/>
			<point x="562.6" y="-456"/>
			<point x="503.2" y="-456" type="curve" smooth="yes"/>
			<point x="434.8" y="-456"/>
			<point x="422" y="-390.6"/>
			<point x="364.2" y="-390.6" type="curve" smooth="yes"/>
			<point x="331.2" y="-390.6"/>
			<point x="309.4" y="-412"/>
			<point x="309.4" y="-443.8" type="curve" smooth="yes"/>
			<point x="309.4" y="-488.2"/>
			<point x="351.2" y="-530"/>
		</contour>
	</outline>
</glyph>
<glyph name="scedilla" format="2">
	<unicode hex="015F"/>
	<advance width="732.2"/>
	<outline>
		<contour>
			<point x="393.2" y="878" type="curve" smooth="yes"/>
			<point x="226.2" y="878"/>
			<point x="93.4" y="787.8"/>
			<point x="93.4" y="631" type="curve" smooth="yes"/>
			<point x="93.4" y="493"/>
			<point x="167.4" y="423"/>
			<point x="281" y="373.8" type="curve" smooth="yes"/>
			<point x="394.6" y="324.4"/>
			<point x="497.4" y="293.4"/>
			<point x="497.4" y="192.8" type="curve" smooth="yes"/>
			<point x="497.4" y="97.4"/>
			<point x="419" y="49.6"/>
			<point x="296.6" y="49.6" type="curve" smooth="yes"/>
			<point x="248.4" y="49.6"/>
			<point x="208.4" y="54.6"/>
			<point x="134.6" y="89" type="curve"/>
			<point x="261.8" y="9.8" type="line"/>
			<point x="124" y="261.6" type="line"/>
			<point x="72.6" y="261.6" type="line"/>
			<point x="112.6" y="17.4" type="line"/>
			<point x="176.6" y="-10.4"/>
			<point x="242.6" y="-22"/>
			<point x="325.4" y="-22" type="curve" smooth="yes"/>
			<point x="513.6" y="-22"/>
			<point x="655.4" y="70.2"/>
			<point x="655.4" y="245.4" type="curve" smooth="yes"/>
			<point x="655.4" y="399.4"/>
			<point x="553.8" y="466.8"/>
			<point x="436" y="514.4" type="curve" smooth="yes"/>
			<point x="318.2" y="562"/>
			<point x="240.2" y="596.6"/>
			<point x="240.2" y="685.8" type="curve" smooth="yes"/>
			<point x="240.2" y="759.4"/>
			<point x="299.6" y="803.2"/>
			<point x="398.8" y="803.2" type="curve" smooth="yes"/>
			<point x="451" y="803.2"/>
			<point x="494.4" y="785.2"/>
			<point x="544.4" y="748.4" type="curve"/>
			<point x="472.6" y="832" type="line"/>
			<point x="577.6" y="590" type="line"/>
			<point x="627.6" y="590" type="line"/>
			<point x="614.2" y="826.8" type="line"/>
			<point x="534" y="864"/>
			<point x="476.6" y="878"/>
		</contour>
		<contour>
			<point x="273.6" y="-530" type="curve" smooth="yes"/>
			<point x="411.6" y="-530"/>
			<point x="532.8" y="-434"/>
			<point x="532.8" y="-307" type="curve" smooth="yes"/>
			<point x="532.8" y="-222.2"/>
			<point x="475.6" y="-154"/>
			<point x="284.2" y="-119.6" type="curve"/>
			<point x="284.8" y="-221" type="line"/>
			<point x="478.6" y="49.8" type="line"/>
			<point x="397.2" y="49.8" type="line"/>
			<point x="196.6" y="-216.6" type="line"/>
			<point x="196.6" y="-233.2" type="line"/>
			<point x="375" y="-258.2"/>
			<point x="429.4" y="-295"/>
			<point x="429.4" y="-362.8" type="curve" smooth="yes"/>
			<point x="429.4" y="-419.8"/>
			<point x="387" y="-456"/>
			<point x="327.6" y="-456" type="curve" smooth="yes"/>
			<point x="259.2" y="-456"/>
			<point x="246.4" y="-390.6"/>
			<point x="188.6" y="-390.6" type="curve" smooth="yes"/>
			<point x="155.6" y="-390.6"/>
			<point x="133.8" y="-412"/>
			<point x="133.8" y="-443.8" type="curve" smooth="yes"/>
			<point x="133.8" y="-488.2"/>
			<point x="175.6" y="-530"/>
		</contour>
	</outline>
</glyph>
<glyph name="uni0162" format="2">
	<unicode hex="0162"/>
	<advance width="1324"/>
	<outline>
		<contour>
			<point x="557.4" y="1277.6" type="line"/>
			<point x="557.4" y="94.4" type="line"/>
			<point x="403.4" y="40.4" type="line"/>
			<point x="403.4" y="0" type="line"/>
			<point x="917.4" y="0" type="line"/>
			<point x="917.4" y="40.4" type="line"/>
			<point x="763.4" y="94.4" type="line"/>
			<point x="763.4" y="1277.6" type="line"/>
		</contour>
		<contour>
			<point x="1177.4" y="1237.2" type="line"/>
			<point x="1086" y="1260.8" type="line"/>
			<point x="1233.2" y="966" type="line"/>
			<point x="1284.4" y="976.2" type="line"/>
			<point x="1243.6" y="1409.4" type="line"/>
			<point x="1220" y="1409.4" type="line"/>
			<point x="1069.8" y="1321.6" type="line"/>
			<point x="1154.4" y="1340" type="line"/>
			<point x="158.4" y="1340" type="line"/>
			<point x="254.2" y="1321.6" type="line"/>
			<point x="104" y="1409.4" type="line"/>
			<point x="80.4" y="1409.4" type="line"/>
			<point x="39.6" y="976.2" type="line"/>
			<point x="90.8" y="966" type="line"/>
			<point x="238" y="1260.8" type="line"/>
			<point x="135.4" y="1237.2" type="line"/>
		</contour>
		<contour>
			<point x="561" y="-530" type="curve" smooth="yes"/>
			<point x="699" y="-530"/>
			<point x="820.2" y="-434"/>
			<point x="820.2" y="-307" type="curve" smooth="yes"/>
			<point x="820.2" y="-222.2"/>
			<point x="763" y="-154"/>
			<point x="571.6" y="-119.6" type="curve"/>
			<point x="572.2" y="-221" type="line"/>
			<point x="766" y="49.8" type="line"/>
			<point x="684.6" y="49.8" type="line"/>
			<point x="484" y="-216.6" type="line"/>
			<point x="484" y="-233.2" type="line"/>
			<point x="662.4" y="-258.2"/>
			<point x="716.8" y="-295"/>
			<point x="716.8" y="-362.8" type="curve" smooth="yes"/>
			<point x="716.8" y="-419.8"/>
			<point x="674.4" y="-456"/>
			<point x="615" y="-456" type="curve" smooth="yes"/>
			<point x="546.6" y="-456"/>
			<point x="533.8" y="-390.6"/>
			<point x="476" y="-390.6" type="curve" smooth="yes"/>
			<point x="443" y="-390.6"/>
			<point x="421.2" y="-412"/>
			<point x="421.2" y="-443.8" type="curve" smooth="yes"/>
			<point x="421.2" y="-488.2"/>
			<point x="463" y="-530"/>
		</contour>
	</outline>
</glyph>
<glyph name="uni0163" format="2">
  <advance width="677"/>
  <unicode hex="0163"/>
  <outline>
    <contour>
      <point x="342.2" y="248.2" type="curve" smooth="yes"/>
      <point x="342.2" y="828.0" type="line"/>
      <point x="342.2" y="1003.0" type="line"/>
      <point x="299.6" y="1003.0" type="line"/>
      <point x="215.2" y="939.2"/>
      <point x="121.0" y="873.0"/>
      <point x="40.8" y="816.0" type="curve"/>
      <point x="40.8" y="790.8" type="line"/>
      <point x="156.0" y="708.0" type="line"/>
      <point x="156.0" y="212.0" type="line" smooth="yes"/>
      <point x="156.0" y="57.8"/>
      <point x="250.2" y="-18.8"/>
      <point x="393.4" y="-18.8" type="curve" smooth="yes"/>
      <point x="464.8" y="-18.8"/>
      <point x="544.0" y="9.4"/>
      <point x="666.4" y="99.4" type="curve"/>
      <point x="666.4" y="150.2" type="line"/>
      <point x="600.8" y="129.8"/>
      <point x="544.4" y="120.2"/>
      <point x="497.4" y="120.2" type="curve" smooth="yes"/>
      <point x="398.0" y="120.2"/>
      <point x="342.2" y="163.6"/>
    </contour>
    <contour>
      <point x="267.8" y="752.4" type="line"/>
      <point x="618.2" y="752.4" type="line"/>
      <point x="635.4" y="856.0" type="line"/>
      <point x="267.8" y="856.0" type="line"/>
    </contour>
    <contour>
      <point x="288.6" y="-530.0" type="curve" smooth="yes"/>
      <point x="426.6" y="-530.0"/>
      <point x="547.8" y="-434.0"/>
      <point x="547.8" y="-307.0" type="curve" smooth="yes"/>
      <point x="547.8" y="-222.2"/>
      <point x="490.6" y="-154.0"/>
      <point x="299.2" y="-119.6" type="curve"/>
      <point x="299.8" y="-221.0" type="line"/>
      <point x="493.6" y="49.8" type="line"/>
      <point x="412.2" y="49.8" type="line"/>
      <point x="211.6" y="-216.6" type="line"/>
      <point x="211.6" y="-233.2" type="line"/>
      <point x="390.0" y="-258.2"/>
      <point x="444.4" y="-295.0"/>
      <point x="444.4" y="-362.8" type="curve" smooth="yes"/>
      <point x="444.4" y="-419.8"/>
      <point x="402.0" y="-456.0"/>
      <point x="342.6" y="-456.0" type="curve" smooth="yes"/>
      <point x="274.2" y="-456.0"/>
      <point x="261.4" y="-390.6"/>
      <point x="203.6" y="-390.6" type="curve" smooth="yes"/>
      <point x="170.6" y="-390.6"/>
      <point x="148.8" y="-412.0"/>
      <point x="148.8" y="-443.8" type="curve" smooth="yes"/>
      <point x="148.8" y="-488.2"/>
      <point x="190.6" y="-530.0"/>
    </contour>
  </outline>
</glyph>
<glyph name="tbar" format="2">
	<unicode hex="0167"/>
	<advance width="687.8"/>
	<outline>
		<contour>
			<point x="31.4" y="412" type="line"/>
			<point x="589.8" y="412" type="line"/>
			<point x="589.8" y="511.6" type="line"/>
			<point x="31.4" y="511.6" type="line"/>
		</contour>
		<contour>
			<point x="351" y="248.2" type="curve" smooth="yes"/>
			<point x="351" y="828" type="line"/>
			<point x="351" y="1003" type="line"/>
			<point x="308.4" y="1003" type="line"/>
			<point x="224" y="939.2"/>
			<point x="129.8" y="873"/>
			<point x="49.6" y="816" type="curve"/>
			<point x="49.6" y="790.8" type="line"/>
			<point x="164.8" y="708" type="line"/>
			<point x="164.8" y="212" type="line" smooth="yes"/>
			<point x="164.8" y="57.8"/>
			<point x="259" y="-18.8"/>
			<point x="402.2" y="-18.8" type="curve" smooth="yes"/>
			<point x="473.6" y="-18.8"/>
			<point x="552.8" y="9.4"/>
			<point x="675.2" y="99.4" type="curve"/>
			<point x="675.2" y="150.2" type="line"/>
			<point x="609.6" y="129.8"/>
			<point x="553.2" y="120.2"/>
			<point x="506.2" y="120.2" type="curve" smooth="yes"/>
			<point x="406.8" y="120.2"/>
			<point x="351" y="163.6"/>
		</contour>
		<contour>
			<point x="276.6" y="752.4" type="line"/>
			<point x="627" y="752.4" type="line"/>
			<point x="644.2" y="856" type="line"/>
			<point x="276.6" y="856" type="line"/>
		</contour>
	</outline>
</glyph>
<glyph name="Uogonek" format="2">
	<unicode hex="0172"/>
	<advance width="1511.6"/>
	<outline>
		<contour>
			<point x="1204.4" y="502.6" type="line" smooth="yes"/>
			<point x="1204.4" y="258"/>
			<point x="1061.8" y="122.4"/>
			<point x="805.6" y="122.4" type="curve" smooth="yes"/>
			<point x="540.8" y="122.4"/>
			<point x="408.8" y="258.8"/>
			<point x="408.8" y="537.4" type="curve" smooth="yes"/>
			<point x="408.8" y="1245.6" type="line"/>
			<point x="562.8" y="1299.6" type="line"/>
			<point x="562.8" y="1340" type="line"/>
			<point x="48.8" y="1340" type="line"/>
			<point x="48.8" y="1299.6" type="line"/>
			<point x="202.8" y="1245.6" type="line"/>
			<point x="202.8" y="543.8" type="line" smooth="yes"/>
			<point x="202.8" y="170"/>
			<point x="402.6" y="-22"/>
			<point x="768" y="-22" type="curve" smooth="yes"/>
			<point x="1113.8" y="-22"/>
			<point x="1307.2" y="170.8"/>
			<point x="1307.2" y="518.6" type="curve" smooth="yes"/>
			<point x="1307.2" y="1245.6" type="line"/>
			<point x="1461.2" y="1299.6" type="line"/>
			<point x="1461.2" y="1340" type="line"/>
			<point x="1047" y="1340" type="line"/>
			<point x="1047" y="1299.6" type="line"/>
			<point x="1204.4" y="1245.6" type="line"/>
		</contour>
		<contour>
			<point x="815" y="-113.2" type="curve" smooth="yes"/>
			<point x="896" y="46" type="line"/>
			<point x="836.8" y="46" type="line"/>
			<point x="729.8" y="-109.4" type="line" smooth="yes"/>
			<point x="643.6" y="-230.8"/>
			<point x="625" y="-294.4"/>
			<point x="625" y="-361" type="curve" smooth="yes"/>
			<point x="625" y="-464.4"/>
			<point x="695.2" y="-530"/>
			<point x="799" y="-530" type="curve" smooth="yes"/>
			<point x="889.8" y="-530"/>
			<point x="962.8" y="-486"/>
			<point x="1042.2" y="-373.6" type="curve"/>
			<point x="1010.6" y="-340.2" type="line"/>
			<point x="946.8" y="-404.2"/>
			<point x="904.8" y="-421.6"/>
			<point x="861.8" y="-421.6" type="curve" smooth="yes"/>
			<point x="796.8" y="-421.6"/>
			<point x="752" y="-382.4"/>
			<point x="752" y="-313.4" type="curve" smooth="yes"/>
			<point x="752" y="-263.2"/>
			<point x="765.8" y="-206.4"/>
		</contour>
	</outline>
</glyph>
<glyph name="uogonek" format="2">
	<unicode hex="0173"/>
	<advance width="1053.2"/>
	<outline>
		<contour>
			<point x="347.4" y="286.6" type="curve" smooth="yes"/>
			<point x="347.4" y="753.8" type="line"/>
			<point x="357.6" y="872" type="line"/>
			<point x="24" y="852" type="line"/>
			<point x="24" y="809.6" type="line"/>
			<point x="161.2" y="748.6" type="line"/>
			<point x="161.2" y="287.4" type="line" smooth="yes"/>
			<point x="161.2" y="80.8"/>
			<point x="237.2" y="-22"/>
			<point x="400.8" y="-22" type="curve" smooth="yes"/>
			<point x="529.8" y="-22"/>
			<point x="618.8" y="23.6"/>
			<point x="761.6" y="177.2" type="curve"/>
			<point x="723" y="217.6" type="line"/>
			<point x="688.4" y="170.2"/>
			<point x="601.6" y="136.4"/>
			<point x="517" y="136.4" type="curve" smooth="yes"/>
			<point x="387.6" y="136.4"/>
			<point x="347.4" y="174.2"/>
		</contour>
		<contour>
			<point x="719.6" y="-16.8" type="line"/>
			<point x="743.4" y="-16.8" type="line"/>
			<point x="1017.4" y="49.6" type="line"/>
			<point x="1017.4" y="82.2" type="line"/>
			<point x="972.2" y="91.8"/>
			<point x="915.8" y="120.2"/>
			<point x="889.6" y="148.6" type="curve"/>
			<point x="889.6" y="751.8" type="line"/>
			<point x="901.4" y="872" type="line"/>
			<point x="571" y="852" type="line"/>
			<point x="571" y="809.6" type="line"/>
			<point x="702.4" y="750.6" type="line"/>
			<point x="702.4" y="171.4" type="line"/>
		</contour>
		<contour>
			<point x="725.2" y="-113.2" type="curve" smooth="yes"/>
			<point x="806.2" y="46" type="line"/>
			<point x="747" y="46" type="line"/>
			<point x="640" y="-109.4" type="line" smooth="yes"/>
			<point x="553.8" y="-230.8"/>
			<point x="535.2" y="-294.4"/>
			<point x="535.2" y="-361" type="curve" smooth="yes"/>
			<point x="535.2" y="-464.4"/>
			<point x="605.4" y="-530"/>
			<point x="709.2" y="-530" type="curve" smooth="yes"/>
			<point x="800" y="-530"/>
			<point x="873" y="-486"/>
			<point x="952.4" y="-373.6" type="curve"/>
			<point x="920.8" y="-340.2" type="line"/>
			<point x="857" y="-404.2"/>
			<point x="815" y="-421.6"/>
			<point x="772" y="-421.6" type="curve" smooth="yes"/>
			<point x="707" y="-421.6"/>
			<point x="662.2" y="-382.4"/>
			<point x="662.2" y="-313.4" type="curve" smooth="yes"/>
			<point x="662.2" y="-263.2"/>
			<point x="676" y="-206.4"/>
		</contour>
	</outline>
</glyph>
<glyph name="uni018F" format="2">
  <advance width="1372"/>
  <unicode hex="018F"/>
  <outline>
    <contour>
      <point x="244.4" y="458.8" type="line"/>
      <point x="1171.8" y="458.8" type="line"/>
      <point x="1174.2" y="561.6" type="line"/>
      <point x="77.2" y="561.6" type="line"/>
      <point x="109.8" y="190.6"/>
      <point x="304.0" y="-22.0"/>
      <point x="637.6" y="-22.0" type="curve" smooth="yes"/>
      <point x="1039.0" y="-22.0"/>
      <point x="1282.6" y="300.4"/>
      <point x="1282.6" y="687.0" type="curve" smooth="yes"/>
      <point x="1282.6" y="1075.4"/>
      <point x="1052.4" y="1362.0"/>
      <point x="668.2" y="1362.0" type="curve" smooth="yes"/>
      <point x="450.0" y="1362.0"/>
      <point x="290.8" y="1282.8"/>
      <point x="85.8" y="1106.4" type="curve"/>
      <point x="135.8" y="1041.0" type="line"/>
      <point x="271.2" y="1142.6"/>
      <point x="420.0" y="1199.2"/>
      <point x="612.4" y="1199.2" type="curve" smooth="yes"/>
      <point x="898.2" y="1199.2"/>
      <point x="1076.0" y="992.2"/>
      <point x="1076.0" y="618.0" type="curve" smooth="yes"/>
      <point x="1076.0" y="257.0"/>
      <point x="895.6" y="81.2"/>
      <point x="659.2" y="81.2" type="curve" smooth="yes"/>
      <point x="446.8" y="81.2"/>
      <point x="326.8" y="218.6"/>
      <point x="307.6" y="485.0" type="curve"/>
    </contour>
  </outline>
</glyph>
<glyph name="Ohorn" format="2">
	<unicode hex="01A0"/>
	<advance width="1538"/>
	<outline>
		<contour>
			<point x="776.6" y="82.4" type="curve" smooth="yes"/>
			<point x="503.2" y="82.4"/>
			<point x="308" y="305.6"/>
			<point x="308" y="708.6" type="curve" smooth="yes"/>
			<point x="308" y="1054"/>
			<point x="484.2" y="1257.6"/>
			<point x="758.8" y="1257.6" type="curve" smooth="yes"/>
			<point x="1032.2" y="1257.6"/>
			<point x="1227.4" y="1034.4"/>
			<point x="1227.4" y="631.4" type="curve" smooth="yes"/>
			<point x="1227.4" y="286"/>
			<point x="1051.2" y="82.4"/>
		</contour>
		<contour>
			<point x="770.8" y="1362" type="curve" smooth="yes"/>
			<point x="372.6" y="1362"/>
			<point x="88" y="1075.8"/>
			<point x="88" y="668" type="curve" smooth="yes"/>
			<point x="88" y="259.8"/>
			<point x="367.4" y="-22"/>
			<point x="764.6" y="-22" type="curve" smooth="yes"/>
			<point x="1162.8" y="-22"/>
			<point x="1447.4" y="264.2"/>
			<point x="1447.4" y="672" type="curve" smooth="yes"/>
			<point x="1447.4" y="936.6"/>
			<point x="1328" y="1153.2"/>
			<point x="1128.8" y="1268.2" type="curve"/>
			<point x="1128.8" y="1250.8" type="line"/>
			<point x="1332" y="1238.8"/>
			<point x="1418.2" y="1326.4"/>
			<point x="1418.2" y="1464" type="curve" smooth="yes"/>
			<point x="1418.2" y="1537.6"/>
			<point x="1377.6" y="1585.2"/>
			<point x="1311.2" y="1585.2" type="curve" smooth="yes"/>
			<point x="1263.8" y="1585.2"/>
			<point x="1226" y="1554.4"/>
			<point x="1225.8" y="1514.8" type="curve" smooth="yes"/>
			<point x="1225.6" y="1482.6"/>
			<point x="1252.2" y="1456.8"/>
			<point x="1252.2" y="1403.4" type="curve" smooth="yes"/>
			<point x="1252.2" y="1359.4"/>
			<point x="1217.6" y="1331.6"/>
			<point x="1111.6" y="1331.6" type="curve" smooth="yes"/>
			<point x="994" y="1331.6"/>
			<point x="887.2" y="1362"/>
		</contour>
	</outline>
	<anchor name="UCtop" x="767.4" y="1340"/>
	<anchor name="bottom" x="767.4" y="0"/>
</glyph>
<glyph name="Uhorn" format="2">
	<unicode hex="01AF"/>
	<advance width="1523"/>
	<outline>
		<contour>
			<point x="1471.6" y="1403.4" type="curve" smooth="yes"/>
			<point x="1471.6" y="1363.8"/>
			<point x="1448" y="1340"/>
			<point x="1338" y="1340" type="curve" smooth="yes"/>
			<point x="1047" y="1340" type="line"/>
			<point x="1047" y="1299.6" type="line"/>
			<point x="1204.4" y="1245.6" type="line"/>
			<point x="1204.4" y="502.6" type="line" smooth="yes"/>
			<point x="1204.4" y="258"/>
			<point x="1061.8" y="122.4"/>
			<point x="805.6" y="122.4" type="curve" smooth="yes"/>
			<point x="540.8" y="122.4"/>
			<point x="408.8" y="258.8"/>
			<point x="408.8" y="537.4" type="curve" smooth="yes"/>
			<point x="408.8" y="1245.6" type="line"/>
			<point x="562.8" y="1299.6" type="line"/>
			<point x="562.8" y="1340" type="line"/>
			<point x="48.8" y="1340" type="line"/>
			<point x="48.8" y="1299.6" type="line"/>
			<point x="202.8" y="1245.6" type="line"/>
			<point x="202.8" y="543.8" type="line" smooth="yes"/>
			<point x="202.8" y="170"/>
			<point x="402.6" y="-22"/>
			<point x="768" y="-22" type="curve" smooth="yes"/>
			<point x="1113.8" y="-22"/>
			<point x="1307.2" y="170.8"/>
			<point x="1307.2" y="518.6" type="curve" smooth="yes"/>
			<point x="1307.2" y="1250.4" type="line"/>
			<point x="1551.2" y="1257.8"/>
			<point x="1637.6" y="1340"/>
			<point x="1637.6" y="1464" type="curve" smooth="yes"/>
			<point x="1637.6" y="1537.6"/>
			<point x="1597" y="1585.2"/>
			<point x="1530.6" y="1585.2" type="curve" smooth="yes"/>
			<point x="1483.2" y="1585.2"/>
			<point x="1445.4" y="1554.4"/>
			<point x="1445.2" y="1514.8" type="curve" smooth="yes"/>
			<point x="1445" y="1474.6"/>
			<point x="1471.6" y="1456.8"/>
		</contour>
	</outline>
	<anchor name="UCtop" x="793.4" y="1340"/>
	<anchor name="bottom" x="793.4" y="0"/>
</glyph>
<glyph name="uhorn" format="2">
	<unicode hex="01B0"/>
	<advance width="1082.4"/>
	<outline>
		<contour>
			<point x="347.4" y="286.6" type="curve" smooth="yes"/>
			<point x="347.4" y="753.8" type="line"/>
			<point x="357.6" y="872" type="line"/>
			<point x="24" y="852" type="line"/>
			<point x="24" y="809.6" type="line"/>
			<point x="161.2" y="748.6" type="line"/>
			<point x="161.2" y="287.4" type="line" smooth="yes"/>
			<point x="161.2" y="80.8"/>
			<point x="237.2" y="-22"/>
			<point x="400.8" y="-22" type="curve" smooth="yes"/>
			<point x="529.8" y="-22"/>
			<point x="618.8" y="23.6"/>
			<point x="761.6" y="177.2" type="curve"/>
			<point x="723" y="217.6" type="line"/>
			<point x="688.4" y="170.2"/>
			<point x="601.6" y="136.4"/>
			<point x="517" y="136.4" type="curve" smooth="yes"/>
			<point x="387.6" y="136.4"/>
			<point x="347.4" y="174.2"/>
		</contour>
		<contour>
			<point x="966.2" y="922.4" type="curve" smooth="yes"/>
			<point x="966.2" y="888"/>
			<point x="944.6" y="865.6"/>
			<point x="802.6" y="862" type="curve" smooth="yes"/>
			<point x="571" y="852" type="line"/>
			<point x="571" y="809.6" type="line"/>
			<point x="702.4" y="750.6" type="line"/>
			<point x="702.4" y="171.4" type="line"/>
			<point x="719.6" y="-16.8" type="line"/>
			<point x="743.4" y="-16.8" type="line"/>
			<point x="1017.4" y="49.6" type="line"/>
			<point x="1017.4" y="82.2" type="line"/>
			<point x="972.2" y="91.8"/>
			<point x="915.8" y="120.2"/>
			<point x="889.6" y="148.6" type="curve"/>
			<point x="889.6" y="751.8" type="line"/>
			<point x="894.2" y="792.8" type="line"/>
			<point x="1060.8" y="810.4"/>
			<point x="1131.6" y="873"/>
			<point x="1131.6" y="980" type="curve" smooth="yes"/>
			<point x="1131.6" y="1053.6"/>
			<point x="1091" y="1101.2"/>
			<point x="1024.6" y="1101.2" type="curve" smooth="yes"/>
			<point x="977.2" y="1101.2"/>
			<point x="939.4" y="1070.4"/>
			<point x="939.2" y="1030.8" type="curve" smooth="yes"/>
			<point x="939" y="990.6"/>
			<point x="966.2" y="975.8"/>
		</contour>
	</outline>
	<anchor name="top" x="508" y="856"/>
	<anchor name="bottom" x="529.6" y="0"/>
</glyph>
<glyph name="uni01EA" format="2">
	<unicode hex="01EA"/>
	<advance width="1535.4"/>
	<outline>
		<contour>
			<point x="770.8" y="1362" type="curve" smooth="yes"/>
			<point x="372.6" y="1362"/>
			<point x="88" y="1075.8"/>
			<point x="88" y="668" type="curve" smooth="yes"/>
			<point x="88" y="259.8"/>
			<point x="367.4" y="-22"/>
			<point x="764.6" y="-22" type="curve" smooth="yes"/>
			<point x="1162.8" y="-22"/>
			<point x="1447.4" y="264.2"/>
			<point x="1447.4" y="672" type="curve" smooth="yes"/>
			<point x="1447.4" y="1080.2"/>
			<point x="1168" y="1362"/>
		</contour>
		<contour>
			<point x="776.6" y="82.4" type="curve" smooth="yes"/>
			<point x="503.2" y="82.4"/>
			<point x="308" y="305.6"/>
			<point x="308" y="708.6" type="curve" smooth="yes"/>
			<point x="308" y="1054"/>
			<point x="484.2" y="1257.6"/>
			<point x="758.8" y="1257.6" type="curve" smooth="yes"/>
			<point x="1032.2" y="1257.6"/>
			<point x="1227.4" y="1034.4"/>
			<point x="1227.4" y="631.4" type="curve" smooth="yes"/>
			<point x="1227.4" y="286"/>
			<point x="1051.2" y="82.4"/>
		</contour>
		<contour>
			<point x="797.2" y="-113.2" type="curve" smooth="yes"/>
			<point x="878.2" y="46" type="line"/>
			<point x="819" y="46" type="line"/>
			<point x="712" y="-109.4" type="line" smooth="yes"/>
			<point x="625.8" y="-230.8"/>
			<point x="607.2" y="-294.4"/>
			<point x="607.2" y="-361" type="curve" smooth="yes"/>
			<point x="607.2" y="-464.4"/>
			<point x="677.4" y="-530"/>
			<point x="781.2" y="-530" type="curve" smooth="yes"/>
			<point x="872" y="-530"/>
			<point x="945" y="-486"/>
			<point x="1024.4" y="-373.6" type="curve"/>
			<point x="992.8" y="-340.2" type="line"/>
			<point x="929" y="-404.2"/>
			<point x="887" y="-421.6"/>
			<point x="844" y="-421.6" type="curve" smooth="yes"/>
			<point x="779" y="-421.6"/>
			<point x="734.2" y="-382.4"/>
			<point x="734.2" y="-313.4" type="curve" smooth="yes"/>
			<point x="734.2" y="-263.2"/>
			<point x="748" y="-206.4"/>
		</contour>
	</outline>
</glyph>
<glyph name="uni01EB" format="2">
  <advance width="1022"/>
  <unicode hex="01EB"/>
  <outline>
    <contour>
      <point x="515.6" y="62.4" type="curve" smooth="yes"/>
      <point x="367.6" y="62.4"/>
      <point x="273.8" y="200.6"/>
      <point x="273.8" y="458.2" type="curve" smooth="yes"/>
      <point x="273.8" y="694.6"/>
      <point x="372.2" y="793.6"/>
      <point x="506.8" y="793.6" type="curve" smooth="yes"/>
      <point x="654.8" y="793.6"/>
      <point x="748.6" y="655.4"/>
      <point x="748.6" y="397.8" type="curve" smooth="yes"/>
      <point x="748.6" y="161.4"/>
      <point x="650.2" y="62.4"/>
    </contour>
    <contour>
      <point x="507.2" y="-22.0" type="curve" smooth="yes"/>
      <point x="765.2" y="-22.0"/>
      <point x="952.8" y="171.6"/>
      <point x="952.8" y="439.0" type="curve" smooth="yes"/>
      <point x="952.8" y="698.4"/>
      <point x="778.6" y="878.0"/>
      <point x="515.2" y="878.0" type="curve" smooth="yes"/>
      <point x="257.2" y="878.0"/>
      <point x="69.6" y="684.4"/>
      <point x="69.6" y="417.0" type="curve" smooth="yes"/>
      <point x="69.6" y="157.6"/>
      <point x="243.8" y="-22.0"/>
    </contour>
    <contour>
      <point x="522.6" y="-113.2" type="curve" smooth="yes"/>
      <point x="602.2" y="46.0" type="line"/>
      <point x="543.0" y="46.0" type="line"/>
      <point x="437.6" y="-109.4" type="line" smooth="yes"/>
      <point x="354.2" y="-230.8"/>
      <point x="336.4" y="-294.4"/>
      <point x="336.4" y="-361.0" type="curve" smooth="yes"/>
      <point x="336.4" y="-464.4"/>
      <point x="406.6" y="-530.0"/>
      <point x="510.4" y="-530.0" type="curve" smooth="yes"/>
      <point x="601.2" y="-530.0"/>
      <point x="674.2" y="-486.0"/>
      <point x="753.6" y="-373.6" type="curve"/>
      <point x="722.0" y="-340.2" type="line"/>
      <point x="658.2" y="-404.2"/>
      <point x="616.2" y="-421.6"/>
      <point x="573.2" y="-421.6" type="curve" smooth="yes"/>
      <point x="508.2" y="-421.6"/>
      <point x="463.4" y="-382.4"/>
      <point x="463.4" y="-313.4" type="curve" smooth="yes"/>
      <point x="463.4" y="-263.2"/>
      <point x="475.6" y="-206.4"/>
    </contour>
  </outline>
</glyph>
<glyph name="uni0237" format="2">
	<unicode hex="0237"/>
	<advance width="494.6"/>
	<outline>
		<contour>
			<point x="172.2" y="679.4" type="curve"/>
			<point x="172.2" y="-142.8" type="line" smooth="yes"/>
			<point x="172.2" y="-268.4"/>
			<point x="153.2" y="-317.8"/>
			<point x="1" y="-477" type="curve"/>
			<point x="47.8" y="-530" type="line"/>
			<point x="332.8" y="-313.4"/>
			<point x="358.6" y="-277"/>
			<point x="358.6" y="-75.2" type="curve" smooth="yes"/>
			<point x="358.6" y="701.8" type="line"/>
			<point x="366.4" y="878" type="line"/>
			<point x="340.2" y="878" type="line"/>
			<point x="29.6" y="795.6" type="line"/>
			<point x="29.6" y="762.2" type="line"/>
			<point x="88.2" y="741.8"/>
			<point x="148.2" y="707.8"/>
		</contour>
	</outline>
	<anchor name="top" x="258.6" y="856"/>
	<anchor name="bottom" x="195.4" y="-524"/>
</glyph>
